<svg height="512" viewBox="0 0 28 28" width="512" xmlns="http://www.w3.org/2000/svg"><g id="Layer_2" data-name="Layer 2"><path d="m19.657 2h-11.314a7.351 7.351 0 0 0 -7.343 7.343v9.314a7.351 7.351 0 0 0 7.343 7.343h11.314a7.351 7.351 0 0 0 7.343-7.343v-9.314a7.351 7.351 0 0 0 -7.343-7.343zm-11.314 2h11.314a5.344 5.344 0 0 1 4.883 3.194l-7.486 4.991a5.494 5.494 0 0 1 -6.108 0l-7.486-4.991a5.344 5.344 0 0 1 4.883-3.194zm16.657 5.343v9.314a5.349 5.349 0 0 1 -5.343 5.343h-11.314a5.349 5.349 0 0 1 -5.343-5.343v-9.314c0-.017 0-.032 0-.049l6.831 4.555a7.491 7.491 0 0 0 8.328 0l6.841-4.555z"/></g></svg>