<?xml version="1.0" encoding="UTF-8"?>
<svg xmlns="http://www.w3.org/2000/svg" width="512" height="512" viewBox="0 0 28 28"><g id="Layer_2" data-name="Layer 2"><path d="M20,3.017V2a1,1,0,0,0-2,0V3H10V2A1,1,0,0,0,8,2V3.017a7.346,7.346,0,0,0-7,7.326v9.314A7.351,7.351,0,0,0,8.343,27H19.657A7.351,7.351,0,0,0,27,19.657V10.343A7.346,7.346,0,0,0,20,3.017ZM8,5.035V6a1,1,0,0,0,2,0V5h8V6a1,1,0,0,0,2,0V5.035A5.319,5.319,0,0,1,24.965,10H3.035A5.319,5.319,0,0,1,8,5.035ZM25,19.657A5.349,5.349,0,0,1,19.657,25H8.343A5.349,5.349,0,0,1,3,19.657V12H25Z"/><path d="M8,17H20a1,1,0,0,0,0-2H8a1,1,0,0,0,0,2Z"/><path d="M8,22h6a1,1,0,0,0,0-2H8a1,1,0,0,0,0,2Z"/></g></svg>
