<?xml version="1.0" encoding="UTF-8"?>
<svg xmlns="http://www.w3.org/2000/svg" width="512" height="512" viewBox="0 0 28 28"><g id="Layer_2" data-name="Layer 2"><path d="M19.657,1H8.343A7.351,7.351,0,0,0,1,8.343V19.657A7.351,7.351,0,0,0,8.343,27H19.657A7.351,7.351,0,0,0,27,19.657V8.343A7.351,7.351,0,0,0,19.657,1ZM25,19.657A5.349,5.349,0,0,1,19.657,25H8.343A5.349,5.349,0,0,1,3,19.657V8.343A5.349,5.349,0,0,1,8.343,3H19.657A5.349,5.349,0,0,1,25,8.343Z"/><path d="M9,13a1,1,0,0,0-1,1v6a1,1,0,0,0,2,0V14A1,1,0,0,0,9,13Z"/><path d="M14,7a1,1,0,0,0-1,1V20a1,1,0,0,0,2,0V8A1,1,0,0,0,14,7Z"/><path d="M19,11a1,1,0,0,0-1,1v8a1,1,0,0,0,2,0V12A1,1,0,0,0,19,11Z"/></g></svg>
