<svg height="512" viewBox="0 0 28 28" width="512" xmlns="http://www.w3.org/2000/svg"><g id="Layer_2" data-name="Layer 2"><path d="m25 10a1 1 0 0 0 -1 1v8.657a5.349 5.349 0 0 1 -5.343 5.343h-10.314a5.349 5.349 0 0 1 -5.343-5.343v-10.314a5.349 5.349 0 0 1 5.343-5.343h8.657a1 1 0 0 0 0-2h-8.657a7.351 7.351 0 0 0 -7.343 7.343v10.314a7.351 7.351 0 0 0 7.343 7.343h10.314a7.351 7.351 0 0 0 7.343-7.343v-8.657a1 1 0 0 0 -1-1z"/><path d="m23 9a4 4 0 1 0 -4-4 4 4 0 0 0 4 4zm0-6a2 2 0 1 1 -2 2 2 2 0 0 1 2-2z"/><path d="m12.707 12.293a1 1 0 0 0 -1.414 0l-4 4a1 1 0 1 0 1.414 1.414l3.293-3.293 2.293 2.293a1 1 0 0 0 1.414 0l4-4a1 1 0 0 0 -1.414-1.414l-3.293 3.293z"/></g></svg>