<svg height="512" viewBox="0 0 28 28" width="512" xmlns="http://www.w3.org/2000/svg"><g id="Layer_2" data-name="Layer 2"><path d="m23.194 4.809a13 13 0 0 0 -21.1 14.4 2.642 2.642 0 0 1 .15 1.691l-.788 3.151a2.056 2.056 0 0 0 2.492 2.492l3.152-.787a2.623 2.623 0 0 1 1.692.151 13.005 13.005 0 0 0 5.226 1.093q.591 0 1.182-.053a13 13 0 0 0 7.994-22.138zm1.72 10.591a11.011 11.011 0 0 1 -9.894 9.556 10.877 10.877 0 0 1 -5.42-.88 4.685 4.685 0 0 0 -1.881-.395 4.555 4.555 0 0 0 -1.1.135l-3.219.721.788-3.15a4.648 4.648 0 0 0 -.26-2.982 10.892 10.892 0 0 1 -.878-5.425 11 11 0 1 1 21.864 2.42z"/><circle cx="14" cy="14" r="1"/><circle cx="9" cy="14" r="1"/><circle cx="19" cy="14" r="1"/></g></svg>