<?xml version="1.0" encoding="UTF-8"?>
<svg xmlns="http://www.w3.org/2000/svg" width="512" height="512" viewBox="0 0 28 28"><g id="Layer_2" data-name="Layer 2"><path d="M21.114,4H15.989a3.369,3.369,0,0,1-2.542-1.157A5.368,5.368,0,0,0,9.4,1H6.886A5.893,5.893,0,0,0,1,6.886V21.114A5.893,5.893,0,0,0,6.886,27H21.114A5.893,5.893,0,0,0,27,21.114V9.886A5.893,5.893,0,0,0,21.114,4ZM25,21.114A3.89,3.89,0,0,1,21.114,25H6.886A3.89,3.89,0,0,1,3,21.114V12H25ZM25,10H3V6.886A3.89,3.89,0,0,1,6.886,3H9.4a3.365,3.365,0,0,1,2.542,1.157A5.371,5.371,0,0,0,15.989,6h5.125A3.89,3.89,0,0,1,25,9.886Z"/></g></svg>
