<svg height="512" viewBox="0 0 28 28" width="512" xmlns="http://www.w3.org/2000/svg"><g id="Layer_2" data-name="Layer 2"><path d="m24.665 10.3a3.832 3.832 0 0 0 -2.871-1.3h-1.794v-2a6 6 0 0 0 -12 0v2h-1.794a3.831 3.831 0 0 0 -3.8 4.305l1.166 9.331a4.993 4.993 0 0 0 4.944 4.364h10.968a4.993 4.993 0 0 0 4.945-4.365l1.166-9.33a3.833 3.833 0 0 0 -.93-3.005zm-14.665-3.3a4 4 0 0 1 8 0v2h-8zm13.61 6.057-1.166 9.33a2.988 2.988 0 0 1 -2.96 2.613h-10.968a2.988 2.988 0 0 1 -2.96-2.613l-1.166-9.33a1.83 1.83 0 0 1 1.816-2.057h15.588a1.83 1.83 0 0 1 1.816 2.057z"/><circle cx="9" cy="14" r="1"/><circle cx="19" cy="14" r="1"/></g></svg>