<svg height="512" viewBox="0 0 28 28" width="512" xmlns="http://www.w3.org/2000/svg"><g id="Layer_2" data-name="Layer 2"><path d="m19.657 2h-11.314a7.351 7.351 0 0 0 -7.343 7.343v9.314a7.351 7.351 0 0 0 7.343 7.343h11.314a7.351 7.351 0 0 0 7.343-7.343v-9.314a7.351 7.351 0 0 0 -7.343-7.343zm-11.314 2h11.314a5.338 5.338 0 0 1 5.151 4h-21.616a5.338 5.338 0 0 1 5.151-4zm16.657 14.657a5.349 5.349 0 0 1 -5.343 5.343h-11.314a5.349 5.349 0 0 1 -5.343-5.343v-8.657h22z"/><path d="m8 20h3a1 1 0 0 0 0-2h-3a1 1 0 0 0 0 2z"/></g></svg>