<svg height="512" viewBox="0 0 28 28" width="512" xmlns="http://www.w3.org/2000/svg"><g id="Layer_2" data-name="Layer 2"><path d="m26.207 17.318a2.608 2.608 0 0 0 -1.225-1.6 1.974 1.974 0 0 1 -.982-1.701v-.035a1.971 1.971 0 0 1 .983-1.7 2.631 2.631 0 0 0 .962-3.589l-1.373-2.382a2.629 2.629 0 0 0 -3.59-.961l-.092.05a1.778 1.778 0 0 1 -1.792 0l-.2-.117a1.775 1.775 0 0 1 -.898-1.548v-.108a2.631 2.631 0 0 0 -2.627-2.627h-2.746a2.631 2.631 0 0 0 -2.627 2.627v.108a1.775 1.775 0 0 1 -.895 1.553l-.205.112a1.776 1.776 0 0 1 -1.792 0l-.094-.055a2.631 2.631 0 0 0 -3.589.962l-1.37 2.382a2.631 2.631 0 0 0 .962 3.589 2 2 0 0 1 0 3.445 2.626 2.626 0 0 0 -.962 3.589l1.32 2.288a2.738 2.738 0 0 0 3.735 1 1.779 1.779 0 0 1 1.8 0l.2.111a1.776 1.776 0 0 1 .89 1.555 2.738 2.738 0 0 0 2.735 2.734h2.53a2.738 2.738 0 0 0 2.735-2.734 1.776 1.776 0 0 1 .895-1.554l.2-.116a1.778 1.778 0 0 1 1.793 0 2.737 2.737 0 0 0 3.734-1l1.319-2.284a2.609 2.609 0 0 0 .266-1.994zm-2 .994-1.314 2.288a.736.736 0 0 1 -1 .268 3.782 3.782 0 0 0 -3.8.006l-.169.1a3.776 3.776 0 0 0 -1.924 3.292.735.735 0 0 1 -.735.734h-2.53a.735.735 0 0 1 -.735-.734 3.776 3.776 0 0 0 -1.917-3.3l-.161-.093a3.738 3.738 0 0 0 -1.909-.521 3.809 3.809 0 0 0 -1.9.51.736.736 0 0 1 -1-.268l-1.325-2.282a.626.626 0 0 1 .23-.857 4 4 0 0 0 0-6.91.618.618 0 0 1 -.292-.38.624.624 0 0 1 .063-.476l1.372-2.378a.626.626 0 0 1 .855-.23l.094.054a3.787 3.787 0 0 0 3.813-.01l.16-.093a3.774 3.774 0 0 0 1.917-3.297v-.108a.627.627 0 0 1 .627-.627h2.746a.627.627 0 0 1 .627.627v.108a3.777 3.777 0 0 0 1.917 3.3l.161.092a3.785 3.785 0 0 0 3.813.009l.092-.052a.626.626 0 0 1 .856.229l1.373 2.378a.624.624 0 0 1 .063.476.618.618 0 0 1 -.292.38 3.977 3.977 0 0 0 -1.983 3.436v.033a3.976 3.976 0 0 0 1.983 3.439.627.627 0 0 1 .229.857z"/><path d="m14 9a5 5 0 1 0 5 5 5.006 5.006 0 0 0 -5-5zm0 8a3 3 0 1 1 3-3 3 3 0 0 1 -3 3z"/></g></svg>