<svg height="512" viewBox="0 0 28 28" width="512" xmlns="http://www.w3.org/2000/svg"><g id="Layer_2" data-name="Layer 2"><path d="m24.625 18.389a9.7 9.7 0 0 1 -1.625-5.368v-2.747a9.162 9.162 0 0 0 -8.4-9.254 9 9 0 0 0 -9.6 8.98v3.021a9.637 9.637 0 0 1 -.5 3.059 9.675 9.675 0 0 1 -1.128 2.309 2.659 2.659 0 0 0 -.282 2.384 2.606 2.606 0 0 0 1.748 1.627 33.142 33.142 0 0 0 4.367.937 4.97 4.97 0 0 0 9.59 0 33.142 33.142 0 0 0 4.367-.937 2.606 2.606 0 0 0 1.745-1.628 2.659 2.659 0 0 0 -.282-2.383zm-10.625 6.611a2.993 2.993 0 0 1 -2.534-1.411c.843.065 1.688.1 2.534.1s1.691-.039 2.534-.1a2.993 2.993 0 0 1 -2.534 1.411zm9.03-4.915a.627.627 0 0 1 -.421.394 31.148 31.148 0 0 1 -17.219 0 .627.627 0 0 1 -.42-.394.653.653 0 0 1 .069-.587 11.719 11.719 0 0 0 1.361-2.785 11.667 11.667 0 0 0 .6-3.692v-3.021a7 7 0 0 1 7-7c.156 0 .314 0 .472.016a7.158 7.158 0 0 1 6.528 7.258v2.747a11.676 11.676 0 0 0 1.961 6.479.653.653 0 0 1 .069.585z"/></g></svg>