<svg height="512" viewBox="0 0 28 28" width="512" xmlns="http://www.w3.org/2000/svg"><g id="Layer_2" data-name="Layer 2"><path d="m25.537 4.156a21.568 21.568 0 0 0 -23.074 0 1 1 0 0 0 -.463.844v8.712a12.344 12.344 0 0 0 7.221 11.214l4.365 1.984a1 1 0 0 0 .828 0l4.365-1.984a12.344 12.344 0 0 0 7.221-11.214v-8.712a1 1 0 0 0 -.463-.844zm-1.537 9.556a10.339 10.339 0 0 1 -6.049 9.393l-3.951 1.795-3.951-1.8a10.339 10.339 0 0 1 -6.049-9.388v-8.154a19.569 19.569 0 0 1 20 0z"/><path d="m10.707 11.293a1 1 0 0 0 -1.414 1.414l3 3a1 1 0 0 0 1.414 0l5-5a1 1 0 0 0 -1.414-1.414l-4.293 4.293z"/></g></svg>