<?xml version="1.0" encoding="UTF-8"?>
<svg xmlns="http://www.w3.org/2000/svg" width="512" height="512" viewBox="0 0 28 28"><g id="Layer_2" data-name="Layer 2"><path d="M25,12a1,1,0,0,0-1,1v6.657A5.349,5.349,0,0,1,18.657,25H8.343A5.349,5.349,0,0,1,3,19.657V9.343A5.349,5.349,0,0,1,8.343,4H15a1,1,0,0,0,0-2H8.343A7.351,7.351,0,0,0,1,9.343V19.657A7.351,7.351,0,0,0,8.343,27H18.657A7.351,7.351,0,0,0,26,19.657V13A1,1,0,0,0,25,12Z"/><path d="M11,12v4a1,1,0,0,0,1,1h4a1,1,0,0,0,.707-.293l9-9a3.828,3.828,0,0,0-5.414-5.414l-9,9A1,1,0,0,0,11,12ZM21.707,3.707a1.829,1.829,0,1,1,2.586,2.586L24,6.586,21.414,4ZM13,12.414l7-7L22.586,8l-7,7H13Z"/></g></svg>
