<svg height="512" viewBox="0 0 28 28" width="512" xmlns="http://www.w3.org/2000/svg"><g id="Layer_2" data-name="Layer 2"><path d="m25 6h-6a5 5 0 0 0 -10 0h-6a1 1 0 0 0 0 2h1v13.484a6.523 6.523 0 0 0 6.516 6.516h6.968a6.523 6.523 0 0 0 6.516-6.516v-13.484h1a1 1 0 0 0 0-2zm-11-3a3 3 0 0 1 3 3h-6a3 3 0 0 1 3-3zm8 18.484a4.521 4.521 0 0 1 -4.516 4.516h-6.968a4.521 4.521 0 0 1 -4.516-4.516v-13.484h16z"/><path d="m11 21a1 1 0 0 0 1-1v-7a1 1 0 0 0 -2 0v7a1 1 0 0 0 1 1z"/><path d="m17 21a1 1 0 0 0 1-1v-7a1 1 0 0 0 -2 0v7a1 1 0 0 0 1 1z"/></g></svg>