<svg height="512" viewBox="0 0 28 28" width="512" xmlns="http://www.w3.org/2000/svg"><g id="Layer_2" data-name="Layer 2"><path d="m26.983 9a7.346 7.346 0 0 0 -7.326-7h-11.314a7.351 7.351 0 0 0 -7.343 7.343v9.314a7.351 7.351 0 0 0 7.343 7.343h11.314a7.346 7.346 0 0 0 7.326-7h.017v-10zm-7.326 15h-11.314a5.349 5.349 0 0 1 -5.343-5.343v-9.314a5.349 5.349 0 0 1 5.343-5.343h11.314a5.333 5.333 0 0 1 5.308 5h-6.965a5 5 0 0 0 0 10h6.965a5.333 5.333 0 0 1 -5.308 5zm5.343-7h-7a3 3 0 0 1 0-6h7z"/><circle cx="18" cy="14" r="1"/></g></svg>