<svg id="Capa_1" enable-background="new 0 0 512 512" height="512" viewBox="0 0 512 512" width="512" xmlns="http://www.w3.org/2000/svg"><g id="Layer_2"><path d="m162.469 18.706c-70.693 4.445-125.786 63.019-125.898 133.852v206.885c.081 74.123 60.149 134.191 134.272 134.272h170.313c74.123-.081 134.191-60.149 134.272-134.272v-206.885c-.111-70.832-55.204-129.406-125.897-133.851l-8.375-.421h-170.313zm20.388 36.151h146.286v150.546l-63.726-38.217c-5.795-3.482-13.039-3.482-18.834 0l-63.726 38.217zm256 304.585c-.05 53.938-43.763 97.65-97.701 97.701h-170.313c-53.938-.05-97.65-43.763-97.701-97.701v-206.884c.132-44.374 30.183-83.073 73.143-94.19v179.346c.002 10.099 8.19 18.284 18.289 18.282 3.317-.001 6.571-.903 9.414-2.611l82.012-49.207 82.011 49.207c8.657 5.201 19.891 2.399 25.091-6.257 1.708-2.843 2.611-6.097 2.611-9.414v-179.346c42.959 11.116 73.011 49.816 73.143 94.19v206.884z"/></g></svg>