<svg height="512" viewBox="0 0 28 28" width="512" xmlns="http://www.w3.org/2000/svg"><g id="Layer_2" data-name="Layer 2"><path d="m26 1h-1.592a28.946 28.946 0 0 0 -14.337 3.807l-.571.325a1 1 0 0 0 -.5.868v13.82a5.8 5.8 0 0 0 -3-.82c-2.757 0-5 1.794-5 4s2.243 4 5 4 5-1.794 5-4v-10.446l.746-.466a26.844 26.844 0 0 1 13.254-4.053v9.785a5.8 5.8 0 0 0 -3-.82c-2.757 0-5 1.794-5 4s2.243 4 5 4 5-1.794 5-4v-19a1 1 0 0 0 -1-1zm-20 24c-1.626 0-3-.916-3-2s1.374-2 3-2 3 .916 3 2-1.374 2-3 2zm16-2c-1.626 0-3-.916-3-2s1.374-2 3-2 3 .916 3 2-1.374 2-3 2zm3-16.965a28.829 28.829 0 0 0 -14 4.176v-3.631l.064-.037a26.952 26.952 0 0 1 13.344-3.543h.592z"/></g></svg>