<svg id="SVGRoot" height="24" viewBox="0 0 24 24" width="24" xmlns="http://www.w3.org/2000/svg" xmlns:svg="http://www.w3.org/2000/svg"><g id="g20" stroke-linecap="round" stroke-linejoin="round"><path id="path2" d="m3.5 3c-.2761424 0-.5.2238576-.5.5s.2238576.5.5.5h2c.2820641 0 .5.2179359.5.5v11c0 1.299443 1.0062431 2.374194 2.2773438 2.488281-.1762931.297187-.2773438.643504-.2773438 1.011719 0 1.098644.9013561 2 2 2 1.098644 0 2-.901356 2-2 0-.36357-.09928-.705356-.271484-1h3.542968c-.172205.294644-.271484.63643-.271484 1 0 1.098644.901356 2 2 2s2-.901356 2-2c0-.36357-.09928-.705356-.271484-1h1.771484c.276142 0 .5-.223858.5-.5s-.223858-.5-.5-.5h-12c-.8343478 0-1.5-.665652-1.5-1.5v-.5h9.439453c1.435634 0 2.684661-1.000897 2.996094-2.402344l1.335937-6.0136716c.178287-.8022866-.449627-1.5839849-1.271484-1.5839844h-2.261719c-.808753-1.2045703-2.18309-2-3.738281-2s-2.929528.7954297-3.7382812 2h-2.7617188v-.5c0-.8225032-.6774968-1.5-1.5-1.5zm10 1c1.938915 0 3.5 1.5610849 3.5 3.5s-1.561085 3.5-3.5 3.5-3.5-1.5610849-3.5-3.5 1.561085-3.5 3.5-3.5zm-6.5 2h2.2578125c-.1667636.4695261-.2578125.9743531-.2578125 1.5 0 2.4793541 2.020645 4.5 4.5 4.5s4.5-2.0206459 4.5-4.5c0-.5256469-.091049-1.0304739-.257812-1.5h1.757812c.204516-.0000001.339288.1675425.294922.3671875l-1.335938 6.0117185c-.210985.949444-1.046926 1.621094-2.019531 1.621094h-9.439453zm3 12c.558205 0 1 .441795 1 1s-.441795 1-1 1c-.5582053 0-1-.441795-1-1s.4417947-1 1-1zm7 0c.558205 0 1 .441795 1 1s-.441795 1-1 1-1-.441795-1-1 .441795-1 1-1z"/><path id="path4" d="m13.499996 5a.50018966.50009459 0 0 0 -.50019.5000946v2.7954507l-1.144965-1.1467013a.50018966.49719559 0 0 0 -.35365-.1484656.50018966.49719559 0 0 0 -.353649.1445585.50018966.49719559 0 0 0 -.0039.7013046l2.000759 2.0062389a.50023968.4972453 0 0 0 .711208 0l2.000749-2.0062389a.50018966.49719559 0 0 0 -.0039-.7013046.50018966.49719559 0 0 0 -.707299.00391l-1.144973 1.1466984v-2.7954507a.50018966.50009459 0 0 0 -.50019-.5000946z" stroke-width=".997"/></g></svg>