<svg width="61" height="56" viewBox="0 0 61 56" fill="none" xmlns="http://www.w3.org/2000/svg">
<g filter="url(#filter0_d_139_38)">
<rect x="7" y="6" width="45" height="40" rx="5" fill="url(#paint0_linear_139_38)"/>
<rect x="8" y="7" width="43" height="38" rx="4" stroke="#1973DD" stroke-width="2"/>
<path d="M17.6944 14C17.3109 14 17 14.2786 17 14.6222C17 14.9659 17.3109 15.2444 17.6944 15.2444H20.4722C20.864 15.2444 21.1667 15.5157 21.1667 15.8667V29.5556C21.1667 31.1726 22.5642 32.5101 24.3296 32.6521C24.0848 33.0219 23.9444 33.4529 23.9444 33.9111C23.9444 35.2783 25.1963 36.4 26.7222 36.4C28.2481 36.4 29.5 35.2783 29.5 33.9111C29.5 33.4587 29.3621 33.0333 29.1229 32.6667H34.0437C33.8046 33.0333 33.6667 33.4587 33.6667 33.9111C33.6667 35.2783 34.9185 36.4 36.4444 36.4C37.9703 36.4 39.2222 35.2783 39.2222 33.9111C39.2222 33.4587 39.0843 33.0333 38.8452 32.6667H41.3056C41.6891 32.6667 42 32.3881 42 32.0444C42 31.7008 41.6891 31.4222 41.3056 31.4222H24.6389C23.4801 31.4222 22.5556 30.5939 22.5556 29.5556V28.9333H35.6659C37.6598 28.9333 39.3946 27.6878 39.8271 25.9437L41.6826 18.4601C41.9302 17.4617 41.0581 16.4889 39.9167 16.4889H36.7754C35.6521 14.9899 33.7433 14 31.5833 14C29.4233 14 27.5145 14.9899 26.3913 16.4889H22.5556V15.8667C22.5556 14.8431 21.6146 14 20.4722 14H17.6944ZM31.5833 15.2444C34.2763 15.2444 36.4444 17.1871 36.4444 19.6C36.4444 22.0129 34.2763 23.9556 31.5833 23.9556C28.8904 23.9556 26.7222 22.0129 26.7222 19.6C26.7222 17.1871 28.8904 15.2444 31.5833 15.2444ZM22.5556 17.7333H25.6914C25.4598 18.3176 25.3333 18.9459 25.3333 19.6C25.3333 22.6854 28.1398 25.2 31.5833 25.2C35.0269 25.2 37.8333 22.6854 37.8333 19.6C37.8333 18.9459 37.7069 18.3176 37.4753 17.7333H39.9167C40.2007 17.7333 40.3879 17.9418 40.3263 18.1903L38.4708 25.6715C38.1778 26.8531 37.0167 27.6889 35.6659 27.6889H22.5556V17.7333ZM26.7222 32.6667C27.4975 32.6667 28.1111 33.2165 28.1111 33.9111C28.1111 34.6058 27.4975 35.1556 26.7222 35.1556C25.9469 35.1556 25.3333 34.6058 25.3333 33.9111C25.3333 33.2165 25.9469 32.6667 26.7222 32.6667ZM36.4444 32.6667C37.2197 32.6667 37.8333 33.2165 37.8333 33.9111C37.8333 34.6058 37.2197 35.1556 36.4444 35.1556C35.6692 35.1556 35.0556 34.6058 35.0556 33.9111C35.0556 33.2165 35.6692 32.6667 36.4444 32.6667Z" fill="#3571B8"/>
<path d="M32.0001 17.2C31.9125 17.2 31.8258 17.2124 31.7449 17.2365C31.6639 17.2606 31.5904 17.296 31.5285 17.3406C31.4666 17.3851 31.4174 17.4381 31.3839 17.4963C31.3504 17.5546 31.3332 17.617 31.3332 17.68V20.3637L29.8065 19.2628C29.7449 19.218 29.6716 19.1824 29.5906 19.1579C29.5097 19.1335 29.4228 19.1207 29.335 19.1203C29.1583 19.1201 28.9888 19.17 28.8635 19.2591C28.7385 19.348 28.6677 19.4688 28.6668 19.5949C28.6658 19.7211 28.7346 19.8424 28.8583 19.9323L31.5259 21.8583C31.588 21.9032 31.6618 21.9388 31.7432 21.9631C31.8246 21.9874 31.9119 22 32.0001 22C32.0883 22 32.1756 21.9874 32.257 21.9631C32.3384 21.9388 32.4122 21.9032 32.4742 21.8583L35.1419 19.9323C35.2655 19.8424 35.3344 19.7211 35.3334 19.5949C35.3324 19.4688 35.2617 19.348 35.1367 19.2591C35.0109 19.1701 34.8409 19.1205 34.6641 19.1212C34.4872 19.1219 34.318 19.1729 34.1936 19.2628L32.667 20.3637V17.68C32.667 17.617 32.6497 17.5546 32.6162 17.4963C32.5827 17.4381 32.5336 17.3851 32.4717 17.3406C32.4097 17.296 32.3362 17.2606 32.2553 17.2365C32.1744 17.2124 32.0877 17.2 32.0001 17.2Z" fill="#3571B8"/>
</g>
<defs>
<filter id="filter0_d_139_38" x="0" y="0" width="61" height="56" filterUnits="userSpaceOnUse" color-interpolation-filters="sRGB">
<feFlood flood-opacity="0" result="BackgroundImageFix"/>
<feColorMatrix in="SourceAlpha" type="matrix" values="0 0 0 0 0 0 0 0 0 0 0 0 0 0 0 0 0 0 127 0" result="hardAlpha"/>
<feOffset dx="1" dy="2"/>
<feGaussianBlur stdDeviation="4"/>
<feComposite in2="hardAlpha" operator="out"/>
<feColorMatrix type="matrix" values="0 0 0 0 0 0 0 0 0 0 0 0 0 0 0 0 0 0 0.25 0"/>
<feBlend mode="normal" in2="BackgroundImageFix" result="effect1_dropShadow_139_38"/>
<feBlend mode="normal" in="SourceGraphic" in2="effect1_dropShadow_139_38" result="shape"/>
</filter>
<linearGradient id="paint0_linear_139_38" x1="29.5" y1="6" x2="29.5" y2="46" gradientUnits="userSpaceOnUse">
<stop stop-color="#FDFEFF"/>
<stop offset="1" stop-color="#E4F2FF"/>
</linearGradient>
</defs>
</svg>
