<svg id="SVGRoot" height="24" viewBox="0 0 24 24" width="24" xmlns="http://www.w3.org/2000/svg" xmlns:svg="http://www.w3.org/2000/svg"><g id="g9" stroke-linecap="round" stroke-linejoin="round"><path id="path1" d="m11.5 3c-.822503 0-1.5.6774968-1.5 1.5v.5h-5.5c-.2761309.0000276-.4999724.2238691-.5.5v3c0 .6471979.4204741 1.2019456 1 1.4101562v4.0898438h-.5c-.8225032 0-1.5.677497-1.5 1.5v2c0 .822503.6774968 1.5 1.5 1.5h.5507812v.002c.2341683 1.136325 1.2462803 1.998 2.4492188 1.998h9c1.202938 0 2.21505-.863628 2.449219-2h.550781c.822503 0 1.5-.677497 1.5-1.5v-2c0-.822503-.677497-1.5-1.5-1.5h-.5v-4.0898438c.579526-.2082106 1-.7629583 1-1.4101562v-3c-.000028-.2761309-.223869-.4999724-.5-.5h-5.5v-.5c0-.8225032-.677497-1.5-1.5-1.5zm0 1h1c.282064 0 .5.2179359.5.5v.5h-2v-.5c0-.2820641.217936-.5.5-.5zm-6.5 2h14v2.5c0 .2820641-.217936.5-.5.5h-13c-.2820641 0-.5-.2179359-.5-.5zm1 4h12v8.5c0 .834348-.665652 1.5-1.5 1.5h-9c-.8343478 0-1.5-.665652-1.5-1.5zm-1.5 5h.5v3h-.5c-.2820641 0-.5-.217936-.5-.5v-2c0-.282064.2179359-.5.5-.5zm14.5 0h.5c.282064 0 .5.217936.5.5v2c0 .282064-.217936.5-.5.5h-.5z"/><path id="path2" d="m8.5 13a.50005.50005 0 0 0 -.5.5v3c0 .822504.677496 1.5 1.5 1.5h5c.822504 0 1.5-.677496 1.5-1.5v-3a.50005.50005 0 0 0 -.5-.5zm.5 1h6v2.5c0 .282064-.217936.5-.5.5h-5c-.2820644 0-.5-.217936-.5-.5z"/><path id="path6" d="m10.5 15a.5.5 0 0 0 -.5.5.5.5 0 0 0 .5.5h3a.5.5 0 0 0 .5-.5.5.5 0 0 0 -.5-.5z"/><path id="path7" d="m7.5 7a.5.5 0 0 0 -.5.5.5.5 0 0 0 .5.5h1a.5.5 0 0 0 .5-.5.5.5 0 0 0 -.5-.5z"/><path id="path8" d="m11.5 7a.5.5 0 0 0 -.5.5.5.5 0 0 0 .5.5h1a.5.5 0 0 0 .5-.5.5.5 0 0 0 -.5-.5z"/><path id="path9" d="m15.5 7a.5.5 0 0 0 -.5.5.5.5 0 0 0 .5.5h1a.5.5 0 0 0 .5-.5.5.5 0 0 0 -.5-.5z"/></g></svg>