<svg id="SVGRoot" height="24" viewBox="0 0 24 24" width="24" xmlns="http://www.w3.org/2000/svg" xmlns:svg="http://www.w3.org/2000/svg"><g id="g5" stroke-linecap="round" stroke-linejoin="round"><path id="path1" d="m12 3c-1.650928 0-3 1.3490714-3 3v1h-2.5117188c-.8118215 0-1.5093691.5980091-1.6328124 1.4003906l-1.6972657 11.0351564c-.1251312.813353.5188741 1.564453 1.3417969 1.564453h15c.822923 0 1.466928-.7511 1.341797-1.564453l-1.695313-11.0234376c-.12446-.8089936-.827973-1.4121094-1.646484-1.4121094h-2.5v-1c0-1.6509286-1.349072-3-3-3zm0 1c1.11049 0 2 .8895104 2 2v1h-4v-1c0-1.1104896.88951-2 2-2zm-5.5117188 4h3.0117188 5 3c.332111 0 .607703.2362049.658203.5644531l1.451172 9.4355469h-15.21875l1.453125-9.4472656c.0494825-.3216363.319111-.5527344.6445312-.5527344zm-2.2519531 11h15.5273439l.08984.587891c.034777.226027-.124825.412109-.353512.412109h-15c-.2286871 0-.3882892-.186082-.3535156-.412109z"/><path id="path3" d="m10.5 10a.5.5 0 0 0 -.5.5.5.5 0 0 0 .5.5h3a.5.5 0 0 0 .5-.5.5.5 0 0 0 -.5-.5z"/></g></svg>