<svg id="SVGRoot" height="24" viewBox="0 0 24 24" width="24" xmlns="http://www.w3.org/2000/svg" xmlns:svg="http://www.w3.org/2000/svg"><g id="g26" stroke-linecap="round" stroke-linejoin="round"><path id="path1" d="m4.5 4c-1.37635 0-2.5 1.12365-2.5 2.5v11c0 1.37635 1.12365 2.5 2.5 2.5h15c1.37635 0 2.5-1.12365 2.5-2.5v-11c0-1.37635-1.12365-2.5-2.5-2.5zm0 1h15c.839648 0 1.5.6603522 1.5 1.5v11c0 .839648-.660352 1.5-1.5 1.5h-15c-.8396478 0-1.5-.660352-1.5-1.5v-11c0-.8396478.6603522-1.5 1.5-1.5z"/><path id="path2" d="m5.5 6c-.8223506 0-1.5.6776494-1.5 1.5v9c0 .822351.6776494 1.5 1.5 1.5h13c.822351 0 1.5-.677649 1.5-1.5v-9c0-.8223506-.677649-1.5-1.5-1.5zm0 1h13c.285648 0 .5.2143517.5.5v9c0 .285648-.214352.5-.5.5h-13c-.2856483 0-.5-.214352-.5-.5v-9c0-.2856483.2143517-.5.5-.5z"/><path id="path15" d="m6.5 15a.5.5 0 0 0 -.5.5.5.5 0 0 0 .5.5h1a.5.5 0 0 0 .5-.5.5.5 0 0 0 -.5-.5z"/><path id="path16" d="m6.5 10a.5.5 0 0 0 -.5.5v3a.5.5 0 0 0 .5.5.5.5 0 0 0 .5-.5v-3a.5.5 0 0 0 -.5-.5z"/><path id="path17" d="m6.5 8a.5.5 0 0 0 -.5.5.5.5 0 0 0 .5.5h1a.5.5 0 0 0 .5-.5.5.5 0 0 0 -.5-.5z"/><path id="path18" d="m9.5 11a.5.5 0 0 0 -.5.5v4a.5.5 0 0 0 .5.5.5.5 0 0 0 .5-.5v-4a.5.5 0 0 0 -.5-.5z"/><path id="path19" d="m9.5 8a.5.5 0 0 0 -.5.5v1a.5.5 0 0 0 .5.5.5.5 0 0 0 .5-.5v-1a.5.5 0 0 0 -.5-.5z"/><path id="path20" d="m12 14a.5.5 0 0 0 -.5.5v1a.5.5 0 0 0 .5.5.5.5 0 0 0 .5-.5v-1a.5.5 0 0 0 -.5-.5z"/><path id="path21" d="m12 8a.5.5 0 0 0 -.5.5v4a.5.5 0 0 0 .5.5.5.5 0 0 0 .5-.5v-4a.5.5 0 0 0 -.5-.5z"/><path id="path22" d="m14.5 11a.5.5 0 0 0 -.5.5v4a.5.5 0 0 0 .5.5.5.5 0 0 0 .5-.5v-4a.5.5 0 0 0 -.5-.5z"/><path id="path23" d="m14.5 8a.5.5 0 0 0 -.5.5v1a.5.5 0 0 0 .5.5.5.5 0 0 0 .5-.5v-1a.5.5 0 0 0 -.5-.5z"/><path id="path24" d="m16.5 15a.5.5 0 0 0 -.5.5.5.5 0 0 0 .5.5h1a.5.5 0 0 0 .5-.5.5.5 0 0 0 -.5-.5z"/><path id="path25" d="m17.5 10a.5.5 0 0 0 -.5.5v3a.5.5 0 0 0 .5.5.5.5 0 0 0 .5-.5v-3a.5.5 0 0 0 -.5-.5z"/><path id="path26" d="m16.5 8a.5.5 0 0 0 -.5.5.5.5 0 0 0 .5.5h1a.5.5 0 0 0 .5-.5.5.5 0 0 0 -.5-.5z"/></g></svg>