<svg id="SVGRoot" height="24" viewBox="0 0 24 24" width="24" xmlns="http://www.w3.org/2000/svg" xmlns:svg="http://www.w3.org/2000/svg"><g id="g9" stroke-linecap="round" stroke-linejoin="round"><path id="path6" d="m8.5 3c-1.3926937 0-2.580387 1.0314598-2.7773438 2.4101562l-.65625 4.5898438h-.5664062c-.8223498 0-1.5.67765-1.5 1.5 0 .665373.443867 1.236074 1.0488281 1.429688l.7070313 5.648437c.1725057 1.380046 1.3533551 2.421875 2.7441406 2.421875h9.015625c1.381963 0 2.555152-1.034959 2.726563-2.40625l.708984-5.664062c.604961-.193614 1.048828-.764315 1.048828-1.429688 0-.82235-.67765-1.5-1.5-1.5h-.566406l-.648438-4.5410156c-.201063-1.4074442-1.414205-2.4589844-2.835937-2.4589844zm0 1h6.949219c.931524 0 1.713965.6794007 1.845703 1.6015625l.628906 4.3984375h-11.8476561l.6367187-4.4492188c.1276306-.893414.8846249-1.5507812 1.7871094-1.5507812zm-4 7h15c.285648 0 .5.214352.5.5s-.214352.5-.5.5h-15c-.285648 0-.5-.214352-.5-.5s.214352-.5.5-.5zm.5664062 2h13.8671878l-.683594 5.46875c-.109838.878702-.848835 1.53125-1.734375 1.53125h-9.015625c-.8943636 0-1.641021-.659418-1.7519531-1.546875z"/><path id="path7" d="m8.5 15a.5.5 0 0 0 -.5.5v2a.5.5 0 0 0 .5.5.5.5 0 0 0 .5-.5v-2a.5.5 0 0 0 -.5-.5z"/><path id="path8" d="m12 14a.5.5 0 0 0 -.5.5v4a.5.5 0 0 0 .5.5.5.5 0 0 0 .5-.5v-4a.5.5 0 0 0 -.5-.5z"/><path id="path9" d="m15.5 15a.5.5 0 0 0 -.5.5v2a.5.5 0 0 0 .5.5.5.5 0 0 0 .5-.5v-2a.5.5 0 0 0 -.5-.5z"/></g></svg>