<svg width="18" height="19" viewBox="0 0 18 19" fill="none" xmlns="http://www.w3.org/2000/svg">
<g clip-path="url(#clip0_68_1278)">
<path d="M5 1.51898C3.90136 1.51898 3 2.24921 3 3.13927V7.59506C3.00001 7.70249 3.0527 7.80551 3.14646 7.88148C3.24023 7.95744 3.3674 8.00012 3.5 8.00013H6V17.3168C6.00009 17.3857 6.02189 17.4535 6.06334 17.5137C6.10479 17.5739 6.16453 17.6246 6.23689 17.6609C6.30925 17.6971 6.39184 17.7179 6.47684 17.7211C6.56185 17.7243 6.64646 17.7098 6.72266 17.6791L8.5 16.9592L10.2773 17.6791C10.3465 17.707 10.4227 17.7215 10.5 17.7215C10.5773 17.7215 10.6535 17.707 10.7227 17.6791L12.5 16.9592L14.2773 17.6791C14.3465 17.707 14.4227 17.7215 14.5 17.7215C14.5773 17.7215 14.6535 17.707 14.7227 17.6791L16.5 16.9592L18.2773 17.6791C18.3535 17.7098 18.4382 17.7243 18.5232 17.7211C18.6082 17.7179 18.6908 17.6971 18.7631 17.6609C18.8355 17.6246 18.8952 17.5739 18.9367 17.5137C18.9781 17.4535 18.9999 17.3857 19 17.3168V3.54434C19 2.43057 17.8748 1.51898 16.5 1.51898H5ZM5 2.32913C5.55821 2.32913 6 2.68704 6 3.13927V7.18999H4V3.13927C4 2.68704 4.44179 2.32913 5 2.32913ZM6.72852 2.32913H16.5C17.3343 2.32913 18 2.8684 18 3.54434V16.6617L16.7227 16.1443C16.6535 16.1164 16.5773 16.1019 16.5 16.1019C16.4227 16.1019 16.3465 16.1164 16.2773 16.1443L14.5 16.8642L12.7227 16.1443C12.6535 16.1164 12.5773 16.1019 12.5 16.1019C12.4227 16.1019 12.3465 16.1164 12.2773 16.1443L10.5 16.8642L8.72266 16.1443C8.65348 16.1164 8.57726 16.1019 8.5 16.1019C8.42274 16.1019 8.34652 16.1164 8.27734 16.1443L7 16.6617V7.59506V6.37985V5.16463V3.13927C7 2.84482 6.90031 2.56794 6.72852 2.32913Z" fill="black"/>
<path d="M8.5 12.861C8.36739 12.861 8.24021 12.9037 8.14645 12.9796C8.05268 13.0556 8 13.1586 8 13.2661C8 13.3735 8.05268 13.4765 8.14645 13.5525C8.24021 13.6285 8.36739 13.6711 8.5 13.6711H16.5C16.6326 13.6711 16.7598 13.6285 16.8536 13.5525C16.9473 13.4765 17 13.3735 17 13.2661C17 13.1586 16.9473 13.0556 16.8536 12.9796C16.7598 12.9037 16.6326 12.861 16.5 12.861H8.5Z" fill="black"/>
<path d="M8.5 10.4306C8.36739 10.4306 8.24021 10.4732 8.14645 10.5492C8.05268 10.6252 8 10.7282 8 10.8356C8 10.9431 8.05268 11.0461 8.14645 11.1221C8.24021 11.198 8.36739 11.2407 8.5 11.2407H16.5C16.6326 11.2407 16.7598 11.198 16.8536 11.1221C16.9473 11.0461 17 10.9431 17 10.8356C17 10.7282 16.9473 10.6252 16.8536 10.5492C16.7598 10.4732 16.6326 10.4306 16.5 10.4306H8.5Z" fill="black"/>
<path d="M12.5 8.00012C12.3674 8.00012 12.2402 8.0428 12.1464 8.11876C12.0527 8.19473 12 8.29776 12 8.40519C12 8.51263 12.0527 8.61566 12.1464 8.69162C12.2402 8.76759 12.3674 8.81027 12.5 8.81027H16.5C16.6326 8.81027 16.7598 8.76759 16.8536 8.69162C16.9473 8.61566 17 8.51263 17 8.40519C17 8.29776 16.9473 8.19473 16.8536 8.11876C16.7598 8.0428 16.6326 8.00012 16.5 8.00012H12.5Z" fill="black"/>
<path d="M8.5 8.00012C8.36739 8.00012 8.24021 8.0428 8.14645 8.11876C8.05268 8.19473 8 8.29776 8 8.40519C8 8.51263 8.05268 8.61566 8.14645 8.69162C8.24021 8.76759 8.36739 8.81027 8.5 8.81027H10.5C10.6326 8.81027 10.7598 8.76759 10.8536 8.69162C10.9473 8.61566 11 8.51263 11 8.40519C11 8.29776 10.9473 8.19473 10.8536 8.11876C10.7598 8.0428 10.6326 8.00012 10.5 8.00012H8.5Z" fill="black"/>
<path d="M8.5 3.9494C8.3674 3.94941 8.24023 3.99209 8.14646 4.06806C8.0527 4.14402 8.00001 4.24705 8 4.35447V5.97476C8.00001 6.08219 8.0527 6.18522 8.14646 6.26118C8.24023 6.33714 8.3674 6.37982 8.5 6.37983H16.5C16.6326 6.37982 16.7598 6.33714 16.8535 6.26118C16.9473 6.18522 17 6.08219 17 5.97476V4.35447C17 4.24705 16.9473 4.14402 16.8535 4.06806C16.7598 3.99209 16.6326 3.94941 16.5 3.9494H8.5ZM9 4.75955H16V5.56969H9V4.75955Z" fill="black"/>
</g>
<defs>
<clipPath id="clip0_68_1278">
<rect width="18" height="18.2278" fill="white"/>
</clipPath>
</defs>
</svg>
