<svg id="SVGRoot" height="24" viewBox="0 0 24 24" width="24" xmlns="http://www.w3.org/2000/svg" xmlns:svg="http://www.w3.org/2000/svg"><g id="g8" stroke-linecap="round" stroke-linejoin="round"><path id="path1" d="m6 2c-1.098645 0-2 .901355-2 2v5.5a.50005.50005 0 0 0 .5.5h2.5v11.5a.50005.50005 0 0 0 .7226562.447266l1.7773438-.888672 1.777344.888672a.50005.50005 0 0 0 .445312 0l1.777344-.888672 1.777344.888672a.50005.50005 0 0 0 .445312 0l1.777344-.888672 1.777344.888672a.50005.50005 0 0 0 .722656-.447266v-17c0-1.3747854-1.125214-2.5-2.5-2.5zm0 1c.5582059 0 1 .4417941 1 1v5h-2v-5c0-.5582059.4417941-1 1-1zm1.7285156 0h9.7714844c.834347 0 1.5.665653 1.5 1.5v16.191406l-1.277344-.638672a.50005.50005 0 0 0 -.445312 0l-1.777344.888672-1.777344-.888672a.50005.50005 0 0 0 -.445312 0l-1.777344.888672-1.7773438-.888672a.50005.50005 0 0 0 -.4453124 0l-1.2773438.638672v-11.191406-1.5-1.5-2.5c0-.3634488-.0996881-.7052239-.2714844-1z"/><path id="path2" d="m9.5 16a.5.5 0 0 0 -.5.5.5.5 0 0 0 .5.5h8a.5.5 0 0 0 .5-.5.5.5 0 0 0 -.5-.5z"/><path id="path3" d="m9.5 13a.5.5 0 0 0 -.5.5.5.5 0 0 0 .5.5h8a.5.5 0 0 0 .5-.5.5.5 0 0 0 -.5-.5z"/><path id="path6" d="m13.5 10a.5.5 0 0 0 -.5.5.5.5 0 0 0 .5.5h4a.5.5 0 0 0 .5-.5.5.5 0 0 0 -.5-.5z"/><path id="path7" d="m9.5 10a.5.5 0 0 0 -.5.5.5.5 0 0 0 .5.5h2a.5.5 0 0 0 .5-.5.5.5 0 0 0 -.5-.5z"/><path id="path8" d="m9.5 5a.50005.50005 0 0 0 -.5.5v2a.50005.50005 0 0 0 .5.5h8a.50005.50005 0 0 0 .5-.5v-2a.50005.50005 0 0 0 -.5-.5zm.5 1h7v1h-7z"/></g></svg>