<svg id="SVGRoot" height="24" viewBox="0 0 24 24" width="24" xmlns="http://www.w3.org/2000/svg" xmlns:svg="http://www.w3.org/2000/svg"><g id="g18" stroke-linecap="round" stroke-linejoin="round"><path id="path13" d="m6.5 2c-1.3747868 0-2.5 1.1252132-2.5 2.5v15c0 1.374787 1.1252132 2.5 2.5 2.5h10c.822503 0 1.5-.677497 1.5-1.5v-13.5h1.5c.37101-.0003726.612428-.3904367.447266-.7226562l-.388672-.7773438.388672-.7773438c.165162-.3322195-.076256-.7222836-.447266-.7226562h-1.5v-.5c0-.8225032-.677497-1.5-1.5-1.5zm0 1h.5v18h-.5c-.8343478 0-1.5-.665652-1.5-1.5v-15c0-.8343478.6656522-1.5 1.5-1.5zm1.5 0h8.5c.282064 0 .5.2179359.5.5v17c0 .282064-.217936.5-.5.5h-8.5zm10 2h.691406l-.138672.2773438c-.06974.1402455-.06974.3050669 0 .4453124l.138672.2773438h-.691406z"/><path id="path14" d="m9.5 15a.50005.50005 0 0 0 -.5.5v3a.50005.50005 0 0 0 .5.5h6a.50005.50005 0 0 0 .5-.5v-3a.50005.50005 0 0 0 -.5-.5zm.5 1h5v2h-5z"/><path id="path15" d="m9.5 9a.5.5 0 0 0 -.5.5.5.5 0 0 0 .5.5h6a.5.5 0 0 0 .5-.5.5.5 0 0 0 -.5-.5z"/><path id="path16" d="m9.5 7a.5.5 0 0 0 -.5.5.5.5 0 0 0 .5.5h6a.5.5 0 0 0 .5-.5.5.5 0 0 0 -.5-.5z"/><path id="path17" d="m12.5 5a.5.5 0 0 0 -.5.5.5.5 0 0 0 .5.5h3a.5.5 0 0 0 .5-.5.5.5 0 0 0 -.5-.5z"/><path id="path18" d="m9.5 5a.5.5 0 0 0 -.5.5.5.5 0 0 0 .5.5h1a.5.5 0 0 0 .5-.5.5.5 0 0 0 -.5-.5z"/></g></svg>