<svg id="SVGRoot" height="24" viewBox="0 0 24 24" width="24" xmlns="http://www.w3.org/2000/svg" xmlns:svg="http://www.w3.org/2000/svg"><g id="g6" stroke-linecap="round" stroke-linejoin="round"><path id="path1" d="m5.5 3c-1.3763486 0-2.5 1.1236514-2.5 2.5v13c0 1.376349 1.1236514 2.5 2.5 2.5h13c1.376349 0 2.5-1.123651 2.5-2.5v-13c0-1.3763486-1.123651-2.5-2.5-2.5zm0 1h3.5v8.5c-.0009294.389474.42407.630453.7578125.429688l2.2421875-1.345704 2.242188 1.345704c.333742.200764.758741-.040215.757812-.429688v-8.5h3.5c.839647 0 1.5.660353 1.5 1.5v13c0 .839647-.660353 1.5-1.5 1.5h-13c-.839647 0-1.5-.660353-1.5-1.5v-13c0-.839647.660353-1.5 1.5-1.5zm4.5 0h4v7.615234l-1.742188-1.044922c-.158624-.09545-.357-.09545-.515624 0l-1.742188 1.044922z"/><path id="path4" d="m5.5 17.5a.5.5 0 0 0 -.5.5.5.5 0 0 0 .5.5h6a.5.5 0 0 0 .5-.5.5.5 0 0 0 -.5-.5z"/><path id="path5" d="m5.5 15.5a.5.5 0 0 0 -.5.5.5.5 0 0 0 .5.5h3a.5.5 0 0 0 .5-.5.5.5 0 0 0 -.5-.5z"/><path id="path6" d="m13.5 15a.50005.50005 0 0 0 -.5.5v3a.50005.50005 0 0 0 .5.5h5a.50005.50005 0 0 0 .5-.5v-3a.50005.50005 0 0 0 -.5-.5zm.5 1h4v2h-4z"/></g></svg>