<svg id="SVGRoot" height="24" viewBox="0 0 24 24" width="24" xmlns="http://www.w3.org/2000/svg" xmlns:svg="http://www.w3.org/2000/svg"><g id="g11" stroke-linecap="round" stroke-linejoin="round"><path id="path1" d="m10.5 3c-1.7569056 0-3.2143933 1.308778-3.4589844 3h-.5410156c-1.9270705 0-3.5 1.5729295-3.5 3.5v4c0 .62819.446837 1.069228 1 1.291016v3.708984c0 1.374787 1.1252132 2.5 2.5 2.5h7c1.374787 0 2.5-1.125213 2.5-2.5v-.5h1.5c1.374786 0 2.5-1.125214 2.5-2.5v-3.708984c.553162-.221788 1-.662827 1-1.291016v-4c0-1.9270686-1.572932-3.5-3.5-3.5zm0 1h7c1.386631 0 2.5 1.11337 2.5 2.5v4c0 .282064-.217936.5-.5.5a.50005.50005 0 0 0 -.5.5v4c0 .834347-.665653 1.5-1.5 1.5h-1.5v-2.208984c.553163-.221788 1-.662826 1-1.291016v-4c0-1.9270705-1.57293-3.5-3.5-3.5h-5.4492188c.2299087-1.1448588 1.2339301-2 2.4492188-2zm-4 3h7c1.386632 0 2.5 1.1133686 2.5 2.5v4c0 .282064-.217936.5-.5.5a.50005.50005 0 0 0 -.5.5v4c0 .834348-.665652 1.5-1.5 1.5h-7c-.8343478 0-1.5-.665652-1.5-1.5v-4a.50005.50005 0 0 0 -.5-.5c-.2820641 0-.5-.217936-.5-.5v-4c0-1.3866314 1.1133686-2.5 2.5-2.5z"/><path id="path2" d="m11.146484 11.146484-3.9999996 4a.5.5 0 0 0 0 .707032.5.5 0 0 0 .7070312 0l4.0000004-4a.5.5 0 0 0 0-.707032.5.5 0 0 0 -.707032 0z"/><path id="path3" d="m11.646484 13.646484-1.9999996 2a.5.5 0 0 0 0 .707032.5.5 0 0 0 .7070316 0l2-2a.5.5 0 0 0 0-.707032.5.5 0 0 0 -.707032 0z"/></g></svg>