<svg id="SVGRoot" height="24" viewBox="0 0 24 24" width="24" xmlns="http://www.w3.org/2000/svg" xmlns:svg="http://www.w3.org/2000/svg"><g id="g20" stroke-linecap="round" stroke-linejoin="round"><path id="path1" d="m6.5 2c-1.37635 0-2.5 1.12365-2.5 2.5v15c0 1.37635 1.12365 2.5 2.5 2.5h11c1.37635 0 2.5-1.12365 2.5-2.5v-15c0-1.37635-1.12365-2.5-2.5-2.5zm0 1h11c.839648 0 1.5.6603522 1.5 1.5v15c0 .839648-.660352 1.5-1.5 1.5h-11c-.8396478 0-1.5-.660352-1.5-1.5v-15c0-.8396478.6603522-1.5 1.5-1.5z"/><path id="path11" d="m6.5 18a.5.5 0 0 0 -.5.5.5.5 0 0 0 .5.5h2a.5.5 0 0 0 .5-.5.5.5 0 0 0 -.5-.5z"/><path id="path12" d="m11 18a.5.5 0 0 0 -.5.5.5.5 0 0 0 .5.5h2a.5.5 0 0 0 .5-.5.5.5 0 0 0 -.5-.5z"/><path id="path13" d="m15.5 18a.5.5 0 0 0 -.5.5.5.5 0 0 0 .5.5h2a.5.5 0 0 0 .5-.5.5.5 0 0 0 -.5-.5z"/><path id="path14" d="m6.5 15a.5.5 0 0 0 -.5.5.5.5 0 0 0 .5.5h2a.5.5 0 0 0 .5-.5.5.5 0 0 0 -.5-.5z"/><path id="path15" d="m11 15a.5.5 0 0 0 -.5.5.5.5 0 0 0 .5.5h2a.5.5 0 0 0 .5-.5.5.5 0 0 0 -.5-.5z"/><path id="path16" d="m15.5 15a.5.5 0 0 0 -.5.5.5.5 0 0 0 .5.5h2a.5.5 0 0 0 .5-.5.5.5 0 0 0 -.5-.5z"/><path id="path17" d="m6.5 12a.5.5 0 0 0 -.5.5.5.5 0 0 0 .5.5h2a.5.5 0 0 0 .5-.5.5.5 0 0 0 -.5-.5z"/><path id="path18" d="m11 12a.5.5 0 0 0 -.5.5.5.5 0 0 0 .5.5h2a.5.5 0 0 0 .5-.5.5.5 0 0 0 -.5-.5z"/><path id="path19" d="m15.5 12a.5.5 0 0 0 -.5.5.5.5 0 0 0 .5.5h2a.5.5 0 0 0 .5-.5.5.5 0 0 0 -.5-.5z"/><path id="path20" d="m7.5 4c-.8223506 0-1.5.6776494-1.5 1.5v3c0 .8223506.6776494 1.5 1.5 1.5h9c.822351 0 1.5-.6776494 1.5-1.5v-3c0-.8223506-.677649-1.5-1.5-1.5zm0 1h9c.285648 0 .5.2143517.5.5v3c0 .2856483-.214352.5-.5.5h-9c-.2856483 0-.5-.2143517-.5-.5v-3c0-.2856483.2143517-.5.5-.5z"/></g></svg>