<svg id="SVGRoot" height="24" viewBox="0 0 24 24" width="24" xmlns="http://www.w3.org/2000/svg" xmlns:svg="http://www.w3.org/2000/svg"><g id="g14" stroke-linecap="round" stroke-linejoin="round"><path id="path1" d="m10.5 3c-.8223498 0-1.5.6776502-1.5 1.5v2c0 .8223498.6776502 1.5 1.5 1.5h1.5v2h-6.5c-.8225032 0-1.5.677497-1.5 1.5v4.5h-.5c-.2761309.000028-.4999724.223869-.5.5v3c0 .822503.6774968 1.5 1.5 1.5h15c.822503 0 1.5-.677497 1.5-1.5v-3c-.000028-.276131-.223869-.499972-.5-.5h-.5v-4.5c0-.822503-.677497-1.5-1.5-1.5h-1.5v-2h1.5c.82235 0 1.5-.6776502 1.5-1.5v-2c0-.8223498-.67765-1.5-1.5-1.5zm0 1h8c.285648 0 .5.214352.5.5v2c0 .285648-.214352.5-.5.5h-8c-.285648 0-.5-.214352-.5-.5v-2c0-.285648.214352-.5.5-.5zm2.5 4h3v2h-3zm-7.5 3h13c.282064 0 .5.217936.5.5v4.5h-14v-4.5c0-.282064.2179359-.5.5-.5zm-1.5 6h4.1914062l.6386719 1.277344c.2212643.442528.6751599.722656 1.1699219.722656h4c.494762 0 .948657-.280128 1.169922-.722656l.638672-1.277344h3.691406.5v2.5c0 .282064-.217936.5-.5.5h-15c-.2820641 0-.5-.217936-.5-.5zm5.3085938 0h5.3828122l-.414062.830078c-.052817.105635-.159241.169922-.277344.169922h-4c-.1181029 0-.2245266-.064287-.2773438-.169922z"/><path id="path2" d="m6.5 14a.5.5 0 0 0 -.5.5.5.5 0 0 0 .5.5h2a.5.5 0 0 0 .5-.5.5.5 0 0 0 -.5-.5z"/><path id="path3" d="m11 14a.5.5 0 0 0 -.5.5.5.5 0 0 0 .5.5h2a.5.5 0 0 0 .5-.5.5.5 0 0 0 -.5-.5z"/><path id="path7" d="m15.5 14a.5.5 0 0 0 -.5.5.5.5 0 0 0 .5.5h2a.5.5 0 0 0 .5-.5.5.5 0 0 0 -.5-.5z"/><path id="path8" d="m6.5 12a.5.5 0 0 0 -.5.5.5.5 0 0 0 .5.5h2a.5.5 0 0 0 .5-.5.5.5 0 0 0 -.5-.5z"/><path id="path9" d="m11 12a.5.5 0 0 0 -.5.5.5.5 0 0 0 .5.5h2a.5.5 0 0 0 .5-.5.5.5 0 0 0 -.5-.5z"/><path id="path10" d="m15.5 12a.5.5 0 0 0 -.5.5.5.5 0 0 0 .5.5h2a.5.5 0 0 0 .5-.5.5.5 0 0 0 -.5-.5z"/><path id="path13" d="m11.5 5a.5.5 0 0 0 -.5.5.5.5 0 0 0 .5.5h2a.5.5 0 0 0 .5-.5.5.5 0 0 0 -.5-.5z"/><path id="path14" d="m15.5 5a.5.5 0 0 0 -.5.5.5.5 0 0 0 .5.5h2a.5.5 0 0 0 .5-.5.5.5 0 0 0 -.5-.5z"/></g></svg>