<svg id="SVGRoot" height="24" viewBox="0 0 24 24" width="24" xmlns="http://www.w3.org/2000/svg" xmlns:svg="http://www.w3.org/2000/svg"><g id="g11" stroke-linecap="round" stroke-linejoin="round"><path id="path7" d="m8.5 3c-1.3763472 0-2.5 1.1236528-2.5 2.5v.5h-.5c-1.3763481 0-2.5 1.1236519-2.5 2.5v7c0 1.376349 1.1236519 2.5 2.5 2.5h.5v2.5a.50005.50005 0 0 0 .8125.390625l3.613281-2.890625h5.074219c1.376349 0 2.5-1.123651 2.5-2.5v-.5h.5c1.376348 0 2.5-1.123652 2.5-2.5v-7c0-1.3763472-1.123652-2.5-2.5-2.5zm0 1h10c.839646 0 1.5.6603538 1.5 1.5v7c0 .839646-.660354 1.5-1.5 1.5h-.5v-5.5c0-1.3763481-1.123651-2.5-2.5-2.5h-8.5v-.5c0-.8396462.6603538-1.5 1.5-1.5zm-3 3h10c.839645 0 1.5.6603547 1.5 1.5v7c0 .839645-.660355 1.5-1.5 1.5h-5.25a.50005.50005 0 0 0 -.3125.109375l-2.9375 2.349609v-1.958984a.50005.50005 0 0 0 -.5-.5h-1c-.8396453 0-1.5-.660355-1.5-1.5v-7c0-.8396453.6603547-1.5 1.5-1.5z"/><path id="path8" d="m6.5 14a.5.5 0 0 0 -.5.5.5.5 0 0 0 .5.5h8a.5.5 0 0 0 .5-.5.5.5 0 0 0 -.5-.5z"/><path id="path9" d="m6.5 11.5a.5.5 0 0 0 -.5.5.5.5 0 0 0 .5.5h8a.5.5 0 0 0 .5-.5.5.5 0 0 0 -.5-.5z"/><path id="path10" d="m6.5 9a.5.5 0 0 0 -.5.5.5.5 0 0 0 .5.5h2a.5.5 0 0 0 .5-.5.5.5 0 0 0 -.5-.5z"/><path id="path11" d="m10.5 9a.5.5 0 0 0 -.5.5.5.5 0 0 0 .5.5h4a.5.5 0 0 0 .5-.5.5.5 0 0 0 -.5-.5z"/></g></svg>