<svg id="SVGRoot" height="24" viewBox="0 0 24 24" width="24" xmlns="http://www.w3.org/2000/svg" xmlns:svg="http://www.w3.org/2000/svg"><g id="g3" stroke-linecap="round" stroke-linejoin="round"><path id="path2" d="m4.5 4c-1.3763481 0-2.5 1.1236519-2.5 2.5v9c0 1.376349 1.1236519 2.5 2.5 2.5h4.5v1h-2.5c-.2761424 0-.5.223858-.5.5s.2238576.5.5.5h11c.276142 0 .5-.223858.5-.5s-.223858-.5-.5-.5h-2.5v-1h4.5c1.376349 0 2.5-1.123651 2.5-2.5v-9c0-1.3763481-1.123651-2.5-2.5-2.5zm0 1h15c.839645 0 1.5.6603547 1.5 1.5v6.5h-18v-6.5c0-.8396453.6603547-1.5 1.5-1.5zm-1.5 9h18v1.5c0 .839645-.660355 1.5-1.5 1.5h-15c-.8396453 0-1.5-.660355-1.5-1.5zm7 4h4v1h-4z"/><path id="path3" d="m10.5 15a.5.5 0 0 0 -.5.5.5.5 0 0 0 .5.5h3a.5.5 0 0 0 .5-.5.5.5 0 0 0 -.5-.5z"/></g></svg>