<svg width="48" height="48" viewBox="0 0 48 48" fill="none" xmlns="http://www.w3.org/2000/svg">
<path d="M9 8C6.2473 8 4 10.2473 4 13V35C4 37.7527 6.2473 40 9 40H39C41.7527 40 44 37.7527 44 35V13C44 10.2473 41.7527 8 39 8H9ZM9 10H39C40.6793 10 42 11.3207 42 13V14H6V13C6 11.3207 7.32071 10 9 10ZM6 16H42V20H6V16ZM6 22H42V35C42 36.6793 40.6793 38 39 38H9C7.32071 38 6 36.6793 6 35V22Z" fill="#808080"/>
<path d="M9 31C8.73478 31 8.48043 31.1054 8.29289 31.2929C8.10536 31.4804 8 31.7348 8 32C8 32.2652 8.10536 32.5196 8.29289 32.7071C8.48043 32.8946 8.73478 33 9 33H21C21.2652 33 21.5196 32.8946 21.7071 32.7071C21.8946 32.5196 22 32.2652 22 32C22 31.7348 21.8946 31.4804 21.7071 31.2929C21.5196 31.1054 21.2652 31 21 31H9Z" fill="#808080"/>
<path d="M9 27C8.73478 27 8.48043 27.1054 8.29289 27.2929C8.10536 27.4804 8 27.7348 8 28C8 28.2652 8.10536 28.5196 8.29289 28.7071C8.48043 28.8946 8.73478 29 9 29H11C11.2652 29 11.5196 28.8946 11.7071 28.7071C11.8946 28.5196 12 28.2652 12 28C12 27.7348 11.8946 27.4804 11.7071 27.2929C11.5196 27.1054 11.2652 27 11 27H9Z" fill="#808080"/>
<path d="M15 27C14.7348 27 14.4804 27.1054 14.2929 27.2929C14.1054 27.4804 14 27.7348 14 28C14 28.2652 14.1054 28.5196 14.2929 28.7071C14.4804 28.8946 14.7348 29 15 29H21C21.2652 29 21.5196 28.8946 21.7071 28.7071C21.8946 28.5196 22 28.2652 22 28C22 27.7348 21.8946 27.4804 21.7071 27.2929C21.5196 27.1054 21.2652 27 21 27H15Z" fill="#808080"/>
<path d="M39 26C39.2652 26 39.5195 26.1054 39.7071 26.2929C39.8946 26.4805 40 26.7348 40 27V33C40 33.2652 39.8946 33.5195 39.7071 33.7071C39.5195 33.8946 39.2652 34 39 34H27C26.7348 34 26.4805 33.8946 26.2929 33.7071C26.1054 33.5195 26 33.2652 26 33V27C26 26.7348 26.1054 26.4805 26.2929 26.2929C26.4805 26.1054 26.7348 26 27 26H39ZM38 28H28V32H38V28Z" fill="#808080"/>
</svg>
