<svg id="SVGRoot" height="24" viewBox="0 0 24 24" width="24" xmlns="http://www.w3.org/2000/svg" xmlns:svg="http://www.w3.org/2000/svg"><g id="g5" stroke-linecap="round" stroke-linejoin="round"><path id="path1" d="m4.5 4c-1.3763481 0-2.5 1.1236519-2.5 2.5v11c0 1.376349 1.1236519 2.5 2.5 2.5h15c1.376349 0 2.5-1.123651 2.5-2.5v-11c0-1.3763481-1.123651-2.5-2.5-2.5zm0 1h15c.839645 0 1.5.6603547 1.5 1.5v.5h-18v-.5c0-.8396453.6603547-1.5 1.5-1.5zm-1.5 3h18v2h-18zm0 3h18v6.5c0 .839645-.660355 1.5-1.5 1.5h-15c-.8396453 0-1.5-.660355-1.5-1.5z"/><path id="path2" d="m4.5 15.5a.5.5 0 0 0 -.5.5.5.5 0 0 0 .5.5h6a.5.5 0 0 0 .5-.5.5.5 0 0 0 -.5-.5z"/><path id="path3" d="m4.5 13.5a.5.5 0 0 0 -.5.5.5.5 0 0 0 .5.5h1a.5.5 0 0 0 .5-.5.5.5 0 0 0 -.5-.5z"/><path id="path4" d="m7.5 13.5a.5.5 0 0 0 -.5.5.5.5 0 0 0 .5.5h3a.5.5 0 0 0 .5-.5.5.5 0 0 0 -.5-.5z"/><path id="path5" d="m-19.5 13a.50005.50005 0 0 0 -.5.5v3a.50005.50005 0 0 0 .5.5h6a.50005.50005 0 0 0 .5-.5v-3a.50005.50005 0 0 0 -.5-.5zm.5 1h5v2h-5z" transform="scale(-1 1)"/></g></svg>