<svg id="SVGRoot" height="24" viewBox="0 0 24 24" width="24" xmlns="http://www.w3.org/2000/svg" xmlns:svg="http://www.w3.org/2000/svg"><g id="g1"><path id="path3" d="m7 3c-.4525595 0-.8870246.1799923-1.2070312.5l-1.9394532 1.9394531c-.5463844.5463845-.8535156 1.2878437-.8535156 2.0605469s.3071312 1.5141624.8535156 2.0605469l10.5859374 10.5859371c.546385.546385 1.287844.853516 2.060547.853516s1.514162-.307131 2.060547-.853516l1.939453-1.939453c.320008-.320006.5-.754471.5-1.207031s-.179992-.887025-.5-1.207031l-1.646484-1.646485c-.439602-.4396-1.091855-.59308-1.681641-.396484l-1.658203.552734c-.232457.07749-.486895.01701-.660156-.15625l-5.0000004-4.9999996c-.1732598-.1732619-.2337399-.4276995-.15625-.6601563l.5527344-1.6582031c.196596-.5897864.043116-1.2420391-.3964844-1.6816406l-1.6464844-1.6464844c-.3200066-.3200077-.7544717-.5-1.2070312-.5zm0 1c.1877278 0 .3672561.074287.5.2070312l1.6464844 1.6464844c.1732598.1732619.2337399.4276995.15625.6601563l-.5527344 1.6582031c-.1965958.5897864-.0431162 1.2420391.3964844 1.6816406l4.9999996 5.0000004c.439602.4396 1.091855.59308 1.681641.396484l1.658203-.552734c.232457-.07749.486895-.01701.660156.15625l1.646485 1.646484c.132744.132744.207031.312272.207031.5s-.07429.367256-.207031.5l-1.939453 1.939453c-.359121.35912-.845645.560547-1.353516.560547s-.994395-.201427-1.353516-.560547l-10.5859371-10.5859374c-.3591197-.3591206-.5605469-.8456441-.5605469-1.3535156s.2014272-.994395.5605469-1.3535156l1.9394531-1.9394532c.1327439-.1327408.3122722-.2070312.5-.2070312z" stroke-linecap="round" stroke-linejoin="round"/></g></svg>