<svg width="24" height="24" viewBox="0 0 24 24" fill="none" xmlns="http://www.w3.org/2000/svg">
<path d="M3.5 5C2.6775 5 2 5.6775 2 6.5V15.5C2 16.3225 2.6775 17 3.5 17H4.05078C4.28422 18.1373 5.2964 19 6.5 19C7.7036 19 8.71578 18.1373 8.94922 17H15.0508V17.002C15.285 18.1383 16.2971 19 17.5 19C18.7029 19 19.715 18.1364 19.9492 17H20.5C21.3225 17 22 16.3225 22 15.5V12.5C22.0002 12.4365 21.9882 12.3735 21.9648 12.3145C21.5471 11.2663 21.1268 10.2192 20.707 9.17188C20.183 7.86192 18.9109 7 17.5 7H14V6.5C14 5.6775 13.3225 5 12.5 5H3.5ZM3.5 6H6V10.5C6.00009 10.8993 6.44507 11.1374 6.77734 10.916L8 10.1016L9.22266 10.916C9.55493 11.1374 9.99991 10.8993 10 10.5V6H12.5C12.7821 6 13 6.21794 13 6.5V12H3V6.5C3 6.21794 3.21794 6 3.5 6ZM7 6H9V9.56641L8.27734 9.08398C8.10939 8.97204 7.89061 8.97204 7.72266 9.08398L7 9.56641V6ZM14 8H17.5C18.505 8 19.4061 8.60986 19.7793 9.54297L20.7617 12H14V8ZM3 13H13V16H8.94922C8.71578 14.8627 7.7036 14 6.5 14C5.2964 14 4.28422 14.8627 4.05078 16H3.5C3.21794 16 3 15.7821 3 15.5V13ZM14 13H21V15.5C21 15.7821 20.7821 16 20.5 16H19.9492V15.998C19.715 14.8617 18.7029 14 17.5 14C16.2971 14 15.285 14.8636 15.0508 16H14V13ZM6.5 15C7.33435 15 8 15.6657 8 16.5C8 17.3343 7.33435 18 6.5 18C5.66565 18 5 17.3343 5 16.5C5 15.6657 5.66565 15 6.5 15ZM17.5 15C18.3343 15 19 15.6657 19 16.5C19 17.3343 18.3343 18 17.5 18C16.6657 18 16 17.3343 16 16.5C16 15.6657 16.6657 15 17.5 15Z" fill="black"/>
</svg>
