<svg id="SVGRoot" height="24" viewBox="0 0 24 24" width="24" xmlns="http://www.w3.org/2000/svg" xmlns:svg="http://www.w3.org/2000/svg"><g id="g5"><path id="path5" d="m3.5 5c-.8225032 0-1.5.6774968-1.5 1.5v9c0 .822502.6774976 1.5 1.5 1.5h.5507812c.2334408 1.1373 1.2456186 2 2.4492188 2s2.215778-.8627 2.4492188-2h6.1015622v.002c.234169 1.136325 1.246281 1.998 2.449219 1.998s2.21505-.863628 2.449219-2h.550781c.822502 0 1.5-.677498 1.5-1.5v-3c.000173-.06352-.01176-.126492-.03516-.185547-.417744-1.048117-.838082-2.095238-1.257809-3.142578-.523983-1.3099596-1.796161-2.171875-3.207031-2.171875h-3.5v-.5c0-.8225032-.677497-1.5-1.5-1.5zm0 1h2.5v4.5c.0000852.399294.4450668.637437.7773438.416016l1.2226562-.814454 1.2226562.814454c.332277.221421.7772586-.016722.7773438-.416016v-4.5h2.5c.282064 0 .5.2179359.5.5v5.5h-10v-5.5c0-.2820641.2179359-.5.5-.5zm3.5 0h2v3.5664062l-.7226562-.4824218c-.1679509-.1119474-.3867367-.1119474-.5546876 0l-.7226562.4824218zm7 2h3.5c1.004988 0 1.906053.609861 2.279297 1.5429688l.982422 2.4570312h-6.761719zm-11 5h10v3h-4.0507812c-.2334408-1.1373-1.2456186-2-2.4492188-2s-2.215778.8627-2.4492188 2h-.5507812c-.2820638 0-.5-.217936-.5-.5zm11 0h7v2.5c0 .282064-.217936.5-.5.5h-.550781v-.002c-.234169-1.136325-1.246281-1.998-2.449219-1.998s-2.21505.863628-2.449219 2h-1.050781zm-7.5 2c.8343478 0 1.5.665652 1.5 1.5s-.6656522 1.5-1.5 1.5-1.5-.665652-1.5-1.5.6656522-1.5 1.5-1.5zm11 0c.834348 0 1.5.665652 1.5 1.5s-.665652 1.5-1.5 1.5-1.5-.665652-1.5-1.5.665652-1.5 1.5-1.5z" stroke-linecap="round" stroke-linejoin="round"/></g></svg>