<svg id="SVGRoot" height="24" viewBox="0 0 24 24" width="24" xmlns="http://www.w3.org/2000/svg" xmlns:svg="http://www.w3.org/2000/svg"><g id="g1"><path id="path1" d="m9.5 3c-1.3747868 0-2.5 1.1252132-2.5 2.5 0 .5610289.1866918 1.0816039.5019531 1.5h-3.0019531c-.8225032 0-1.5.6774968-1.5 1.5v2c.0000276.276131.2238691.499972.5.5h.5v7.5c0 1.374787 1.1252132 2.5 2.5 2.5h11c1.374787 0 2.5-1.125213 2.5-2.5v-7.5h.5c.276131-.000028.499972-.223869.5-.5v-2c0-.8225032-.677497-1.5-1.5-1.5h-3.001953c.315261-.4183961.501953-.9389711.501953-1.5 0-1.3747868-1.125213-2.5-2.5-2.5h-1c-.595606 0-1.132543.2659535-1.5.6835938-.367457-.4176403-.904394-.6835938-1.5-.6835938zm0 1h1c.558206 0 1 .4417941 1 1v2h-2c-.8343478 0-1.5-.6656522-1.5-1.5s.6656522-1.5 1.5-1.5zm4 0h1c.834348 0 1.5.6656522 1.5 1.5s-.665652 1.5-1.5 1.5h-2v-2c0-.5582059.441794-1 1-1zm-9 4h4.5v2h-5v-1.5c0-.2820641.2179359-.5.5-.5zm5.5 0h4v2h-4zm5 0h4.5c.282064 0 .5.2179359.5.5v1.5h-5zm-10 3h5v9h-3.5c-.8343478 0-1.5-.665652-1.5-1.5zm6 0h2v9h-2zm3 0h5v7.5c0 .834348-.665652 1.5-1.5 1.5h-3.5z" stroke-linecap="round" stroke-linejoin="round"/></g></svg>