<svg id="SVGRoot" height="24" viewBox="0 0 24 24" width="24" xmlns="http://www.w3.org/2000/svg" xmlns:svg="http://www.w3.org/2000/svg"><g id="g4" stroke-linecap="round" stroke-linejoin="round"><path id="path2" d="m8.5 2c-1.3763453 0-2.5 1.1236547-2.5 2.5v6.166016l-1.0996094-1.4667972c-.1293432-.1721784-.3543906-.2422106-.5585937-.1738282-.2042197.0681322-.3419095.2593243-.3417969.4746094v10c0 1.374787 1.1252132 2.5 2.5 2.5h11c1.374787 0 2.5-1.125213 2.5-2.5v-10c.001112-.4813937-.611943-.6861882-.900391-.3007812l-1.099609 1.4667972v-4.166016c0-1.3763461-1.123653-2.5-2.5-2.5h-2c-.185171 0-.366299.0203379-.541016.0585938-.210086-1.1667515-1.233564-2.0585938-2.458984-2.0585938zm0 1h2c.839643 0 1.5.6603563 1.5 1.5v4.5175781c-.130128-.0047-.256955.041549-.353516.1289063l-1.646484 1.6464846-1.6464844-1.6464846c-.1952649-.1951842-.5117663-.1951842-.7070312 0l-.6464844.6464844v-5.2929688c0-.8396437.6603563-1.5 1.5-1.5zm5 2h2c.839643 0 1.5.6603572 1.5 1.5v3.2929688l-.646484-.6464844c-.195265-.1951847-.511767-.1951847-.707032 0l-1.646484 1.6464846-1-1.0000002v-4.6601563c.160952-.0589459.31572-.1328125.5-.1328125zm-5.5 5.207031 1.6464844 1.646485c.195265.195184.5117666.195184.7070316 0l1.646484-1.646485.146484.146485.853516.853515.646484.646485c.195265.195185.511767.195185.707032 0l1.646484-1.646485 1.646484 1.646485c.21496.215583.571053.190675.753907-.05274l.599609-.798823v8.498047c0 .834348-.665652 1.5-1.5 1.5h-11c-.8343478 0-1.5-.665652-1.5-1.5v-8.498047l.5996094.798828c.1828535.243409.5389466.268318.7539062.05274zm.5 6.792969c-.2761309.000028-.4999724.223869-.5.5v2c.0000276.276131.2238691.499972.5.5h7c.276131-.000028.499972-.223869.5-.5v-2c-.000028-.276131-.223869-.499972-.5-.5zm.5 1h6v1h-6z"/><path id="path3" d="m8.5 7a.5.5 0 0 0 -.5.5.5.5 0 0 0 .5.5h2a.5.5 0 0 0 .5-.5.5.5 0 0 0 -.5-.5z"/><path id="path4" d="m8.5 5a.5.5 0 0 0 -.5.5.5.5 0 0 0 .5.5h2a.5.5 0 0 0 .5-.5.5.5 0 0 0 -.5-.5z"/></g></svg>