<svg id="SVGRoot" height="24" viewBox="0 0 24 24" width="24" xmlns="http://www.w3.org/2000/svg" xmlns:svg="http://www.w3.org/2000/svg"><g id="g5" stroke-linecap="round" stroke-linejoin="round"><path id="path1" d="m9.5 3c-.8223498 0-1.5.6776502-1.5 1.5s.6776502 1.5 1.5 1.5h1v1h-5c-1.3763472 0-2.5 1.1236528-2.5 2.5v9c0 1.376348 1.1236528 2.5 2.5 2.5h13c1.376348 0 2.5-1.123652 2.5-2.5v-9c0-1.3763472-1.123652-2.5-2.5-2.5h-5v-1h1c.82235 0 1.5-.6776502 1.5-1.5s-.67765-1.5-1.5-1.5zm0 1h5c.285648 0 .5.214352.5.5s-.214352.5-.5.5h-5c-.285648 0-.5-.214352-.5-.5s.214352-.5.5-.5zm2 2h1v3h-1zm-6 2h5v1h-1c-.2761424 0-.5.2238576-.5.5s.2238576.5.5.5h5c.276142 0 .5-.2238576.5-.5s-.223858-.5-.5-.5h-1v-1h5c.839646 0 1.5.6603538 1.5 1.5v9c0 .839646-.660354 1.5-1.5 1.5h-13c-.8396462 0-1.5-.660354-1.5-1.5v-9c0-.8396462.6603538-1.5 1.5-1.5z"/><path id="path2" d="m5.5 16a.50005.50005 0 0 0 -.5.5v2a.50005.50005 0 0 0 .5.5h6a.50005.50005 0 0 0 .5-.5v-2a.50005.50005 0 0 0 -.5-.5zm.5 1h5v1h-5z"/><path id="path3" d="m5.5 14a.5.5 0 0 0 -.5.5.5.5 0 0 0 .5.5h1a.5.5 0 0 0 .5-.5.5.5 0 0 0 -.5-.5z"/><path id="path4" d="m8.5 14a.5.5 0 0 0 -.5.5.5.5 0 0 0 .5.5h3a.5.5 0 0 0 .5-.5.5.5 0 0 0 -.5-.5z"/><path id="path5" d="m16.5 12c-.960574 0-1.75.789426-1.75 1.75 0 .364677.114865.704818.308594.986328-.628704.338385-1.058594 1.004328-1.058594 1.763672v2c.000028.276131.223869.499972.5.5h4c.276131-.000028.499972-.223869.5-.5v-2c0-.759344-.42989-1.425287-1.058594-1.763672.193729-.28151.308594-.621651.308594-.986328 0-.960574-.789426-1.75-1.75-1.75zm0 1c.420135 0 .75.329865.75.75s-.329865.75-.75.75-.75-.329865-.75-.75.329865-.75.75-.75zm-.5 2.5h1c.558206 0 1 .441794 1 1v1.5h-3v-1.5c0-.558206.441794-1 1-1z"/></g></svg>