<svg width="24" height="24" viewBox="0 0 24 24" fill="none" xmlns="http://www.w3.org/2000/svg">
<path d="M9.5 3C8.67765 3 8 3.67765 8 4.5C8 5.32235 8.67765 6 9.5 6H10.5V7H5.5C4.12365 7 3 8.12365 3 9.5V18.5C3 19.8763 4.12365 21 5.5 21H18.5C19.8763 21 21 19.8763 21 18.5V9.5C21 8.12365 19.8763 7 18.5 7H13.5V6H14.5C15.3223 6 16 5.32235 16 4.5C16 3.67765 15.3223 3 14.5 3H9.5ZM9.5 4H14.5C14.7856 4 15 4.21435 15 4.5C15 4.78565 14.7856 5 14.5 5H9.5C9.21435 5 9 4.78565 9 4.5C9 4.21435 9.21435 4 9.5 4ZM11.5 6H12.5V9H11.5V6ZM5.5 8H10.5V9H9.5C9.22386 9 9 9.22386 9 9.5C9 9.77614 9.22386 10 9.5 10H14.5C14.7761 10 15 9.77614 15 9.5C15 9.22386 14.7761 9 14.5 9H13.5V8H18.5C19.3396 8 20 8.66035 20 9.5V18.5C20 19.3396 19.3396 20 18.5 20H5.5C4.66035 20 4 19.3396 4 18.5V9.5C4 8.66035 4.66035 8 5.5 8Z" fill="black"/>
<path d="M5.5 16C5.3674 16 5.24023 16.0527 5.14646 16.1465C5.0527 16.2402 5.00001 16.3674 5 16.5V18.5C5.00001 18.6326 5.0527 18.7598 5.14646 18.8535C5.24023 18.9473 5.3674 19 5.5 19H11.5C11.6326 19 11.7598 18.9473 11.8535 18.8535C11.9473 18.7598 12 18.6326 12 18.5V16.5C12 16.3674 11.9473 16.2402 11.8535 16.1465C11.7598 16.0527 11.6326 16 11.5 16H5.5ZM6 17H11V18H6V17Z" fill="black"/>
<path d="M5.5 14C5.36739 14 5.24021 14.0527 5.14645 14.1464C5.05268 14.2402 5 14.3674 5 14.5C5 14.6326 5.05268 14.7598 5.14645 14.8536C5.24021 14.9473 5.36739 15 5.5 15H6.5C6.63261 15 6.75979 14.9473 6.85355 14.8536C6.94732 14.7598 7 14.6326 7 14.5C7 14.3674 6.94732 14.2402 6.85355 14.1464C6.75979 14.0527 6.63261 14 6.5 14H5.5Z" fill="black"/>
<path d="M8.5 14C8.36739 14 8.24021 14.0527 8.14645 14.1464C8.05268 14.2402 8 14.3674 8 14.5C8 14.6326 8.05268 14.7598 8.14645 14.8536C8.24021 14.9473 8.36739 15 8.5 15H11.5C11.6326 15 11.7598 14.9473 11.8536 14.8536C11.9473 14.7598 12 14.6326 12 14.5C12 14.3674 11.9473 14.2402 11.8536 14.1464C11.7598 14.0527 11.6326 14 11.5 14H8.5Z" fill="black"/>
<path d="M16.5 12C15.5394 12 14.75 12.7894 14.75 13.75C14.75 14.1147 14.8649 14.4548 15.0586 14.7363C14.4299 15.0747 14 15.7407 14 16.5V18.5C14 18.7761 14.2239 19 14.5 19H18.5C18.7761 19 19 18.7761 19 18.5V16.5C19 15.7407 18.5701 15.0747 17.9414 14.7363C18.1351 14.4548 18.25 14.1147 18.25 13.75C18.25 12.7894 17.4606 12 16.5 12ZM16.5 13C16.9201 13 17.25 13.3299 17.25 13.75C17.25 14.1701 16.9201 14.5 16.5 14.5C16.0799 14.5 15.75 14.1701 15.75 13.75C15.75 13.3299 16.0799 13 16.5 13ZM16 15.5H17C17.5582 15.5 18 15.9418 18 16.5V18H15V16.5C15 15.9418 15.4418 15.5 16 15.5Z" fill="black"/>
</svg>
