<svg id="SVGRoot" height="24" viewBox="0 0 24 24" width="24" xmlns="http://www.w3.org/2000/svg" xmlns:svg="http://www.w3.org/2000/svg"><g id="g6" stroke-linecap="round" stroke-linejoin="round"><path id="path2" d="m5.5 21a.5.5 0 0 0 -.5.5.5.5 0 0 0 .5.5h3a.5.5 0 0 0 .5-.5.5.5 0 0 0 -.5-.5z"/><path id="path3" d="m15.5 21a.5.5 0 0 0 -.5.5.5.5 0 0 0 .5.5h3a.5.5 0 0 0 .5-.5.5.5 0 0 0 -.5-.5z"/><path id="path5" d="m12 2c-3.8600671 0-7 3.1399329-7 7 0 2.054277.582718 4.065866 1.6796875 5.802734l4.1308595 6.541016c.257467.407656.707299.65625 1.189453.65625s.931986-.248594 1.189453-.65625l4.130859-6.541016c1.09697-1.736868 1.679688-3.748457 1.679688-5.802734 0-3.8600671-3.139933-7-7-7zm0 1c3.319627 0 6 2.6803725 6 6 0 1.865327-.529319 3.692418-1.525391 5.269531l-4.130859 6.541016c-.074954.118677-.203385.189453-.34375.189453s-.268796-.070776-.34375-.189453l-4.1308594-6.541016c-.9960716-1.577113-1.5253906-3.404204-1.5253906-5.269531 0-3.3196275 2.6803725-6 6-6z"/><path id="path6" d="m12 5c-2.2032145 0-4 1.7967855-4 4 0 2.203214 1.7967855 4 4 4 2.203214 0 4-1.796786 4-4 0-2.2032145-1.796786-4-4-4zm0 1c1.662775 0 3 1.3372251 3 3 0 1.662775-1.337225 3-3 3s-3-1.337225-3-3c0-1.6627749 1.337225-3 3-3z"/></g></svg>