<svg width="24" height="24" viewBox="0 0 24 24" fill="none" xmlns="http://www.w3.org/2000/svg">
<path d="M5.5 21C5.36739 21 5.24021 21.0527 5.14645 21.1464C5.05268 21.2402 5 21.3674 5 21.5C5 21.6326 5.05268 21.7598 5.14645 21.8536C5.24021 21.9473 5.36739 22 5.5 22H8.5C8.63261 22 8.75979 21.9473 8.85355 21.8536C8.94732 21.7598 9 21.6326 9 21.5C9 21.3674 8.94732 21.2402 8.85355 21.1464C8.75979 21.0527 8.63261 21 8.5 21H5.5Z" fill="black"/>
<path d="M15.5 21C15.3674 21 15.2402 21.0527 15.1464 21.1464C15.0527 21.2402 15 21.3674 15 21.5C15 21.6326 15.0527 21.7598 15.1464 21.8536C15.2402 21.9473 15.3674 22 15.5 22H18.5C18.6326 22 18.7598 21.9473 18.8536 21.8536C18.9473 21.7598 19 21.6326 19 21.5C19 21.3674 18.9473 21.2402 18.8536 21.1464C18.7598 21.0527 18.6326 21 18.5 21H15.5Z" fill="black"/>
<path d="M12 2C8.13993 2 5 5.13993 5 9C5 11.0543 5.58272 13.0659 6.67969 14.8027L10.8105 21.3438C11.068 21.7514 11.5178 22 12 22C12.4822 22 12.932 21.7514 13.1895 21.3438L17.3203 14.8027C18.4173 13.0659 19 11.0543 19 9C19 5.13993 15.8601 2 12 2ZM12 3C15.3196 3 18 5.68037 18 9C18 10.8653 17.4707 12.6924 16.4746 14.2695L12.3438 20.8105C12.2688 20.9292 12.1404 21 12 21C11.8596 21 11.7312 20.9292 11.6562 20.8105L7.52539 14.2695C6.52932 12.6924 6 10.8653 6 9C6 5.68037 8.68037 3 12 3Z" fill="black"/>
<path d="M12 5C9.79679 5 8 6.79679 8 9C8 11.2032 9.79679 13 12 13C14.2032 13 16 11.2032 16 9C16 6.79679 14.2032 5 12 5ZM12 6C13.6628 6 15 7.33722 15 9C15 10.6628 13.6628 12 12 12C10.3372 12 9 10.6628 9 9C9 7.33722 10.3372 6 12 6Z" fill="black"/>
</svg>
