<svg width="42" height="42" viewBox="0 0 42 42" fill="none" xmlns="http://www.w3.org/2000/svg">
<path d="M9.625 36.75C9.39294 36.75 9.17038 36.8422 9.00628 37.0063C8.84219 37.1704 8.75 37.3929 8.75 37.625C8.75 37.8571 8.84219 38.0796 9.00628 38.2437C9.17038 38.4078 9.39294 38.5 9.625 38.5H14.875C15.1071 38.5 15.3296 38.4078 15.4937 38.2437C15.6578 38.0796 15.75 37.8571 15.75 37.625C15.75 37.3929 15.6578 37.1704 15.4937 37.0063C15.3296 36.8422 15.1071 36.75 14.875 36.75H9.625Z" fill="black"/>
<path d="M27.125 36.75C26.8929 36.75 26.6704 36.8422 26.5063 37.0063C26.3422 37.1704 26.25 37.3929 26.25 37.625C26.25 37.8571 26.3422 38.0796 26.5063 38.2437C26.6704 38.4078 26.8929 38.5 27.125 38.5H32.375C32.6071 38.5 32.8296 38.4078 32.9937 38.2437C33.1578 38.0796 33.25 37.8571 33.25 37.625C33.25 37.3929 33.1578 37.1704 32.9937 37.0063C32.8296 36.8422 32.6071 36.75 32.375 36.75H27.125Z" fill="black"/>
<path d="M21 3.5C14.2449 3.5 8.75 8.99488 8.75 15.75C8.75 19.345 9.76976 22.8653 11.6895 25.9048L18.9185 37.3516C19.369 38.065 20.1562 38.5 21 38.5C21.8438 38.5 22.631 38.065 23.0815 37.3516L30.3105 25.9048C32.2302 22.8653 33.25 19.345 33.25 15.75C33.25 8.99488 27.7551 3.5 21 3.5ZM21 5.25C26.8093 5.25 31.5 9.94065 31.5 15.75C31.5 19.0143 30.5737 22.2117 28.8306 24.9717L21.6016 36.4185C21.4704 36.6261 21.2456 36.75 21 36.75C20.7544 36.75 20.5296 36.6261 20.3984 36.4185L13.1694 24.9717C11.4263 22.2117 10.5 19.0143 10.5 15.75C10.5 9.94065 15.1907 5.25 21 5.25Z" fill="black"/>
<path d="M21 8.75C17.1444 8.75 14 11.8944 14 15.75C14 19.6056 17.1444 22.75 21 22.75C24.8556 22.75 28 19.6056 28 15.75C28 11.8944 24.8556 8.75 21 8.75ZM21 10.5C23.9099 10.5 26.25 12.8401 26.25 15.75C26.25 18.6599 23.9099 21 21 21C18.0901 21 15.75 18.6599 15.75 15.75C15.75 12.8401 18.0901 10.5 21 10.5Z" fill="black"/>
</svg>
