<svg id="SVGRoot" height="24" viewBox="0 0 24 24" width="24" xmlns="http://www.w3.org/2000/svg" xmlns:svg="http://www.w3.org/2000/svg"><g id="g4" stroke-linecap="round" stroke-linejoin="round"><path id="path1" d="m19.5 3c-.673119 0-1.248599.4545473-1.435547 1.0703125l-10.611328 1.9296875h-2.953125c-.8225032 0-1.5.6774968-1.5 1.5v6c0 .647198.4204741 1.201946 1 1.410156v4.589844c0 .822349.6776499 1.5 1.5 1.5s1.5-.677651 1.5-1.5v-4.5h.453125l10.611328 1.929688c.186948.615765.762428 1.070312 1.435547 1.070312.82235 0 1.5-.67765 1.5-1.5v-12c0-.8223498-.67765-1.5-1.5-1.5zm0 1c.285648 0 .5.214352.5.5v12c0 .285648-.214352.5-.5.5s-.5-.214352-.5-.5v-12c0-.285648.214352-.5.5-.5zm-1.5 1.0996094v10.8007816l-10-1.81836v-7.1640622zm-13.5 1.9003906h2.5v7h-2.5c-.2820641 0-.5-.217936-.5-.5v-6c0-.2820641.2179359-.5.5-.5zm.5 8h1v4.5c0 .285646-.2143535.5-.5.5s-.5-.214354-.5-.5z"/><path id="path2" d="m10.5 9a.5.5 0 0 0 -.5.5v2a.5.5 0 0 0 .5.5.5.5 0 0 0 .5-.5v-2a.5.5 0 0 0 -.5-.5z"/><path id="path3" d="m13 8a.5.5 0 0 0 -.5.5v4a.5.5 0 0 0 .5.5.5.5 0 0 0 .5-.5v-4a.5.5 0 0 0 -.5-.5z"/><path id="path4" d="m15.5 7a.5.5 0 0 0 -.5.5v6a.5.5 0 0 0 .5.5.5.5 0 0 0 .5-.5v-6a.5.5 0 0 0 -.5-.5z"/></g></svg>