<svg id="SVGRoot" height="24" viewBox="0 0 24 24" width="24" xmlns="http://www.w3.org/2000/svg" xmlns:svg="http://www.w3.org/2000/svg"><g id="g10" stroke-linecap="round" stroke-linejoin="round"><path id="path6" d="m6.5 2c-.2761309.0000276-.4999724.2238691-.5.5v1.8828125l-1.9472656 3.8945313c-.031209.065307-.0517754.13661-.0527344.2089843v11.0136719c0 1.374787 1.1252132 2.5 2.5 2.5h11c1.374787 0 2.5-1.125213 2.5-2.5v-11c-.000133-.077297-.018183-.1535108-.052734-.2226562l-1.947266-3.8945313v-1.8828125c-.000028-.2761309-.223869-.4999724-.5-.5zm.5 1h10v1h-10zm-.1914062 2h9.8828122l-1.5 3h-9.8828122zm10.6914062.6171875 1.5 3v10.8828125c0 .834348-.665652 1.5-1.5 1.5h-1.5v-12.3828125zm-12.5 3.3828125h10v12h-8.5c-.8343478 0-1.5-.665652-1.5-1.5z"/><path id="path7" d="m6.5 17a.50005.50005 0 0 0 -.5.5v2a.50005.50005 0 0 0 .5.5h6a.50005.50005 0 0 0 .5-.5v-2a.50005.50005 0 0 0 -.5-.5zm.5 1h5v1h-5z"/><path id="path8" d="m6.5 15a.5.5 0 0 0 -.5.5.5.5 0 0 0 .5.5h6a.5.5 0 0 0 .5-.5.5.5 0 0 0 -.5-.5z"/><path id="path9" d="m6.5 13a.5.5 0 0 0 -.5.5.5.5 0 0 0 .5.5h1a.5.5 0 0 0 .5-.5.5.5 0 0 0 -.5-.5z"/><path id="path10" d="m9.5 13a.5.5 0 0 0 -.5.5.5.5 0 0 0 .5.5h3a.5.5 0 0 0 .5-.5.5.5 0 0 0 -.5-.5z"/></g></svg>