<svg id="SVGRoot" height="24" viewBox="0 0 24 24" width="24" xmlns="http://www.w3.org/2000/svg" xmlns:svg="http://www.w3.org/2000/svg"><g id="g5" stroke-linecap="round" stroke-linejoin="round"><path id="path1" d="m9.5 2c-.8223498 0-1.5.6776502-1.5 1.5v1.734375l-3.2519531 1.8769531c-.712298.4113259-.9603838 1.3378066-.5488281 2.0507813l3.8007812 6.5859376v4.751953c0 .82235.6776502 1.5 1.5 1.5h9c.82235 0 1.5-.67765 1.5-1.5v-17c0-.8223498-.67765-1.5-1.5-1.5zm0 1h9c.285648 0 .5.214352.5.5v17c0 .285648-.214352.5-.5.5h-9c-.285648 0-.5-.214352-.5-.5v-17c0-.285648.214352-.5.5-.5zm-1.5 3.390625v7.355469l-2.9355469-5.0839846c-.1423391-.2465869-.0634818-.5409167.1835938-.6835938z"/><path id="path2" d="m14 16a.5.5 0 0 0 -.5.5v2a.5.5 0 0 0 .5.5.5.5 0 0 0 .5-.5v-2a.5.5 0 0 0 -.5-.5z"/><path id="path4" d="m14 9c-1.65093 0-3 1.34907-3 3s1.34907 3 3 3 3-1.34907 3-3-1.34907-3-3-3zm0 1c1.110491 0 2 .889509 2 2s-.889509 2-2 2-2-.889509-2-2 .889509-2 2-2z"/><path id="path5" d="m14 5a.5.5 0 0 0 -.5.5v2a.5.5 0 0 0 .5.5.5.5 0 0 0 .5-.5v-2a.5.5 0 0 0 -.5-.5z"/></g></svg>