<svg width="24" height="24" viewBox="0 0 24 24" fill="none" xmlns="http://www.w3.org/2000/svg">
<path d="M22 9.49999C22 8.67764 21.3223 7.99999 20.5 7.99999H18.7656L16.8887 4.74804C16.4773 4.03574 15.5509 3.78765 14.8379 4.19921L8.25195 7.99999L3.5 7.99999C2.67765 7.99999 2 8.67764 2 9.49999V18.5C2 19.3223 2.67765 20 3.5 20H20.5C21.3223 20 22 19.3223 22 18.5V9.49999ZM21 9.49999V18.5C21 18.7856 20.7856 19 20.5 19H3.5C3.21435 19 3 18.7856 3 18.5V9.49999C3 9.21434 3.21435 8.99999 3.5 8.99999H20.5C20.7856 8.99999 21 9.21434 21 9.49999ZM17.6094 7.99999H10.2539L15.3379 5.06444C15.5845 4.92211 15.8788 5.00096 16.0215 5.24804L17.6094 7.99999Z" fill="black"/>
<path d="M8 14C8 13.8674 7.94732 13.7402 7.85355 13.6464C7.75979 13.5527 7.63261 13.5 7.5 13.5H5.5C5.36739 13.5 5.24021 13.5527 5.14645 13.6464C5.05268 13.7402 5 13.8674 5 14C5 14.1326 5.05268 14.2598 5.14645 14.3536C5.24021 14.4473 5.36739 14.5 5.5 14.5H7.5C7.63261 14.5 7.75979 14.4473 7.85355 14.3536C7.94732 14.2598 8 14.1326 8 14Z" fill="black"/>
<path d="M15 14C15 12.3491 13.6509 11 12 11C10.3491 11 9 12.3491 9 14C9 15.6509 10.3491 17 12 17C13.6509 17 15 15.6509 15 14ZM14 14C14 15.1105 13.1105 16 12 16C10.8895 16 10 15.1105 10 14C10 12.8895 10.8895 12 12 12C13.1105 12 14 12.8895 14 14Z" fill="black"/>
<path d="M19 14C19 13.8674 18.9473 13.7402 18.8536 13.6464C18.7598 13.5527 18.6326 13.5 18.5 13.5H16.5C16.3674 13.5 16.2402 13.5527 16.1464 13.6464C16.0527 13.7402 16 13.8674 16 14C16 14.1326 16.0527 14.2598 16.1464 14.3536C16.2402 14.4473 16.3674 14.5 16.5 14.5H18.5C18.6326 14.5 18.7598 14.4473 18.8536 14.3536C18.9473 14.2598 19 14.1326 19 14Z" fill="black"/>
</svg>
