<svg id="SVGRoot" height="24" viewBox="0 0 24 24" width="24" xmlns="http://www.w3.org/2000/svg" xmlns:svg="http://www.w3.org/2000/svg"><g id="g5" stroke-linecap="round" stroke-linejoin="round"><path id="path2" d="m12 3c-1.098645 0-2 .901355-2 2 0 .0834737.005527.1652067.015625.2460938l-4.703125 3.7636718c-1.2894848.0964655-2.3125 1.1769204-2.3125 2.4902344v7c0 1.376349 1.1236514 2.5 2.5 2.5h13c1.376349 0 2.5-1.123651 2.5-2.5v-7c0-1.314624-1.025105-2.3956433-2.316406-2.4902344l-4.707032-3.703125c.015646-.1001447.023438-.2023369.023438-.3066406 0-1.098645-.901355-2-2-2zm0 1c.558206 0 1 .4417941 1 1s-.441794 1-1 1-1-.4417941-1-1 .441794-1 1-1zm-1.587891 2.2109375c.366576.4781944.943428.7890625 1.587891.7890625.627781 0 1.19101-.2947041 1.558594-.7519531l3.498047 2.7519531h-10.1308598zm-4.912109 3.7890625h.0234375 12.9765625c.839647 0 1.5.660353 1.5 1.5v7c0 .839647-.660353 1.5-1.5 1.5h-13c-.839647 0-1.5-.660353-1.5-1.5v-7c0-.839647.660353-1.5 1.5-1.5z"/><path id="path3" d="m6.5 11a.50005.50005 0 0 0 -.5.5c0 .282064-.2179356.5-.5.5a.50005.50005 0 0 0 -.5.5v5a.50005.50005 0 0 0 .5.5c.2820644 0 .5.217936.5.5a.50005.50005 0 0 0 .5.5h11a.50005.50005 0 0 0 .5-.5c0-.282064.217936-.5.5-.5a.50005.50005 0 0 0 .5-.5v-5a.50005.50005 0 0 0 -.5-.5c-.282064 0-.5-.217936-.5-.5a.50005.50005 0 0 0 -.5-.5zm.2910156 1h10.4179684c.153184.382058.408958.637832.791016.791016v4.417968c-.382058.153184-.637832.408958-.791016.791016h-10.4179684c-.1531839-.382058-.4089575-.637832-.7910156-.791016v-4.417968c.3820581-.153184.6378317-.408958.7910156-.791016z"/><path id="path5" d="m14.146484 13.146484-2.646484 2.646485-1.6464844-1.646485a.5.5 0 0 0 -.7070312 0 .5.5 0 0 0 0 .707032l1.9999996 2a.50005.50005 0 0 0 .707032 0l3-3a.5.5 0 0 0 0-.707032.5.5 0 0 0 -.707032 0z"/></g></svg>