<svg id="SVGRoot" height="24" viewBox="0 0 24 24" width="24" xmlns="http://www.w3.org/2000/svg" xmlns:svg="http://www.w3.org/2000/svg"><g id="g7"><path id="path1" d="m6.499724 2c-.2761447.0000276-.4999975.2238691-.5000251.5v1.9746094l-1.9961938 16.9667966c-.035028.297098.1969309.558267.4961186.558594h5.0002507c.2372522.000279.4420486-.166161.490259-.398438l2.0098666-9.646484 2.009867 9.646484c.04821.232277.253006.398717.490258.398438h5.000251c.299188-.000327.531147-.261496.496119-.558594l-1.996194-16.9667966v-1.9746094c-.000028-.2761309-.22388-.4999724-.500025-.5zm.5000251 1h10.0005019v1h-10.0005019zm-.05469 2h2.0547905v2.5c0 .8343478-.6656855 1.5-1.5000752 1.5h-1.025442zm3.0548406 0h4.0002003v2.5c0 1.3747868 1.12527 2.5 2.500126 2.5h1.142635l1.0606 9c-1.404281.000093-2.809216-.0011-4.213136.002l-2.0001-9.6035155c-.107787-.535086-.872731-.535086-.980518 0l-2.0000665 9.6015155c-1.4043669-.000001-2.8087346 0-4.2131018 0l1.0606001-9h1.1426353c1.3748558 0 2.5001256-1.1252132 2.5001256-2.5zm5.0002503 0h2.054791l.470727 4h-1.025442c-.83439 0-1.500076-.6656522-1.500076-1.5zm-9.8208047 15h4.1232536l-.2089949 1h-4.0314521zm9.5180557 0h4.123253l.117194 1h-4.031452z" stroke-linecap="round" stroke-linejoin="round"/></g></svg>