<svg id="SVGRoot" height="24" viewBox="0 0 24 24" width="24" xmlns="http://www.w3.org/2000/svg" xmlns:svg="http://www.w3.org/2000/svg"><g id="g4" stroke-linecap="round" stroke-linejoin="round"><path id="path1" d="m5.5 2c-.822504 0-1.5.677496-1.5 1.5v16c0 1.374788 1.1252118 2.5 2.5 2.5h11c1.374788 0 2.5-1.125212 2.5-2.5v-16c0-.822504-.677496-1.5-1.5-1.5h-3a.50005.50005 0 0 0 -.353516.8535156l.853516.8535157v2.4609374l-1.964844-2.2441406c-.513223-.5865409-1.255779-.9238281-2.035156-.9238281s-1.521933.3372872-2.0351562.9238281l-1.9648438 2.2441406v-2.4609374l.8535156-.8535157a.50005.50005 0 0 0 -.3535156-.8535156zm0 1h1.7929687l-.1464843.1464844a.50005.50005 0 0 0 -.1464844.3535156v4a.50005.50005 0 0 0 .8769531.3300781l2.8417969-3.2480469c.323715-.3699594.78966-.5820312 1.28125-.5820312s.957535.2120718 1.28125.5820312l2.841797 3.2480469a.50005.50005 0 0 0 .876953-.3300781v-4a.50005.50005 0 0 0 -.146484-.3535156l-.146485-.1464844h1.792969c.282064 0 .5.2179356.5.5v16c0 .834349-.665651 1.5-1.5 1.5h-11c-.8343486 0-1.5-.665651-1.5-1.5v-16c0-.2820644.2179356-.5.5-.5z"/><path id="path2" d="m17.5 17a.5.5 0 0 0 -.5.5v2a.5.5 0 0 0 .5.5.5.5 0 0 0 .5-.5v-2a.5.5 0 0 0 -.5-.5z"/><path id="path3" d="m17.5 13a.5.5 0 0 0 -.5.5v2a.5.5 0 0 0 .5.5.5.5 0 0 0 .5-.5v-2a.5.5 0 0 0 -.5-.5z"/></g></svg>