<svg id="SVGRoot" height="24" viewBox="0 0 24 24" width="24" xmlns="http://www.w3.org/2000/svg" xmlns:svg="http://www.w3.org/2000/svg"><g id="g22" stroke-linecap="round" stroke-linejoin="round"><path id="path11" d="m6.5 3c-.8225032 0-1.5.6774968-1.5 1.5v.7929688l-1.1464844 1.1464843c-.5463841.5463842-.8535156 1.2878431-.8535156 2.0605469v7c0 .772704.3071315 1.514162.8535156 2.060547l1.1582032 1.158203c.112248 1.272929 1.1875203 2.28125 2.4882812 2.28125h11c1.374787 0 2.5-1.125213 2.5-2.5v-11c0-.8225032-.677497-1.5-1.5-1.5h-2.5v-1.5c0-.8225032-.677497-1.5-1.5-1.5zm0 1h9c.282064 0 .5.2179359.5.5v15.5h-8.5c-.8343478 0-1.5-.665652-1.5-1.5v-14c0-.2820641.2179359-.5.5-.5zm-1.5 2.7070312v10.5859378l-.4394531-.439453c-.3591199-.359121-.5605469-.845644-.5605469-1.353516v-7c0-.5078721.201427-.9943959.5605469-1.3535156zm12 .2929688h2.5c.282064 0 .5.2179359.5.5v.5h-3zm0 2h3v9.5c0 .834348-.665652 1.5-1.5 1.5h-1.5z"/><path id="path12" d="m7.5 17a.5.5 0 0 0 -.5.5.5.5 0 0 0 .5.5h1a.5.5 0 0 0 .5-.5.5.5 0 0 0 -.5-.5z"/><path id="path13" d="m10.5 17a.5.5 0 0 0 -.5.5.5.5 0 0 0 .5.5h1a.5.5 0 0 0 .5-.5.5.5 0 0 0 -.5-.5z"/><path id="path14" d="m13.5 17a.5.5 0 0 0 -.5.5.5.5 0 0 0 .5.5h1a.5.5 0 0 0 .5-.5.5.5 0 0 0 -.5-.5z"/><path id="path15" d="m7.5 14a.5.5 0 0 0 -.5.5.5.5 0 0 0 .5.5h1a.5.5 0 0 0 .5-.5.5.5 0 0 0 -.5-.5z"/><path id="path16" d="m10.5 14a.5.5 0 0 0 -.5.5.5.5 0 0 0 .5.5h1a.5.5 0 0 0 .5-.5.5.5 0 0 0 -.5-.5z"/><path id="path17" d="m13.5 14a.5.5 0 0 0 -.5.5.5.5 0 0 0 .5.5h1a.5.5 0 0 0 .5-.5.5.5 0 0 0 -.5-.5z"/><path id="path18" d="m7.5 11a.5.5 0 0 0 -.5.5.5.5 0 0 0 .5.5h1a.5.5 0 0 0 .5-.5.5.5 0 0 0 -.5-.5z"/><path id="path19" d="m10.5 11a.5.5 0 0 0 -.5.5.5.5 0 0 0 .5.5h1a.5.5 0 0 0 .5-.5.5.5 0 0 0 -.5-.5z"/><path id="path20" d="m13.5 11a.5.5 0 0 0 -.5.5.5.5 0 0 0 .5.5h1a.5.5 0 0 0 .5-.5.5.5 0 0 0 -.5-.5z"/><path id="path21" d="m7.5 5a.50005.50005 0 0 0 -.5.5v3a.50005.50005 0 0 0 .5.5h7a.50005.50005 0 0 0 .5-.5v-3a.50005.50005 0 0 0 -.5-.5zm.5 1h6v2h-6z"/><path id="path22" d="m18.5 11a.5.5 0 0 0 -.5.5v6a.5.5 0 0 0 .5.5.5.5 0 0 0 .5-.5v-6a.5.5 0 0 0 -.5-.5z"/></g></svg>