<svg id="SVGRoot" height="24" viewBox="0 0 24 24" width="24" xmlns="http://www.w3.org/2000/svg" xmlns:svg="http://www.w3.org/2000/svg"><g id="g4" stroke-linecap="round" stroke-linejoin="round"><path id="path1" d="m13.207031 3c-.585167 0-1.14677.2327082-1.560547.6464844l-7.7929684 7.7929686c-.5463841.546385-.8535156 1.287843-.8535156 2.060547s.3071315 1.514162.8535156 2.060547l4.5859375 4.585937c.5463842.546385 1.2878431.853516 2.0605469.853516.772704 0 1.514162-.307131 2.060547-.853516l7.792969-7.792968c.413775-.413777.646484-.97538.646484-1.560547v-1.5859378c0-.5851679-.232709-1.1467707-.646484-1.5605468l-.646485-.6464844.146485-.1464844c.743357-.7433576.743357-1.9636736 0-2.7070312-.37168-.3716789-.86258-.5566407-1.353516-.5566406-.490936 0-.981836.1849616-1.353516.5566406l-.146484.1464844-.646484-.6464844c-.413777-.4137762-.97538-.6464844-1.560547-.6464844zm0 1h1.585938c.320335 0 .627004.1270039.853515.3535156l1 1 2 2 1 1c.226512.2265119.353516.5331796.353516.8535156v1.5859378c0 .320335-.127004.627004-.353516.853515l-7.146484 7.146485-7.2929688-7.292969 7.1464848-7.1464844c.226511-.2265117.53318-.3535156.853515-.3535156zm5.292969.5820312c.232939 0 .46588.0908797.646484.2714844.36121.3612097.36121.9317591 0 1.2929688l-.146484.1464844-1.292969-1.2929688.146485-.1464844c.180604-.1806047.413545-.2714844.646484-.2714844zm-13.9960938 7.6289068 7.2851558 7.285156c-.352078.321815-.809939.503906-1.289062.503906-.5078721 0-.9943959-.201427-1.3535156-.560547l-4.5859375-4.585937c-.3591199-.359121-.5605469-.845644-.5605469-1.353516 0-.479123.1820905-.936984.5039062-1.289062z"/><path id="path5" d="m15.5 8c-.132601.0000199-.259763.052711-.353516.1464844l-.65039.6503906c-.285536-.2361897-.638703-.352793-.992188-.3535156-.400453-.0008186-.802207.1491473-1.105468.4511718-.606135.6061331-.606135 1.6048038 0 2.2109378l.494187.494187c.224418.220774.227497.566002.0078.791016-.226587.224883-.576754.22598-.802735 0-.07482-.07416-1.084156-1.084157-1.24414-1.244141-.195254-.195212-.511778-.195212-.707032 0-.1952123.195254-.1952123.511778 0 .707032l.646451.646437-.646485.646484c-.1952123.195254-.1952123.511778 0 .707032.195254.195212.511778.195212.707032 0l.652343-.652344c.613797.502902 1.531574.468426 2.103516-.103516l.0039-.0039c.600326-.610236.590704-1.606707-.01953-2.207031l-.488281-.488281c-.223437-.223437-.222342-.5708816 0-.7949224.223647-.2210371.568882-.2230449.791015 0 .416723.4166234.833372.8333234 1.250046 1.2499974.195254.195212.511778.195212.707032 0 .195212-.195254.195212-.511778 0-.707032l-.646526-.646487.646485-.6464844c.195212-.1952535.195212-.5117777 0-.7070312-.093753-.0937729-.220915-.1464645-.353516-.1464844z"/></g></svg>