<svg width="64" height="64" viewBox="0 0 64 64" fill="none" xmlns="http://www.w3.org/2000/svg">
<path d="M20.4141 14C19.2437 14 18.1205 14.4654 17.293 15.293L1.70703 30.8789C0.614263 31.9717 0 33.4546 0 35C0 36.5454 0.614263 38.0283 1.70703 39.1211L10.8789 48.293C11.9717 49.3857 13.4546 50 15 50C16.5454 50 18.0283 49.3857 19.1211 48.293L34.707 32.707C35.5346 31.8795 36 30.7563 36 29.5859V26.4141C36 25.2437 35.5346 24.1205 34.707 23.293L33.4141 22L33.707 21.707C35.1937 20.2203 35.1937 17.7797 33.707 16.293C32.9637 15.5496 31.9819 15.1797 31 15.1797C30.0181 15.1797 29.0363 15.5496 28.293 16.293L28 16.5859L26.707 15.293C25.8795 14.4654 24.7563 14 23.5859 14H20.4141ZM20.4141 16H23.5859C24.2266 16 24.8399 16.254 25.293 16.707L27.293 18.707L31.293 22.707L33.293 24.707C33.746 25.1601 34 25.7734 34 26.4141V29.5859C34 30.2266 33.746 30.8399 33.293 31.293L19 45.5859L4.41406 31L18.707 16.707C19.1601 16.254 19.7734 16 20.4141 16ZM31 17.1641C31.4659 17.1641 31.9318 17.3458 32.293 17.707C33.0154 18.4295 33.0154 19.5705 32.293 20.293L32 20.5859L29.4141 18L29.707 17.707C30.0682 17.3458 30.5341 17.1641 31 17.1641ZM3.00781 32.4219L17.5781 46.9922C16.874 47.6358 15.9582 48 15 48C13.9843 48 13.0112 47.5971 12.293 46.8789L3.12109 37.707C2.40285 36.9888 2 36.0157 2 35C2 34.0418 2.36418 33.126 3.00781 32.4219Z" fill="#808080"/>
<path d="M24.9998 24C24.7346 24 24.4803 24.1054 24.2928 24.293L22.992 25.5938C22.421 25.1214 21.7146 24.8882 21.0077 24.8867C20.2068 24.8851 19.4032 25.185 18.7967 25.7891C17.5845 27.0013 17.5845 28.9987 18.7967 30.2109L19.7851 31.1993C20.2339 31.6409 20.2401 32.3313 19.8007 32.7813C19.3475 33.2311 18.6472 33.2333 18.1952 32.7813C18.0456 32.633 16.0269 30.613 15.7069 30.2931C15.3164 29.9026 14.6834 29.9026 14.2929 30.2931C13.9025 30.6836 13.9025 31.3166 14.2929 31.7071L15.5858 33L14.2928 34.293C13.9024 34.6835 13.9024 35.3165 14.2928 35.707C14.6833 36.0975 15.3164 36.0975 15.7069 35.707L17.0116 34.4023C18.2392 35.4081 20.0747 35.3392 21.2186 34.1953L21.2264 34.1875C22.4271 32.967 22.4078 30.9741 21.1873 29.7735L20.2108 28.7969C19.7639 28.35 19.7661 27.6551 20.2108 27.207C20.6581 26.765 21.3485 26.761 21.7928 27.207C22.6263 28.0403 23.4596 28.8737 24.2929 29.707C24.6834 30.0975 25.3165 30.0975 25.707 29.707C26.0974 29.3165 26.0974 28.6835 25.707 28.293L24.4139 27L25.7069 25.707C26.0973 25.3165 26.0973 24.6835 25.7069 24.293C25.5194 24.1054 25.2651 24 24.9998 24Z" fill="#808080"/>
</svg>
