<svg id="SVGRoot" height="24" viewBox="0 0 24 24" width="24" xmlns="http://www.w3.org/2000/svg" xmlns:svg="http://www.w3.org/2000/svg"><g id="g3" stroke-linecap="round" stroke-linejoin="round"><path id="path2" d="m12 3c-4.4123469 0-8 3.5876531-8 8 0 1.513296.4217504 2.930855 1.1542969 4.138672l-2.0078125 2.007812a.50005.50005 0 0 0 .2558594.84375l2.171875.435547.4355468 2.171875a.50005.50005 0 0 0 .84375.25586l2.3554688-2.355469c.8693626.324537 1.8096656.501953 2.7910156.501953s1.921653-.177416 2.791016-.501953l2.355468 2.355469a.50005.50005 0 0 0 .84375-.25586l.435547-2.171875 2.171875-.435547a.50005.50005 0 0 0 .25586-.84375l-2.007813-2.007812c.732547-1.207817 1.154297-2.625376 1.154297-4.138672 0-4.4123469-3.587653-8-8-8zm0 1c3.871908 0 7 3.1280922 7 7 0 3.871908-3.128092 7-7 7-3.8719078 0-7-3.128092-7-7 0-3.8719078 3.1280922-7 7-7zm-6.2617188 11.96875c.6796217.854685 1.5286414 1.568891 2.4980469 2.087891l-1.4296875 1.429687-.3164062-1.583984a.50005.50005 0 0 0 -.3925782-.392578l-1.5839843-.316407zm12.5234378 0 1.224609 1.224609-1.583984.316407a.50005.50005 0 0 0 -.392578.392578l-.316407 1.583984-1.429687-1.429687c.969405-.519 1.818425-1.233206 2.498047-2.087891z"/><path id="path3" d="m12 6c-.193251 0-.308947.083033-.380859.1425781-.07191.059546-.113967.1149144-.154297.1699219-.08066.110015-.144745.225432-.210938.3574219-.132385.2639797-.26753.5887466-.40039.9160156-.132861.327269-.26251.655263-.369141.9023438-.04725.1094828-.08627.1951018-.119141.2597656-.07175.011385-.16515.023932-.285156.035156-.2679385.02506-.6203486.047039-.9726561.072266-.3523075.025226-.7041247.053324-.9960938.097656-.1459845.022166-.2747411.045175-.4042969.087891-.064778.021358-.1301309.045711-.2089843.095703-.078853.049992-.1941884.1345666-.2539063.3183593-.059718.1837928-.014878.3194565.019531.40625.034409.086794.073429.1438649.1132812.1992189.079705.110708.1703155.206807.2753906.310547.2101503.20748.4758987.436573.7460938.664062.2701951.22749.5421038.451142.7441406.628907.090224.07938.1595855.145918.2109375.197265-.011396.07167-.028486.16262-.054687.279297-.058964.262569-.1475445.604406-.2324218.947266-.084877.342859-.1667825.685184-.2148438.976562-.024031.145689-.041605.275695-.041016.41211.0002949.06821.00417.138073.027344.228515.023179.09044.066313.226254.2226563.339844.1563434.11359.2993996.113326.3925781.107422.093179-.0059.1596493-.02412.2246094-.04492.1299202-.04159.2497266-.09814.3808596-.166016.262265-.13575.561477-.319187.861328-.505859.29985-.186673.598581-.376456.830078-.513672.10285-.06096.185362-.105686.25-.138672.06464.03299.14715.07771.25.138672.231497.137216.530228.326999.830078.513672.299851.186673.599063.370109.861328.505859.131133.06787.250939.124422.38086.166016.06496.0208.13143.03902.224609.04492.09318.0059.236235.0062.392578-.107422.156344-.11359.199478-.249401.222656-.339844.02318-.09044.02705-.160308.02734-.228515.00059-.136415-.01699-.266421-.04101-.41211-.04806-.291378-.129967-.633703-.214844-.976562-.08488-.34286-.173458-.684697-.232422-.947266-.0262-.116677-.04329-.207627-.05469-.279297.05135-.05135.120714-.117881.210938-.197265.202037-.177765.473945-.401417.744141-.628907.270195-.227489.535943-.456582.746093-.664062.105075-.10374.195686-.199839.275391-.310547.03985-.05535.07887-.1124253.113281-.1992189.03441-.086793.07925-.2224572.01953-.40625-.0597161-.1837928-.1750501-.268367-.2539041-.3183594-.078853-.0499925-.144206-.0743455-.208984-.0957032-.129556-.0427153-.258313-.0657246-.404297-.0878906-.291969-.0443319-.643786-.0724299-.996094-.0976562-.352307-.0252264-.704717-.0472053-.972656-.0722657-.120006-.0112241-.213407-.0237714-.285156-.0351562-.032873-.0646638-.071892-.1502828-.119141-.2597656-.106631-.2470808-.23628-.5750748-.369141-.9023438-.13286-.327269-.268005-.6520359-.40039-.9160156-.066193-.1319899-.130278-.2474068-.210938-.3574219-.04033-.0550075-.082384-.1103764-.154297-.1699219-.071912-.0595455-.187608-.1425781-.380859-.1425781zm0 1.4589844c.07282.165441.141176.312823.21875.5039062.130195.3207024.261593.6500434.378906.921875.05866.1359159.111719.2569202.167969.3632813.05625.106361.05678.1856193.263672.3359375.206895.1503182.281853.1258546.400391.1464844.118537.02063.249094.035043.396484.048828.294779.027571.650855.049499.996094.074219.206122.014759.366756.034558.546875.052734-.135035.120576-.254029.230186-.41211.363281-.264773.222925-.539443.44896-.761718.644532-.111138.09779-.209196.187072-.292969.273437-.08377.08637-.159255.110296-.238281.353516-.07903.24322-.03068.30667-.01367.425781s.04374.248142.07617.392578c.06487.288871.153153.63277.236328.96875.04962.200446.08078.360289.11914.537109-.156471-.0912-.299079-.17002-.474609-.279296-.293834-.1829278-.59297-.3724758-.847656-.5234378-.127344-.075481-.241585-.142328-.34961-.195312-.108025-.052985-.154419-.117188-.410156-.117188s-.302131.0642-.410156.117188c-.108025.05298-.222266.119831-.34961.195312-.254686.150962-.553822.34051-.847656.523438-.17553.109276-.318138.188097-.4746092.279296.038358-.17682.069519-.336663.1191402-.537109.08318-.33598.171458-.679879.236329-.96875.03243-.144436.05916-.273467.07617-.392578s.06536-.182561-.01367-.425781c-.079027-.24322-.154509-.267151-.238282-.353516s-.1818307-.175652-.2929685-.273437c-.2222755-.195572-.4969451-.421607-.7617187-.644532-.1580807-.133095-.2770748-.242705-.4121094-.363281.1801183-.018177.340753-.037975.546875-.052734.3452385-.02472.7013147-.046648.9960936-.074219.14739-.013785.277947-.028198.396485-.048828.118537-.02063.193495.00383.40039-.1464844.206895-.1503182.207422-.2295765.263672-.3359375.05625-.1063611.109312-.2273654.167969-.3632813.117313-.2718318.248711-.6011728.378906-.9218752.077574-.1910832.14593-.3384652.21875-.5039062z"/></g></svg>