<svg width="24" height="24" viewBox="0 0 24 24" fill="none" xmlns="http://www.w3.org/2000/svg">
<path d="M18 13C16.3491 13 15 14.3492 15 16.0002C15 16.7548 15.2353 17.4898 15.6738 18.1038L17.5938 20.7915C17.64 20.856 17.701 20.9086 17.7717 20.9448C17.8423 20.9811 17.9206 21 18 21C18.0794 21 18.1577 20.9811 18.2283 20.9448C18.299 20.9086 18.36 20.856 18.4062 20.7915L20.3262 18.1038C20.7647 17.4898 21 16.7548 21 16.0002C21 14.3492 19.6509 13 18 13ZM18 14.0001C19.1105 14.0001 20 14.8896 20 16.0002C20 16.5464 19.8292 17.0792 19.5117 17.5237L18 19.641L16.4883 17.5237C16.1708 17.0792 16 16.5464 16 16.0002C16 14.8896 16.8895 14.0001 18 14.0001Z" fill="black"/>
<path d="M18 15C17.4536 15 17 15.4536 17 16C17 16.5464 17.4536 17 18 17C18.5464 17 19 16.5464 19 16C19 15.4536 18.5464 15 18 15Z" fill="black"/>
<path d="M12.5 17C12.3674 17 12.2402 17.0527 12.1464 17.1464C12.0527 17.2402 12 17.3674 12 17.5C12 17.6326 12.0527 17.7598 12.1464 17.8536C12.2402 17.9473 12.3674 18 12.5 18H13.5C13.6326 18 13.7598 17.9473 13.8536 17.8536C13.9473 17.7598 14 17.6326 14 17.5C14 17.3674 13.9473 17.2402 13.8536 17.1464C13.7598 17.0527 13.6326 17 13.5 17H12.5Z" fill="black"/>
<path d="M14.5 5C14.3674 5 14.2402 5.05268 14.1464 5.14645C14.0527 5.24021 14 5.36739 14 5.5C14 5.63261 14.0527 5.75979 14.1464 5.85355C14.2402 5.94732 14.3674 6 14.5 6H15.5C16.8866 6 18 7.11337 18 8.5C18 9.88663 16.8866 11 15.5 11H8.5C6.57293 11 5 12.5729 5 14.5C5 16.4271 6.57293 18 8.5 18H10.5C10.6326 18 10.7598 17.9473 10.8536 17.8536C10.9473 17.7598 11 17.6326 11 17.5C11 17.3674 10.9473 17.2402 10.8536 17.1464C10.7598 17.0527 10.6326 17 10.5 17H8.5C7.11337 17 6 15.8866 6 14.5C6 13.1134 7.11337 12 8.5 12H15.5C17.4271 12 19 10.4271 19 8.5C19 6.57293 17.4271 5 15.5 5H14.5Z" fill="black"/>
<path d="M11.5 5C11.3674 5 11.2402 5.05268 11.1464 5.14645C11.0527 5.24021 11 5.36739 11 5.5C11 5.63261 11.0527 5.75979 11.1464 5.85355C11.2402 5.94732 11.3674 6 11.5 6H12.5C12.6326 6 12.7598 5.94732 12.8536 5.85355C12.9473 5.75979 13 5.63261 13 5.5C13 5.36739 12.9473 5.24021 12.8536 5.14645C12.7598 5.05268 12.6326 5 12.5 5H11.5Z" fill="black"/>
<path d="M4 3C3.88859 3.00017 3.78043 3.03755 3.69268 3.10619C3.60493 3.17483 3.54262 3.27082 3.51562 3.37891L3.01562 5.37891C2.99725 5.45255 2.99588 5.52941 3.01163 5.60367C3.02737 5.67792 3.05981 5.74761 3.10649 5.80747C3.15317 5.86732 3.21286 5.91576 3.28104 5.94912C3.34922 5.98248 3.4241 5.99988 3.5 6V9C3.36739 9 3.24021 9.05268 3.14645 9.14645C3.05268 9.24021 3 9.36739 3 9.5C3 9.63261 3.05268 9.75979 3.14645 9.85355C3.24021 9.94732 3.36739 10 3.5 10H9.5C9.63261 10 9.75979 9.94732 9.85355 9.85355C9.94732 9.75979 10 9.63261 10 9.5C10 9.36739 9.94732 9.24021 9.85355 9.14645C9.75979 9.05268 9.63261 9 9.5 9V6C9.5759 5.99988 9.65078 5.98248 9.71896 5.94912C9.78714 5.91576 9.84683 5.86732 9.89351 5.80747C9.94019 5.74761 9.97263 5.67792 9.98837 5.60367C10.0041 5.52941 10.0027 5.45255 9.98438 5.37891L9.48438 3.37891C9.45738 3.27082 9.39507 3.17483 9.30732 3.10619C9.21957 3.03755 9.11141 3.00017 9 3H4ZM4.39062 4H8.60938L8.85938 5H4.14062L4.39062 4ZM4.5 6H8.5V9H7V7.5C7 7.36739 6.94732 7.24021 6.85355 7.14645C6.75979 7.05268 6.63261 7 6.5 7C6.36739 7 6.24021 7.05268 6.14645 7.14645C6.05268 7.24021 6 7.36739 6 7.5V9H4.5V6Z" fill="black"/>
</svg>
