<svg id="SVGRoot" height="24" viewBox="0 0 24 24" width="24" xmlns="http://www.w3.org/2000/svg" xmlns:svg="http://www.w3.org/2000/svg"><g id="g7" stroke-linecap="round" stroke-linejoin="round"><path id="path1" d="m18 13c-1.65093 0-3 1.349154-3 3.000188 0 .754575.235268 1.489624.673828 2.103647l1.919922 2.687668a.50005.50008128 0 0 0 .8125 0l1.919922-2.687668c.43856-.614023.673828-1.349072.673828-2.103647 0-1.651034-1.34907-3.000188-3-3.000188zm0 1.000063c1.110491 0 2 .889564 2 2.000125 0 .546258-.170795 1.079024-.488281 1.523532l-1.511719 2.11732-1.511719-2.11732c-.317486-.444508-.488281-.977274-.488281-1.523532 0-1.110561.889509-2.000125 2-2.000125z"/><path id="path2" d="m18 15c-.546362 0-1 .453638-1 1s.453638 1 1 1 1-.453638 1-1-.453638-1-1-1z"/><path id="path4" d="m12.5 17a.5.5 0 0 0 -.5.5.5.5 0 0 0 .5.5h1a.5.5 0 0 0 .5-.5.5.5 0 0 0 -.5-.5z"/><path id="path5" d="m14.5 5a.5.5 0 0 0 -.5.5.5.5 0 0 0 .5.5h1c1.386633 0 2.5 1.1133672 2.5 2.5s-1.113367 2.5-2.5 2.5h-7c-1.9270724 0-3.5 1.572928-3.5 3.5s1.5729276 3.5 3.5 3.5h2a.5.5 0 0 0 .5-.5.5.5 0 0 0 -.5-.5h-2c-1.3866328 0-2.5-1.113367-2.5-2.5s1.1133672-2.5 2.5-2.5h7c1.927072 0 3.5-1.572928 3.5-3.5 0-1.9270724-1.572928-3.5-3.5-3.5z"/><path id="path6" d="m11.5 5a.5.5 0 0 0 -.5.5.5.5 0 0 0 .5.5h1a.5.5 0 0 0 .5-.5.5.5 0 0 0 -.5-.5z"/><path id="path7" d="m4 3a.50005.50005 0 0 0 -.484375.3789062l-.5 2a.50005.50005 0 0 0 .484375.6210938v3a.5.5 0 0 0 -.5.5.5.5 0 0 0 .5.5h6a.5.5 0 0 0 .5-.5.5.5 0 0 0 -.5-.5v-3a.50005.50005 0 0 0 .484375-.6210938l-.5-2a.50005.50005 0 0 0 -.484375-.3789062zm.390625 1h4.21875l.25 1h-4.71875zm.109375 2h4v3h-1.5v-1.5a.5.5 0 0 0 -.5-.5.5.5 0 0 0 -.5.5v1.5h-1.5z"/></g></svg>