<svg id="SVGRoot" height="24" viewBox="0 0 24 24" width="24" xmlns="http://www.w3.org/2000/svg" xmlns:svg="http://www.w3.org/2000/svg"><g id="g4" stroke-linecap="round" stroke-linejoin="round"><path id="path1" d="m12 2c-5.5169197 0-10 4.4830803-10 10 0 5.51692 4.4830803 10 10 10 5.51692 0 10-4.48308 10-10 0-5.5169197-4.48308-10-10-10zm0 1c4.97648 0 9 4.0235199 9 9 0 4.97648-4.02352 9-9 9-4.9764801 0-9-4.02352-9-9 0-4.9764801 4.0235199-9 9-9z"/><path id="path2" d="m9 7c-1.0986461 0-2 .9013539-2 2 0 1.098646.9013539 2 2 2 1.098646 0 2-.901354 2-2 0-1.0986461-.901354-2-2-2zm0 1c.5582065 0 1 .4417935 1 1s-.4417935 1-1 1-1-.4417935-1-1 .4417935-1 1-1z"/><path id="path3" d="m16.146484 7.1464844-8.9999996 8.9999996a.5.5 0 0 0 0 .707032.5.5 0 0 0 .7070312 0l9.0000004-9.0000004a.5.5 0 0 0 0-.7070312.5.5 0 0 0 -.707032 0z"/><path id="path4" d="m15 13c-1.098646 0-2 .901354-2 2s.901354 2 2 2 2-.901354 2-2-.901354-2-2-2zm0 1c.558207 0 1 .441793 1 1s-.441793 1-1 1-1-.441793-1-1 .441793-1 1-1z"/></g></svg>