<svg id="SVGRoot" height="24" viewBox="0 0 24 24" width="24" xmlns="http://www.w3.org/2000/svg" xmlns:svg="http://www.w3.org/2000/svg"><g id="g10" stroke-linecap="round" stroke-linejoin="round"><path id="path5" d="m2.5 4c-.2761424 0-.5.2238576-.5.5s.2238576.5.5.5h.5v1.5c0 1.3747868 1.1252132 2.5 2.5 2.5h2.5v2h-2.5c-1.3747868 0-2.5 1.125213-2.5 2.5v5.5h-.5c-.2761424 0-.5.223858-.5.5s.2238576.5.5.5h19c.276142 0 .5-.223858.5-.5s-.223858-.5-.5-.5h-.5v-5.5c0-1.374787-1.125213-2.5-2.5-2.5h-2.5v-2h2.5c1.374787 0 2.5-1.1252132 2.5-2.5v-1.5h.5c.276142 0 .5-.2238576.5-.5s-.223858-.5-.5-.5zm1.5 1h16v1.5c0 .8343478-.665652 1.5-1.5 1.5h-13c-.8343478 0-1.5-.6656522-1.5-1.5zm5 4h6v2h-6zm-3.5 3h13c.834348 0 1.5.665652 1.5 1.5v5.5h-16v-5.5c0-.834348.6656522-1.5 1.5-1.5z"/><path id="path8" d="m6.5 15a.5.5 0 0 0 -.5.5.5.5 0 0 0 .5.5h2a.5.5 0 0 0 .5-.5.5.5 0 0 0 -.5-.5z"/><path id="path9" d="m12 13.5c-1.098646 0-2 .901354-2 2s.901354 2 2 2 2-.901354 2-2-.901354-2-2-2zm0 1c.558207 0 1 .441793 1 1s-.441793 1-1 1-1-.441793-1-1 .441793-1 1-1z"/><path id="path10" d="m15.5 15a.5.5 0 0 0 -.5.5.5.5 0 0 0 .5.5h2a.5.5 0 0 0 .5-.5.5.5 0 0 0 -.5-.5z"/></g></svg>