<svg id="SVGRoot" height="24" viewBox="0 0 24 24" width="24" xmlns="http://www.w3.org/2000/svg" xmlns:svg="http://www.w3.org/2000/svg"><g id="g1" stroke-linecap="round" stroke-linejoin="round"><path id="path6" d="m12 2c-.3976 0-.790798.081663-1.15625.2382945l-6.5410156 2.80289a.50005.50007778 0 0 0 -.3027344.4590099c0 4.0210527.2434933 7.3301506 1.3496094 10.0630586 1.106116 2.732909 3.1043045 4.850694 6.4414066 6.39098a.50005.50007778 0 0 0 .417968 0c3.337102-1.540286 5.335291-3.658071 6.441407-6.39098 1.106116-2.732908 1.349609-6.0420059 1.349609-10.0630586a.50005.50007778 0 0 0 -.302734-.4590099l-6.541016-2.80289c-.365452-.1566312-.75865-.2382945-1.15625-.2382945zm0 1.0000555c.262188 0 .52073.052972.761719.1562587l6.222656 2.6661637c-.015343 3.8148721-.27133 6.9236011-1.259766 9.3657551-.990626 2.447567-2.725016 4.276769-5.724609 5.719067-2.9995931-1.442298-4.7339826-3.2715-5.7246094-5.719067-.9884356-2.442154-1.2444228-5.550883-1.2597656-9.3657551l6.222656-2.6661637c.240989-.1032866.499531-.1562587.761719-.1562587z"/><path id="path3" d="m16.146484 9.1464844-4.646484 4.6464846-2.6464844-2.646485a.5.5 0 0 0 -.7070312 0 .5.5 0 0 0 0 .707032l2.9999996 3a.50005.50005 0 0 0 .707032 0l5-5.0000004a.5.5 0 0 0 0-.7070312.5.5 0 0 0 -.707032 0z"/></g></svg>