<svg id="SVGRoot" height="24" viewBox="0 0 24 24" width="24" xmlns="http://www.w3.org/2000/svg" xmlns:svg="http://www.w3.org/2000/svg"><g id="g6" stroke-linecap="round" stroke-linejoin="round"><path id="path1" d="m11.5 4c-.276131.0000276-.499972.2238691-.5.5v7.5h-2v-3h.5c.2761424 0 .5-.2238576.5-.5s-.2238576-.5-.5-.5h-1-2v-1.5c0-.2761424-.2238576-.5-.5-.5s-.5.2238576-.5.5v1.5h-3c-.2761424 0-.5.2238576-.5.5s.2238576.5.5.5h.5v3h-.5c-.3316985.000375-.5711258.317665-.4804688.636719.5762135 2.012637 1.1501651 4.02592 1.7246094 6.039062.2233267.781605.9429383 1.324219 1.7558594 1.324219h11c1.412033 0 2.69182-.842825 3.248047-2.140625l2.210937-5.162109c.141541-.329777-.100101-.696868-.458984-.697266h-1.5v-7.5c-.000028-.2761309-.223869-.4999724-.5-.5zm.5 1h2v2.5c.000174.4453189.538519.6682943.853516.3535156l.646484-.6464844.646484.6464844c.314997.3147787.853342.0918033.853516-.3535156v-2.5h2v7h-7zm3 0h1v1.2929688l-.146484-.1464844c-.195265-.1951847-.511767-.1951847-.707032 0l-.146484.1464844zm-11 4h4v3h-4zm-.8378906 4h11.5292966l-.691406 1.382812c-.189871.379716-.575435.617188-1 .617188h-9.265625zm12.6464846 0h4.933594l-1.914063 4.464844c-.399715.932623-1.313412 1.535156-2.328125 1.535156h-11c-.370959 0-.6930117-.242941-.7949219-.599609l-.6855469-2.400391h8.9804688c.801247 0 1.536204-.453313 1.894531-1.169922z"/><path id="path2" d="m5.5 10a.5.5 0 0 0 -.5.5.5.5 0 0 0 .5.5h1a.5.5 0 0 0 .5-.5.5.5 0 0 0 -.5-.5z"/></g></svg>