<svg id="SVGRoot" height="24" viewBox="0 0 24 24" width="24" xmlns="http://www.w3.org/2000/svg" xmlns:svg="http://www.w3.org/2000/svg"><g id="g16" stroke-linecap="round" stroke-linejoin="round"><path id="path13" d="m8.5 3c-.1671722.0000135-.3232798.0835641-.4160156.2226562l-1.9042969 2.8574219-1.8886719.6289063c-.7686816.2562271-1.2910156.9807539-1.2910156 1.7910156v10c0 1.374786 1.1252146 2.5 2.5 2.5h13c1.374786 0 2.5-1.125214 2.5-2.5v-10c0-.8104861-.522119-1.5347175-1.291016-1.7910156l-1.888672-.6289063-1.904296-2.8574219c-.092736-.1390922-.248844-.2226428-.416016-.2226562zm.9609375 1h5.0781245l-2.539062 3.6269531zm-.9511719.3867188 2.8730464 4.1035156-.982421 1.3105468c-.094691.1262535-.242574.1992188-.400391.1992188-.1578168 0-.3057005-.0729653-.4003906-.1992188l-2.4882813-3.3183593zm6.9804684 0 1.398438 2.0957031-2.488281 3.3183593c-.094691.1262535-.242574.1992188-.400391.1992188s-.3057-.0729653-.400391-.1992188l-.982421-1.3105468zm-9.1738278 2.7011718 2.484375 3.3125004c.2830179.377356.7275223.599609 1.1992188.599609.471697 0 .916201-.222253 1.199219-.599609l.800781-1.0664066.800781 1.0664066c.283018.377356.727522.599609 1.199219.599609s.916201-.222253 1.199219-.599609l2.484375-3.3125004 1.708984.5703125c.364192.121397.607422.457906.607422.8417969v10c0 .834347-.665653 1.5-1.5 1.5h-13c-.834347 0-1.5-.665653-1.5-1.5v-10c0-.3836665.2414907-.7204708.6054688-.8417969z"/><path id="path14" d="m6.5 15.5a.5.5 0 0 0 -.5.5.5.5 0 0 0 .5.5h4a.5.5 0 0 0 .5-.5.5.5 0 0 0 -.5-.5z"/><path id="path15" d="m6.5 13.5a.5.5 0 0 0 -.5.5.5.5 0 0 0 .5.5h2a.5.5 0 0 0 .5-.5.5.5 0 0 0 -.5-.5z"/><path id="path16" d="m13.5 13a.50005.50005 0 0 0 -.5.5v2c0 .822504.677496 1.5 1.5 1.5h1c.822504 0 1.5-.677496 1.5-1.5v-2a.50005.50005 0 0 0 -.5-.5zm.5 1h2v1.5c0 .282064-.217936.5-.5.5h-1c-.282064 0-.5-.217936-.5-.5z" transform="translate(.5)"/></g></svg>