<svg id="SVGRoot" height="24" viewBox="0 0 24 24" width="24" xmlns="http://www.w3.org/2000/svg" xmlns:svg="http://www.w3.org/2000/svg"><g id="g4" stroke-linecap="round" stroke-linejoin="round"><path id="path2" d="m4.5 4c-1.3747868 0-2.5 1.1252132-2.5 2.5v12c0 .822503.6774968 1.5 1.5 1.5h17c.822503 0 1.5-.677497 1.5-1.5v-3c0-1.414536-.600928-2.76271-1.652344-3.708984l-8.513672-7.6621098c-.321578-.2885129-.833023-.0609376-.833984.3710938 0 1.3866314-1.1133686 2.5-2.5 2.5s-2.5-1.1133686-2.5-2.5c-.0000276-.2761309-.2238691-.4999724-.5-.5zm0 1h.6015625c.2533384 1.6813431 1.6485875 3 3.3984375 3 1.590725 0 2.886007-1.0927504 3.308594-2.5507812l7.871094 7.0839842c.841097.756987 1.320312 1.835217 1.320312 2.966797v1.5h-18v-10.5c0-.8343478.6656522-1.5 1.5-1.5zm-1.5 13h18v.5c0 .282064-.217936.5-.5.5h-17c-.2820641 0-.5-.217936-.5-.5z"/><path id="path3" d="m16.146484 11.146484-1 1a.5.5 0 0 0 0 .707032.5.5 0 0 0 .707032 0l1-1a.5.5 0 0 0 0-.707032.5.5 0 0 0 -.707032 0z"/><path id="path4" d="m14.146484 9.1464844-1 .9999996a.5.5 0 0 0 0 .707032.5.5 0 0 0 .707032 0l1-1.0000004a.5.5 0 0 0 0-.7070312.5.5 0 0 0 -.707032 0z"/></g></svg>