<svg id="SVGRoot" height="24" viewBox="0 0 24 24" width="24" xmlns="http://www.w3.org/2000/svg" xmlns:svg="http://www.w3.org/2000/svg"><g id="g2"><path id="path1" d="m5.5 3c-.8104619 0-1.5347251.5221203-1.7910156 1.2910156l-.6835938 2.0507813c-.0000203.0026-.0000203.00521 0 .00781-.0161038.0485395-.0246669.0992595-.0253906.1503931v2.2480469c0 .9171024.384734 1.7474011 1 2.3398441v8.912109h-.5c-.2761424 0-.5.223858-.5.5s.2238576.5.5.5h17c.276142 0 .5-.223858.5-.5s-.223858-.5-.5-.5h-.5v-8.910156c.615614-.592561 1.000403-1.4240477 1-2.3417971v-2.2480469c-.0012-.00654-.0025-.013047-.0039-.019531-.000608-.047004-.0078-.093688-.02148-.1386719l-.683604-2.0507815c-.256291-.7688953-.980554-1.2910156-1.791016-1.2910156zm0 1h13c.38388 0 .720404.2432305.841797.6074219l.464844 1.3925781h-15.6132816l.4648437-1.3925781c.1213933-.3641914.4579174-.6074219.8417969-.6074219zm-1.5 3h4.5v1.7480469c.000548 1.2485605-.9994861 2.2514051-2.2480469 2.2519531-1.2492267 0-2.2519531-1.002726-2.2519531-2.2519531zm5.5 0h5v1.5c0 1.3866314-1.113368 2.5-2.5 2.5s-2.5-1.1133686-2.5-2.5zm6 0h4.5v1.7480469c.000548 1.2485605-.999486 2.2514051-2.248047 2.2519531-1.249227 0-2.251953-1.002726-2.251953-2.2519531zm-.554688 3.384766c.565627.964382 1.612899 1.615234 2.806641 1.615234.441981-.000194.86331-.090474 1.248047-.251953v8.251953h-4v-4.5c0-.822503-.677497-1.5-1.5-1.5h-3c-.8225032 0-1.5.677497-1.5 1.5v4.5h-4v-8.251953c.3857341.162047.8088593.251953 1.2519531.251953 1.1923508-.000523 2.2378012-.650335 2.8027344-1.613281.6236786.969231 1.7118455 1.613281 2.9453125 1.613281 1.23405 0 2.321779-.645238 2.945312-1.615234zm-4.445312 4.615234h3c.282064 0 .5.217936.5.5v4.5h-4v-4.5c0-.282064.217936-.5.5-.5z" stroke-linecap="round" stroke-linejoin="round"/></g></svg>