<svg width="32" height="32" viewBox="0 0 32 32" fill="none" xmlns="http://www.w3.org/2000/svg">
<path d="M5.875 8.25C4.84687 8.25 4 9.09687 4 10.125V21.375C4 22.4031 4.84687 23.25 5.875 23.25H6.56348C6.85528 24.6716 8.1205 25.75 9.625 25.75C11.1295 25.75 12.3947 24.6716 12.6865 23.25H20.3135V23.2525C20.6062 24.6729 21.8713 25.75 23.375 25.75C24.8787 25.75 26.1438 24.6705 26.4365 23.25H27.125C28.1531 23.25 29 22.4031 29 21.375V17.625C29.0002 17.5456 28.9853 17.4669 28.9561 17.3931C28.4339 16.0829 27.9084 14.774 27.3838 13.4648C26.7288 11.8274 25.1386 10.75 23.375 10.75H19V10.125C19 9.09687 18.1531 8.25 17.125 8.25H5.875ZM5.875 9.5H9V15.125C9.00011 15.6241 9.55633 15.9218 9.97168 15.645L11.5 14.627L13.0283 15.645C13.4437 15.9218 13.9999 15.6241 14 15.125V9.5H17.125C17.4776 9.5 17.75 9.77242 17.75 10.125V17H5.25V10.125C5.25 9.77242 5.52242 9.5 5.875 9.5ZM10.25 9.5H12.75V13.958L11.8467 13.355C11.6367 13.215 11.3633 13.215 11.1533 13.355L10.25 13.958V9.5ZM19 12H23.375C24.6312 12 25.7576 12.7623 26.2241 13.9287L27.4521 17H19V12ZM5.25 18.25H17.75V22H12.6865C12.3947 20.5784 11.1295 19.5 9.625 19.5C8.1205 19.5 6.85528 20.5784 6.56348 22H5.875C5.52242 22 5.25 21.7276 5.25 21.375V18.25ZM19 18.25H27.75V21.375C27.75 21.7276 27.4776 22 27.125 22H26.4365V21.9975C26.1438 20.5771 24.8787 19.5 23.375 19.5C21.8713 19.5 20.6062 20.5795 20.3135 22H19V18.25ZM9.625 20.75C10.6679 20.75 11.5 21.5821 11.5 22.625C11.5 23.6679 10.6679 24.5 9.625 24.5C8.58207 24.5 7.75 23.6679 7.75 22.625C7.75 21.5821 8.58207 20.75 9.625 20.75ZM23.375 20.75C24.4179 20.75 25.25 21.5821 25.25 22.625C25.25 23.6679 24.4179 24.5 23.375 24.5C22.3321 24.5 21.5 23.6679 21.5 22.625C21.5 21.5821 22.3321 20.75 23.375 20.75Z" fill="black"/>
</svg>
