<svg width="32" height="32" viewBox="0 0 32 32" fill="none" xmlns="http://www.w3.org/2000/svg">
<path d="M7.37406 4C6.26486 4 5.33441 4.86507 5.26927 5.95833L4.15621 24.6354C4.04806 26.4506 5.5271 28 7.36879 28H24.9298C26.774 28 28.2533 26.4505 28.145 24.6328L27.0346 5.95573C26.9696 4.86376 26.0404 4 24.9325 4H7.37406ZM7.37406 5.33333H24.9325C25.3386 5.33333 25.6603 5.63356 25.6842 6.03385L26.7972 24.7109C26.861 25.7817 26.0162 26.6667 24.9298 26.6667H7.36879C6.28496 26.6667 5.44301 25.7844 5.50665 24.7161L6.61708 6.03646C6.641 5.63487 6.96662 5.33333 7.37406 5.33333Z" fill="black"/>
<path d="M7.37395 24C7.19487 24 7.02313 24.0702 6.8965 24.1953C6.76987 24.3203 6.69873 24.4899 6.69873 24.6667C6.69873 24.8435 6.76987 25.013 6.8965 25.1381C7.02313 25.2631 7.19487 25.3333 7.37395 25.3333H11.4253C11.6044 25.3333 11.7761 25.2631 11.9027 25.1381C12.0294 25.013 12.1005 24.8435 12.1005 24.6667C12.1005 24.4899 12.0294 24.3203 11.9027 24.1953C11.7761 24.0702 11.6044 24 11.4253 24H7.37395Z" fill="black"/>
<path d="M7.37395 21.3333C7.19487 21.3333 7.02313 21.4035 6.8965 21.5285C6.76987 21.6535 6.69873 21.8231 6.69873 21.9999C6.69873 22.1767 6.76987 22.3463 6.8965 22.4713C7.02313 22.5963 7.19487 22.6666 7.37395 22.6666H8.7244C8.90348 22.6666 9.07522 22.5963 9.20185 22.4713C9.32848 22.3463 9.39962 22.1767 9.39962 21.9999C9.39962 21.8231 9.32848 21.6535 9.20185 21.5285C9.07522 21.4035 8.90348 21.3333 8.7244 21.3333H7.37395Z" fill="black"/>
<path d="M12.7761 6.66675C12.597 6.66675 12.4252 6.73699 12.2986 6.86201C12.172 6.98703 12.1008 7.1566 12.1008 7.33341V10.6667C12.1008 12.868 13.9227 14.6667 16.1522 14.6667C18.3816 14.6667 20.2035 12.868 20.2035 10.6667V7.33341C20.2035 7.1566 20.1324 6.98703 20.0057 6.86201C19.8791 6.73699 19.7073 6.66675 19.5283 6.66675C19.3492 6.66675 19.1774 6.73699 19.0508 6.86201C18.9242 6.98703 18.853 7.1566 18.853 7.33341V10.6667C18.853 12.1474 17.6518 13.3334 16.1522 13.3334C14.6525 13.3334 13.4513 12.1474 13.4513 10.6667V7.33341C13.4513 7.1566 13.3801 6.98703 13.2535 6.86201C13.1269 6.73699 12.9551 6.66675 12.7761 6.66675Z" fill="black"/>
</svg>
