<svg id="SVGRoot" height="24" viewBox="0 0 24 24" width="24" xmlns="http://www.w3.org/2000/svg" xmlns:svg="http://www.w3.org/2000/svg"><g id="g5" stroke-linecap="round" stroke-linejoin="round"><path id="path1" d="m5.5 3c-.8213625 0-1.5103617.6488048-1.5585937 1.46875l-.8242188 14.007812c-.0800831 1.361413 1.0151403 2.523438 2.3789062 2.523438h13.0039063c1.365638 0 2.461052-1.162109 2.380859-2.525391l-.822265-14.0078121c-.048175-.8189779-.736247-1.4667969-1.556641-1.4667969zm0 1h13.001953c.300742 0 .538981.2251678.556641.5253906l.824218 14.0078124c.047239.803058-.578366 1.466797-1.382812 1.466797h-13.0039063c-.8025735 0-1.4260349-.661702-1.3789062-1.462891l.8222656-14.0097653c.0177171-.3011901.2588361-.5273437.5605469-.5273437z"/><path id="path4" d="m5.5 18a.5.5 0 0 0 -.5.5.5.5 0 0 0 .5.5h3a.5.5 0 0 0 .5-.5.5.5 0 0 0 -.5-.5z"/><path id="path3" d="m5.5 16a.5.5 0 0 0 -.5.5.5.5 0 0 0 .5.5h1a.5.5 0 0 0 .5-.5.5.5 0 0 0 -.5-.5z"/><path id="path2" d="m9.5 5a.5.5 0 0 0 -.5.5v2.5c0 1.6509303 1.34907 3 3 3s3-1.3490697 3-3v-2.5a.5.5 0 0 0 -.5-.5.5.5 0 0 0 -.5.5v2.5c0 1.1104907-.889509 2-2 2s-2-.8895093-2-2v-2.5a.5.5 0 0 0 -.5-.5z"/></g></svg>