<svg id="SVGRoot" height="24" viewBox="0 0 24 24" width="24" xmlns="http://www.w3.org/2000/svg" xmlns:svg="http://www.w3.org/2000/svg"><g id="g3" stroke-linecap="round" stroke-linejoin="round"><path id="path2" d="m4.5 3c-.822504 0-1.5.677496-1.5 1.5v14c0 1.374788 1.1252118 2.5 2.5 2.5h13c1.374788 0 2.5-1.125212 2.5-2.5v-14c0-.822504-.677496-1.5-1.5-1.5zm0 1h15c.282064 0 .5.2179356.5.5v14c0 .834349-.665651 1.5-1.5 1.5h-13c-.8343486 0-1.5-.665651-1.5-1.5v-14c0-.2820644.2179356-.5.5-.5z"/><path id="path3" d="m7.5 5a.5.5 0 0 0 -.5.5v3.5c0 2.755499 2.2445013 5 5 5 2.755499 0 5-2.244501 5-5v-3.5a.5.5 0 0 0 -.5-.5.5.5 0 0 0 -.5.5v3.5c0 2.215059-1.784941 4-4 4-2.2150591 0-4-1.784941-4-4v-3.5a.5.5 0 0 0 -.5-.5z"/></g></svg>