<svg id="SVGRoot" height="24" viewBox="0 0 24 24" width="24" xmlns="http://www.w3.org/2000/svg" xmlns:svg="http://www.w3.org/2000/svg"><g id="g4" stroke-linecap="round" stroke-linejoin="round"><path id="path2" d="m3.5 3c-.2761424 0-.5.2238576-.5.5s.2238576.5.5.5h2c.2820641 0 .5.2179359.5.5v11c0 1.299443 1.0062431 2.374194 2.2773438 2.488281-.1758604.297308-.2773438.643649-.2773438 1.011719 0 1.098645.901355 2 2 2s2-.901355 2-2c0-.363449-.09969-.705224-.271484-1h3.542968c-.171796.294776-.271484.636551-.271484 1 0 1.098645.901355 2 2 2s2-.901355 2-2c0-.363449-.09969-.705224-.271484-1h1.771484c.276142 0 .5-.223858.5-.5s-.223858-.5-.5-.5h-12c-.8343478 0-1.5-.665652-1.5-1.5v-.5h9.439453c1.435635 0 2.684661-1.000896 2.996094-2.402344l1.335937-6.0136716c.178287-.8022871-.449626-1.5839844-1.271484-1.5839844h-12.5v-.5c0-.8225032-.6774968-1.5-1.5-1.5zm3.5 3h12.5c.204515 0 .339288.1675424.294922.3671875l-1.335938 6.0117185c-.210987.949445-1.046925 1.621094-2.019531 1.621094h-9.439453zm3 12c.558206 0 1 .441794 1 1s-.441794 1-1 1c-.5582059 0-1-.441794-1-1s.4417941-1 1-1zm7 0c.558206 0 1 .441794 1 1s-.441794 1-1 1-1-.441794-1-1 .441794-1 1-1z"/><path id="path3" d="m8.5 12a.5.5 0 0 0 -.5.5.5.5 0 0 0 .5.5h1a.5.5 0 0 0 .5-.5.5.5 0 0 0 -.5-.5z"/></g></svg>