<svg width="24" height="24" viewBox="0 0 24 24" fill="none" xmlns="http://www.w3.org/2000/svg">
<path d="M3.5 3C3.22386 3 3 3.22386 3 3.5C3 3.77614 3.22386 4 3.5 4H5.5C5.78206 4 6 4.21794 6 4.5V15.5C6 16.7994 7.00624 17.8742 8.27734 17.9883C8.10148 18.2856 8 18.6319 8 19C8 20.0986 8.90135 21 10 21C11.0986 21 12 20.0986 12 19C12 18.6366 11.9003 18.2948 11.7285 18H15.2715C15.0997 18.2948 15 18.6366 15 19C15 20.0986 15.9014 21 17 21C18.0986 21 19 20.0986 19 19C19 18.6366 18.9003 18.2948 18.7285 18H20.5C20.7761 18 21 17.7761 21 17.5C21 17.2239 20.7761 17 20.5 17H8.5C7.66565 17 7 16.3343 7 15.5V15H16.4395C17.8751 15 19.1241 13.9991 19.4355 12.5977L20.7715 6.58398C20.9498 5.7817 20.3219 5 19.5 5H7V4.5C7 3.6775 6.3225 3 5.5 3H3.5ZM7 6H19.5C19.7045 6 19.8393 6.16754 19.7949 6.36719L18.459 12.3789C18.248 13.3284 17.4121 14 16.4395 14H7V6ZM10 18C10.5582 18 11 18.4418 11 19C11 19.5582 10.5582 20 10 20C9.44179 20 9 19.5582 9 19C9 18.4418 9.44179 18 10 18ZM17 18C17.5582 18 18 18.4418 18 19C18 19.5582 17.5582 20 17 20C16.4418 20 16 19.5582 16 19C16 18.4418 16.4418 18 17 18Z" fill="black"/>
<path d="M8.5 12C8.36739 12 8.24021 12.0527 8.14645 12.1464C8.05268 12.2402 8 12.3674 8 12.5C8 12.6326 8.05268 12.7598 8.14645 12.8536C8.24021 12.9473 8.36739 13 8.5 13H9.5C9.63261 13 9.75979 12.9473 9.85355 12.8536C9.94732 12.7598 10 12.6326 10 12.5C10 12.3674 9.94732 12.2402 9.85355 12.1464C9.75979 12.0527 9.63261 12 9.5 12H8.5Z" fill="black"/>
</svg>
