<svg id="SVGRoot" height="24" viewBox="0 0 24 24" width="24" xmlns="http://www.w3.org/2000/svg" xmlns:svg="http://www.w3.org/2000/svg"><g id="g5" stroke-linecap="round" stroke-linejoin="round"><path id="path3" d="m8.5 2c-1.37635 0-2.5 1.12365-2.5 2.5v15c0 1.37635 1.12365 2.5 2.5 2.5h7c1.37635 0 2.5-1.12365 2.5-2.5v-15c0-1.37635-1.12365-2.5-2.5-2.5zm0 1h7c.839648 0 1.5.6603522 1.5 1.5v15c0 .839648-.660352 1.5-1.5 1.5h-7c-.8396478 0-1.5-.660352-1.5-1.5v-15c0-.8396478.6603522-1.5 1.5-1.5z"/><path id="path4" d="m9.5 19a.5.5 0 0 0 -.5.5.5.5 0 0 0 .5.5h5a.5.5 0 0 0 .5-.5.5.5 0 0 0 -.5-.5z"/><path id="path5" d="m10.5 4a.5.5 0 0 0 -.5.5.5.5 0 0 0 .5.5h3a.5.5 0 0 0 .5-.5.5.5 0 0 0 -.5-.5z"/></g></svg>