<svg id="SVGRoot" height="24" viewBox="0 0 24 24" width="24" xmlns="http://www.w3.org/2000/svg" xmlns:svg="http://www.w3.org/2000/svg"><g id="g5" stroke-linecap="round" stroke-linejoin="round"><path id="path2" d="m4.5 3c-.8102236 0-1.3623429.8925015-1 1.6171875l.4648438.9316406c-1.2646739 4.2595482-1.2991515 8.5761849 0 12.9042969l-.4648438.929687c-.3623429.724687.1897764 1.617188 1 1.617188h15c.810223 0 1.362343-.892501 1-1.617188l-.464844-.929687c1.402725-4.571609 1.153934-8.8456447-.001953-12.9023438l.466797-.9335937c.362343-.724686-.189777-1.6171875-1-1.6171875zm0 1h15c.108645 0 .154056.0727461.105469.1699219l-.414063.8300781h-14.3828122l-.4140626-.8300781c-.0485876-.0971754-.0031765-.1699219.1054688-.1699219zm.4238281 2h14.1523439c1.061602 3.8140443 1.295041 7.751888.027344 12h-14.1796879c-1.1791013-4.036033-1.1505755-8.0212941 0-12zm-.1152343 13h14.3828122l.414063.830078c.048587.097176.003176.169922-.105469.169922h-15c-.1086453 0-.1540564-.072746-.1054688-.169922z"/><path id="path4" d="m12 8c-2.2032145 0-4 1.7967855-4 4 0 2.203214 1.7967855 4 4 4 2.203214 0 4-1.796786 4-4 .000007-.209297-.01613-.418273-.04883-.625a.50005.50005 0 0 0 -.589842-.412109c-.118563.023321-.240512.035526-.361328.037109-.000655 0-.0013.000001-.002 0-1.108921-.001-1.997-.889126-1.998047-1.9980469-.000001-.0006544 0-.0013 0-.00195.0016-.1208163.01379-.2427654.03711-.3613281a.50005.50005 0 0 0 -.412063-.5898469c-.206727-.0326951-.415703-.0488356-.625-.0488281zm0 1c0 1.65093 1.34907 3 3 3 0 1.662775-1.337225 3-3 3s-3-1.337225-3-3 1.337225-3 3-3z"/></g></svg>