<svg id="SVGRoot" height="24" viewBox="0 0 24 24" width="24" xmlns="http://www.w3.org/2000/svg" xmlns:svg="http://www.w3.org/2000/svg"><g id="g3"><path id="path1" d="m15.5 3c-.102813 0-.203541.011118-.300781.03125-.097242.020131-.19166.0497088-.28125.0878906-.17918.0763666-.340469.1861726-.476563.3222656-.101682.1016774-.190255.2188003-.259765.3457032-.02293.0419733-.04359.0866334-.0625.1308594v.0019531c-.075921.1787301-.119141.3750905-.119141.5800781v.9746094 4.6953126l-3.693359 1.583984h-.001953c-.104729.044336-.206154.093958-.304688.146485v-4.400391-.9746094c0-.2049871-.0432217-.4013474-.1191406-.5800781v-.0019531c-.0189107-.0442224-.0395675-.0888858-.0625-.1308594-.0695153-.126903-.1580835-.2440256-.2597656-.3457031-.1360933-.1360933-.297383-.2458989-.4765626-.3222657-.0895897-.0381815-.1840086-.0677598-.28125-.0878906-.0972412-.0201317-.1979684-.03125-.3007812-.03125h-4c-.5654703 0-1.0629988.3196975-1.3183594.7871094v.0019531c-.0228845.0420048-.0436403.0846557-.0625.1289063v.0019531c-.0759189.1787307-.1191406.375091-.1191406.5800781v.9746094 6.833984c0 1.831552 1.0938043 3.489456 2.7773438 4.210938l5.0234372 2.154297c1.902961.815517 4.119724-.085088 4.916016-1.996094a.50005.50002647 0 0 0 .001953-.001953c.164655-.400617.250819-.814032.273438-1.22461l2.230468-.957031c1.683539-.721481 2.777344-2.379388 2.777344-4.210937v-6.8339846-.9746094c0-.2049866-.043221-.4013478-.119141-.5800781v-.0019531c-.01886-.0442503-.03961-.0869013-.0625-.1289063v-.0019531c-.255358-.4674116-.75289-.7871094-1.318359-.7871094zm0 1h4c.282064 0 .5.2179496.5.5v.4746094h-5v-.4746094c0-.2820504.217936-.5.5-.5zm-.5 1.9746094h5v5.0390626c-.163899-.02468-.329815-.037763-.496094-.039063a.50005.50005 0 0 0 -.003906 0c-1.927065 0-3.5 1.572936-3.5 3.5.000722.605157.158886 1.196219.453125 1.716797l-.548828.236328c-.261891-1.146737-1.048685-2.157238-2.208985-2.648437h-.001953l-2.785156-1.195313 3.789063-1.625a.50005.50002647 0 0 0 .302734-.458984zm-10.5.0507812h4c.2820638 0 .5.2179495.5.5v.4746094h-5v-.4746094c0-.2820505.2179362-.5.5-.5zm-.5 1.9746094h5v4.525391a.50005.50002647 0 0 0 .3027344.458984l3.9980466 1.714844a.50005.50002647 0 0 0 .001953 0c1.410852.596537 2.072519 2.204356 1.490235 3.621093-.588014 1.40696-2.195639 2.059821-3.597657 1.458985l-3.648437-1.5625c.2941854-.52058.4524034-1.111641.453125-1.716797 0-1.927066-1.5729333-3.5-3.5-3.5a.50005.50005 0 0 0 -.0039062 0c-.1662782.001253-.3321954.014377-.4960938.039062zm15.498047 3.974609h.001953c.170514.00157.33391.055827.5.091797v.242188c0 .089642-.003166.179178-.009766.267578-.00658.0884-.016338.174849-.029296.261719-.01296.086869-.029679.174715-.048829.259765-.01915.085052-.041256.169003-.066406.251953-.02515.082948-.053014.163581-.083984.244141-.030963.080557-.064973.160401-.101563.238281-.036587.077879-.075157.153606-.117187.228516-.02102.037458-.044077.074668-.066407.111328-.022278.036565-.044779.073635-.068359.109375-.047271.071662-.096107.140864-.148437.208984-.052327.068123-.108826.134919-.166016.199219-.057192.064296-.115864.12732-.177734.1875-.061868.060183-.125057.118048-.191407.173828-.066352.055783-.136381.109057-.207031.160157-.035322.025548-.071062.049898-.107422.074218-.036435.02438-.071925.049156-.109375.072266-.074755.046127-.151799.088046-.230469.128906-.07867.040864-.159787.079926-.242187.115234l-.357422.154297c-.245896-.39407-.470143-.811902-.470703-1.28125 0-1.385973 1.112327-2.499 2.498047-2.5zm-14.998047 2.025391h.0019531c1.3857201.001049 2.4980469 1.114024 2.4980469 2.5-.0005596.469348-.2248071.887178-.4707031 1.28125l-.3574219-.154297c-.0823977-.035312-.1635164-.074374-.2421875-.115234s-.155714-.082785-.2304687-.128907c-.0374525-.023105-.0729415-.047892-.109375-.072265-.0363634-.024321-.0720975-.048672-.1074219-.074219-.0706488-.051096-.1406784-.104373-.2070313-.160156-.0663527-.055783-.1295391-.113645-.1914062-.173828-.0618672-.060184-.1205427-.123204-.1777344-.1875-.0571917-.064297-.1136892-.131096-.1660156-.199219-.0523266-.068123-.1011661-.137322-.1484375-.208984-.0235765-.035741-.0460757-.072808-.0683594-.109375-.0223346-.036665-.0453946-.07387-.0664063-.111328-.0420267-.074915-.0805953-.150637-.1171874-.228516-.0365923-.077879-.0705945-.157724-.1015626-.238281-.0309679-.080558-.0588305-.161193-.0839843-.244141-.025154-.082948-.0472562-.166901-.0664063-.251953s-.0358716-.172897-.0488281-.259766-.0227237-.173319-.0292969-.261719c-.0065731-.088398-.0097656-.177936-.0097656-.267578v-.242187c.1660903-.035971.3294859-.090231.5-.091797z" stroke-linecap="round" stroke-linejoin="round"/></g></svg>