<svg id="SVGRoot" height="24" viewBox="0 0 24 24" width="24" xmlns="http://www.w3.org/2000/svg" xmlns:svg="http://www.w3.org/2000/svg"><g id="g5" stroke-linecap="round" stroke-linejoin="round"><path id="path4" d="m7.5 3c-.8223498 0-1.5.6776502-1.5 1.5v2c0 .8223498.6776502 1.5 1.5 1.5h1.5v1h-5.5c-.2761309.0000276-.4999724.2238691-.5.5v2c.0000276.276131.2238691.499972.5.5h.5v8h-.5c-.2761424 0-.5.223858-.5.5s.2238576.5.5.5h17c.276142 0 .5-.223858.5-.5s-.223858-.5-.5-.5h-.5v-8h.5c.276131-.000028.499972-.223869.5-.5v-2c-.000028-.2761309-.223869-.4999724-.5-.5h-5.5v-1h1.5c.82235 0 1.5-.6776502 1.5-1.5v-2c0-.8223498-.67765-1.5-1.5-1.5zm0 1h9c.285648 0 .5.214352.5.5v2c0 .285648-.214352.5-.5.5h-9c-.285648 0-.5-.214352-.5-.5v-2c0-.285648.214352-.5.5-.5zm2.5 4h4v1h-4zm-6 2h16v1h-16zm1 2h14v8h-3v-5h.5c.276142 0 .5-.223858.5-.5s-.223858-.5-.5-.5h-9c-.2761424 0-.5.223858-.5.5s.2238576.5.5.5h.5v5h-3zm4 3h2.5v5h-2.5zm3.5 0h2.5v5h-2.5z"/><path id="path5" d="m9.5 5a.5.5 0 0 0 -.5.5.5.5 0 0 0 .5.5h5a.5.5 0 0 0 .5-.5.5.5 0 0 0 -.5-.5z"/></g></svg>