<svg id="SVGRoot" height="24" viewBox="0 0 24 24" width="24" xmlns="http://www.w3.org/2000/svg" xmlns:svg="http://www.w3.org/2000/svg"><g id="g3"><path id="path10" d="m18.5 3a.5.5 0 0 0 -.5.5v1.2929688l-1.210938 1.2109374c-1.410939-1.2460043-3.262436-2.0039062-5.289062-2.0039062-4.4123469 0-8 3.5876531-8 8 0 2.684503 1.329517 5.061946 3.3632812 6.513672l-1.2617187 1.685547a.49956241.49963525 0 0 0 .0976563.699219.49956241.49963525 0 0 0 .7011718-.097657l1.3144532-1.753906c1.127481.6079 2.4165252.953125 3.7851562.953125 1.512091 0 2.927579-.422827 4.134766-1.154297l1.464843 1.955078a.49956232.49963525 0 0 0 .701172.097657.49956232.49963525 0 0 0 .097657-.699219l-1.44336-1.925781c1.852463-1.466278 3.044922-3.732022 3.044922-6.273438 0-2.0266258-.757902-3.8781229-2.003906-5.2890625l1.210937-1.2109375h1.292969a.5.5 0 0 0 .5-.5.5.5 0 0 0 -.5-.5h-1v-1a.5.5 0 0 0 -.5-.5zm-7 2c1.75568 0 3.356464.6449516 4.583984 1.7089844l-.71289.7128906c-1.045908-.8859471-2.396631-1.421875-3.871094-1.421875-3.3077796 0-6 2.6922204-6 6 0 3.30778 2.6922204 6 6 6 3.30778 0 6-2.69222 6-6 0-1.474463-.535928-2.8251856-1.421875-3.8710938l.712891-.7128906c1.064032 1.2275201 1.708984 2.8283044 1.708984 4.5839844 0 3.871908-3.128092 7-7 7-3.8719078 0-7-3.128092-7-7 0-3.8719078 3.1280922-7 7-7zm0 2c1.20271 0 2.304681.4229127 3.166016 1.1269531l-.716797.7167969c-.677748-.5274117-1.527238-.84375-2.449219-.84375-2.2032123 0-4 1.7967877-4 4 0 2.203212 1.7967877 4 4 4 2.203212 0 4-1.796788 4-4 0-.921982-.316338-1.771472-.84375-2.4492188l.716797-.7167968c.70404.8613343 1.126953 1.9633056 1.126953 3.1660156 0 2.76734-2.23266 5-5 5-2.7673405 0-5-2.23266-5-5 0-2.7673405 2.2326595-5 5-5zm0 2c.650102 0 1.250123.2043779 1.740234.5527344l-1.740234 1.7402346v-.792969a.5.5 0 0 0 -.5-.5.5.5 0 0 0 -.5.5v2a.50005.50005 0 0 0 .5.5h2a.5.5 0 0 0 .5-.5.5.5 0 0 0 -.5-.5h-.792969l1.740235-1.740234c.348356.490111.552734 1.090132.552734 1.740234 0 1.662773-1.337227 3-3 3-1.6627732 0-3-1.337227-3-3s1.3372268-3 3-3z" stroke-linecap="round" stroke-linejoin="round" stroke-width=".999"/></g></svg>