<svg id="SVGRoot" height="24" viewBox="0 0 24 24" width="24" xmlns="http://www.w3.org/2000/svg" xmlns:svg="http://www.w3.org/2000/svg"><g id="g1"><path id="path2" d="m3.5 3c-.2761424 0-.5.2238576-.5.5s.2238576.5.5.5h2c.2820641 0 .5.2179359.5.5v12c0 .82235.6776502 1.5 1.5 1.5h.7714844c-.1717963.294776-.2714844.636551-.2714844 1 0 1.098645.901355 2 2 2s2-.901355 2-2c0-.363449-.09969-.705224-.271484-1h3.542968c-.171796.294776-.271484.636551-.271484 1 0 1.098645.901355 2 2 2s2-.901355 2-2c0-.363449-.09969-.705224-.271484-1h.771484c.82235 0 1.5-.67765 1.5-1.5s-.67765-1.5-1.5-1.5h-1v-7.5c-.000028-.2761309-.223869-.4999724-.5-.5h-9c-.2761309.0000276-.4999724.2238691-.5.5v7.5h-1c-.1752726 0-.3430342.033437-.5.089844v-10.589844c0-.8225032-.6774968-1.5-1.5-1.5zm6 5h2v3.5c-.0011.481394.611943.686188.900391.300781l1.099609-1.466797 1.099609 1.466797c.288448.385407.901502.180613.900391-.300781v-3.5h2v7h-8zm3 0h2v1.9980469l-.599609-.7988281c-.2-.2673181-.600782-.2673181-.800782 0l-.599609.7988281zm-5 8h12c.285648 0 .5.214352.5.5s-.214352.5-.5.5h-12c-.285648 0-.5-.214352-.5-.5s.214352-.5.5-.5zm2.5 2c.558206 0 1 .441794 1 1s-.441794 1-1 1c-.5582059 0-1-.441794-1-1s.4417941-1 1-1zm7 0c.558206 0 1 .441794 1 1s-.441794 1-1 1-1-.441794-1-1 .441794-1 1-1z" stroke-linecap="round" stroke-linejoin="round"/></g></svg>