<svg id="SVGRoot" height="24" viewBox="0 0 24 24" width="24" xmlns="http://www.w3.org/2000/svg" xmlns:svg="http://www.w3.org/2000/svg"><g id="g8" stroke-linecap="round" stroke-linejoin="round"><path id="path1" d="m4.5 4c-1.3747882 0-2.5 1.1252118-2.5 2.5v11c0 1.374788 1.1252118 2.5 2.5 2.5h12c.757224 0 1.49383-.244884 2.099609-.699219l2.400391-1.800781c.629163-.471872 1-1.213546 1-2v-7c0-.786454-.370837-1.5281276-1-2l-2.400391-1.8007813c-.605779-.4543342-1.342385-.6992187-2.099609-.6992187zm0 1h12c.540996 0 1.067203.1754023 1.5.5l2.400391 1.8007812c.378059.2835445.599609.7266448.599609 1.1992188v7c0 .472574-.22155.915674-.599609 1.199219l-2.400391 1.800781c-.432797.324598-.959004.5-1.5.5h-12c-.8343486 0-1.5-.665651-1.5-1.5v-11c0-.8343486.6656514-1.5 1.5-1.5z"/><path id="path5" d="m5.5 13a.50005.50005 0 0 0 -.5.5v3a.50005.50005 0 0 0 .5.5h11a.50005.50005 0 0 0 .5-.5v-3a.50005.50005 0 0 0 -.5-.5zm.5 1h10v2h-10z"/><path id="path6" d="m5.5 10a.5.5 0 0 0 -.5.5.5.5 0 0 0 .5.5h11a.5.5 0 0 0 .5-.5.5.5 0 0 0 -.5-.5z"/><path id="path7" d="m9.5 7a.5.5 0 0 0 -.5.5.5.5 0 0 0 .5.5h7a.5.5 0 0 0 .5-.5.5.5 0 0 0 -.5-.5z"/><path id="path8" d="m5.5 7a.5.5 0 0 0 -.5.5.5.5 0 0 0 .5.5h2a.5.5 0 0 0 .5-.5.5.5 0 0 0 -.5-.5z"/></g></svg>