<svg id="SVGRoot" height="24" viewBox="0 0 24 24" width="24" xmlns="http://www.w3.org/2000/svg" xmlns:svg="http://www.w3.org/2000/svg"><g id="g3" stroke-linecap="round" stroke-linejoin="round"><path id="path1" d="m5.5 3c-1.3747868 0-2.5 1.1252132-2.5 2.5v13c0 1.374787 1.1252132 2.5 2.5 2.5h13c1.374787 0 2.5-1.125213 2.5-2.5v-14c0-.8225032-.677497-1.5-1.5-1.5zm0 1h14c.282064 0 .5.2179359.5.5v1.5h-16v-.5c0-.8343478.6656522-1.5 1.5-1.5zm-1.5 3h16v4h-4.5c-1.374787 0-2.5 1.125213-2.5 2.5s1.125213 2.5 2.5 2.5h4.5v2.5c0 .834348-.665652 1.5-1.5 1.5h-13c-.8343478 0-1.5-.665652-1.5-1.5zm11.5 5h4.5v3h-4.5c-.834348 0-1.5-.665652-1.5-1.5s.665652-1.5 1.5-1.5z"/><path id="path2" d="m5.5 14a.5.5 0 0 0 -.5.5v3a.5.5 0 0 0 .5.5.5.5 0 0 0 .5-.5v-3a.5.5 0 0 0 -.5-.5z"/><path id="path3" d="m5.5 9a.5.5 0 0 0 -.5.5v3a.5.5 0 0 0 .5.5.5.5 0 0 0 .5-.5v-3a.5.5 0 0 0 -.5-.5z"/></g></svg>