<svg id="SVGRoot" height="24" viewBox="0 0 24 24" width="24" xmlns="http://www.w3.org/2000/svg" xmlns:svg="http://www.w3.org/2000/svg"><g id="g3" stroke-linecap="round" stroke-linejoin="round"><path id="path1" d="m11.884766 3.0136719-8.5000004 2c-.2254251.0534096-.3846492.2546623-.3847656.4863281v2c.0001774.3226199.3012901.5606423.6152344.4863281l.3847656-.0898437v12.1035156h-.5c-.2761424 0-.5.223858-.5.5s.2238576.5.5.5h17c.276142 0 .5-.223858.5-.5s-.223858-.5-.5-.5h-.5v-12.1035156l.384766.089844c.313944.0743136.615057-.1637087.615234-.4863284v-2c-.000116-.231666-.159341-.4329187-.384766-.4863281l-8.5-2c-.07577-.017945-.154693-.017945-.230468 0zm.115234 1 8 1.8828125v.9726562l-.384766-.089844-7.5-1.765625c-.07577-.017945-.154693-.017945-.230468 0l-7.5000004 1.7656253-.3847656.0898437v-.9726562zm0 2 7 1.6484375v12.3378906h-3v-7h.5c.276142 0 .5-.223858.5-.5s-.223858-.5-.5-.5h-9c-.2761424 0-.5.223858-.5.5s.2238576.5.5.5h.5v7h-3v-12.3378906zm-3 6.9863281h2.5v7h-2.5zm3.5 0h2.5v7h-2.5z"/><path id="path4" d="m7.5 9a.5.5 0 0 0 -.5.5.5.5 0 0 0 .5.5h1a.5.5 0 0 0 .5-.5.5.5 0 0 0 -.5-.5z"/><path id="path5" d="m11.5 9a.5.5 0 0 0 -.5.5.5.5 0 0 0 .5.5h1a.5.5 0 0 0 .5-.5.5.5 0 0 0 -.5-.5z"/><path id="path6" d="m15.5 9a.5.5 0 0 0 -.5.5.5.5 0 0 0 .5.5h1a.5.5 0 0 0 .5-.5.5.5 0 0 0 -.5-.5z"/></g></svg>