<svg width="24" height="24" viewBox="0 0 24 24" fill="none" xmlns="http://www.w3.org/2000/svg">
<path d="M11.7273 20.4543H9.27273C9.2004 20.4543 9.13103 20.4831 9.07988 20.5342C9.02873 20.5854 9 20.6547 9 20.7271C9 20.7994 9.02873 20.8688 9.07988 20.9199C9.13103 20.9711 9.2004 20.9998 9.27273 20.9998H11.7273C11.7996 20.9998 11.869 20.9711 11.9201 20.9199C11.9713 20.8688 12 20.7994 12 20.7271C12 20.6547 11.9713 20.5854 11.9201 20.5342C11.869 20.4831 11.7996 20.4543 11.7273 20.4543Z" fill="black"/>
<path d="M10.3636 21.2727H9.27273C9.2004 21.2727 9.13103 21.3014 9.07988 21.3526C9.02873 21.4037 9 21.4731 9 21.5454C9 21.6178 9.02873 21.6871 9.07988 21.7383C9.13103 21.7894 9.2004 21.8182 9.27273 21.8182H10.3636C10.436 21.8182 10.5053 21.7894 10.5565 21.7383C10.6076 21.6871 10.6364 21.6178 10.6364 21.5454C10.6364 21.4731 10.6076 21.4037 10.5565 21.3526C10.5053 21.3014 10.436 21.2727 10.3636 21.2727Z" fill="black"/>
<path d="M9.27273 6.81816H11.7273C11.7996 6.81816 11.869 6.78943 11.9201 6.73828C11.9713 6.68713 12 6.61776 12 6.54543C12 6.4731 11.9713 6.40373 11.9201 6.35258C11.869 6.30144 11.7996 6.27271 11.7273 6.27271H9.27273C9.2004 6.27271 9.13103 6.30144 9.07988 6.35258C9.02873 6.40373 9 6.4731 9 6.54543C9 6.61776 9.02873 6.68713 9.07988 6.73828C9.13103 6.78943 9.2004 6.81816 9.27273 6.81816Z" fill="black"/>
<path d="M10.3636 7.63627C10.436 7.63627 10.5053 7.60754 10.5565 7.5564C10.6076 7.50525 10.6364 7.43588 10.6364 7.36355C10.6364 7.29122 10.6076 7.22185 10.5565 7.1707C10.5053 7.11955 10.436 7.09082 10.3636 7.09082H9.27273C9.2004 7.09082 9.13103 7.11955 9.07988 7.1707C9.02873 7.22185 9 7.29122 9 7.36355C9 7.43588 9.02873 7.50525 9.07988 7.5564C9.13103 7.60754 9.2004 7.63627 9.27273 7.63627H10.3636Z" fill="black"/>
<path d="M4.0908 20.4543H1.63625C1.56392 20.4543 1.49455 20.4831 1.44341 20.5342C1.39226 20.5854 1.36353 20.6547 1.36353 20.7271C1.36353 20.7994 1.39226 20.8688 1.44341 20.9199C1.49455 20.9711 1.56392 20.9998 1.63625 20.9998H4.0908C4.16313 20.9998 4.2325 20.9711 4.28365 20.9199C4.33479 20.8688 4.36353 20.7994 4.36353 20.7271C4.36353 20.6547 4.33479 20.5854 4.28365 20.5342C4.2325 20.4831 4.16313 20.4543 4.0908 20.4543Z" fill="black"/>
<path d="M2.72716 21.2727H1.63625C1.56392 21.2727 1.49455 21.3014 1.44341 21.3526C1.39226 21.4037 1.36353 21.4731 1.36353 21.5454C1.36353 21.6178 1.39226 21.6871 1.44341 21.7383C1.49455 21.7894 1.56392 21.8182 1.63625 21.8182H2.72716C2.79949 21.8182 2.86886 21.7894 2.92001 21.7383C2.97116 21.6871 2.99989 21.6178 2.99989 21.5454C2.99989 21.4731 2.97116 21.4037 2.92001 21.3526C2.86886 21.3014 2.79949 21.2727 2.72716 21.2727Z" fill="black"/>
<path d="M23.4545 15.2726H19.9091V8.45446C19.9091 8.38212 19.8803 8.31275 19.8292 8.26161C19.778 8.21046 19.7087 8.18173 19.6363 8.18173H16.0909V1.36355C16.0909 1.29122 16.0622 1.22185 16.011 1.1707C15.9599 1.11955 15.8905 1.09082 15.8182 1.09082H8.1818C8.10947 1.09082 8.0401 1.11955 7.98895 1.1707C7.9378 1.22185 7.90907 1.29122 7.90907 1.36355V8.18173H4.36361C4.29128 8.18173 4.22191 8.21046 4.17077 8.26161C4.11962 8.31275 4.09089 8.38212 4.09089 8.45446V15.2726H0.545432C0.473101 15.2726 0.403731 15.3014 0.352585 15.3525C0.301439 15.4037 0.272705 15.473 0.272705 15.5454V22.6363C0.272705 22.7086 0.301439 22.778 0.352585 22.8291C0.403731 22.8803 0.473101 22.909 0.545432 22.909H23.4545C23.5269 22.909 23.5962 22.8803 23.6474 22.8291C23.6985 22.778 23.7273 22.7086 23.7273 22.6363V15.5454C23.7273 15.473 23.6985 15.4037 23.6474 15.3525C23.5962 15.3014 23.5269 15.2726 23.4545 15.2726ZM23.1818 16.909H21V15.8181H23.1818V16.909ZM20.4545 18.2726L19.8 17.7817C19.7528 17.7463 19.6954 17.7271 19.6365 17.7271C19.5775 17.7271 19.5201 17.7463 19.4729 17.7817L18.8182 18.2726V15.8181H20.4545V18.2726ZM5.72725 15.8181H7.90907V16.909H5.72725V15.8181ZM8.45452 15.8181H10.6363V16.909H8.45452V15.8181ZM11.1818 15.8181H12.8182V18.2726L12.1636 17.7817C12.1164 17.7463 12.059 17.7272 12 17.7272C11.941 17.7272 11.8836 17.7463 11.8363 17.7817L11.1818 18.2726V15.8181ZM9.54543 8.72718H11.7273V9.81809H9.54543V8.72718ZM14.4545 8.72718V9.81809H12.2727V8.72718H14.4545ZM13.3636 15.8181H15.5454V16.909H13.3636V15.8181ZM16.0909 15.8181H18.2727V16.909H16.0909V15.8181ZM12.2727 15.2726V10.3635H14.4545V11.7272C14.4545 11.7778 14.4686 11.8275 14.4953 11.8706C14.5219 11.9136 14.56 11.9485 14.6053 11.9711C14.6506 11.9938 14.7013 12.0034 14.7517 11.9988C14.8022 11.9943 14.8504 11.9758 14.8909 11.9454L15.8182 11.2499L16.7454 11.9454C16.786 11.9758 16.8341 11.9943 16.8846 11.9988C16.935 12.0034 16.9857 11.9938 17.031 11.9711C17.0763 11.9485 17.1144 11.9136 17.1411 11.8706C17.1677 11.8275 17.1818 11.7778 17.1818 11.7272V10.3635H19.3636V15.2726H12.2727ZM19.3636 9.81809H17.1818V8.72718H19.3636V9.81809ZM16.6363 11.1817L15.9818 10.6908C15.9346 10.6554 15.8773 10.6362 15.8183 10.6362C15.7593 10.6362 15.7019 10.6554 15.6547 10.6908L15 11.1817V8.72718H16.6363V11.1817ZM15.5454 2.72718H13.3636V1.63627H15.5454V2.72718ZM12.8182 1.63627V4.09082L12.1636 3.59991C12.1164 3.5645 12.059 3.54537 12 3.54537C11.941 3.54537 11.8836 3.5645 11.8363 3.59991L11.1818 4.09082V1.63627H12.8182ZM10.6363 1.63627V2.72718H8.45452V1.63627H10.6363ZM8.45452 3.27264H10.6363V4.63627C10.6363 4.68692 10.6504 4.73657 10.6771 4.77966C10.7037 4.82274 10.7418 4.85756 10.7871 4.88021C10.8324 4.90286 10.8831 4.91245 10.9336 4.9079C10.984 4.90335 11.0322 4.88485 11.0727 4.85446L12 4.159L12.9273 4.85446C12.9678 4.88485 13.016 4.90335 13.0664 4.9079C13.1168 4.91245 13.1676 4.90286 13.2129 4.88021C13.2582 4.85756 13.2963 4.82274 13.3229 4.77966C13.3495 4.73657 13.3636 4.68692 13.3636 4.63627V3.27264H15.5454V8.18173H8.45452V3.27264ZM8.99998 8.72718V11.1817L8.34543 10.6908C8.29823 10.6554 8.24081 10.6363 8.1818 10.6363C8.12279 10.6363 8.06537 10.6554 8.01816 10.6908L7.36362 11.1817V8.72718H8.99998ZM6.81816 8.72718V9.81809H4.63634V8.72718H6.81816ZM4.63634 10.3635H6.81816V11.7272C6.81816 11.7778 6.83226 11.8275 6.85889 11.8706C6.88552 11.9136 6.92362 11.9485 6.96892 11.9711C7.01422 11.9938 7.06494 12.0034 7.11538 11.9988C7.16582 11.9943 7.21401 11.9758 7.25452 11.9454L8.1818 11.2499L9.10907 11.9454C9.14959 11.9758 9.19777 11.9943 9.24821 11.9988C9.29866 12.0034 9.34937 11.9938 9.39467 11.9711C9.43997 11.9485 9.47807 11.9136 9.5047 11.8706C9.53133 11.8275 9.54543 11.7778 9.54543 11.7272V10.3635H11.7273V15.2726H4.63634V10.3635ZM5.1818 15.8181V18.2726L4.52725 17.7817C4.48004 17.7463 4.42262 17.7272 4.36361 17.7272C4.3046 17.7272 4.24719 17.7463 4.19998 17.7817L3.54543 18.2726V15.8181H5.1818ZM2.99998 15.8181V16.909H0.81816V15.8181H2.99998ZM0.81816 17.4545H2.99998V18.8181C2.99998 18.8687 3.01408 18.9184 3.04071 18.9615C3.06734 19.0046 3.10544 19.0394 3.15074 19.062C3.19604 19.0847 3.24675 19.0943 3.2972 19.0897C3.34764 19.0852 3.39582 19.0667 3.43634 19.0363L4.36361 18.3408L5.29089 19.0363C5.33141 19.0667 5.37959 19.0852 5.43003 19.0897C5.48048 19.0943 5.53119 19.0847 5.57649 19.062C5.62179 19.0394 5.65989 19.0046 5.68652 18.9615C5.71315 18.9184 5.72725 18.8687 5.72725 18.8181V17.4545H7.90907V22.3635H0.81816V17.4545ZM8.45452 17.4545H10.6363V18.8181C10.6363 18.8687 10.6504 18.9184 10.6771 18.9615C10.7037 19.0046 10.7418 19.0394 10.7871 19.062C10.8324 19.0847 10.8831 19.0943 10.9336 19.0897C10.984 19.0852 11.0322 19.0667 11.0727 19.0363L12 18.3408L12.9273 19.0363C12.9678 19.0667 13.016 19.0852 13.0664 19.0897C13.1168 19.0943 13.1676 19.0847 13.2129 19.062C13.2582 19.0394 13.2963 19.0046 13.3229 18.9615C13.3495 18.9184 13.3636 18.8687 13.3636 18.8181V17.4545H15.5454V22.3635H8.45452V17.4545ZM16.0909 22.3635V17.4545H18.2727V18.8181C18.2727 18.8687 18.2868 18.9184 18.3134 18.9615C18.3401 19.0046 18.3782 19.0394 18.4235 19.062C18.4688 19.0847 18.5195 19.0943 18.5699 19.0897C18.6204 19.0852 18.6686 19.0667 18.7091 19.0363L19.6363 18.3408L20.5636 19.0363C20.6041 19.0667 20.6523 19.0852 20.7028 19.0897C20.7532 19.0943 20.8039 19.0847 20.8492 19.062C20.8945 19.0394 20.9326 19.0046 20.9593 18.9615C20.9859 18.9184 21 18.8687 21 18.8181V17.4545H23.1818V22.3635H16.0909Z" fill="black"/>
<path d="M19.3635 20.4543H16.909C16.8366 20.4543 16.7673 20.4831 16.7161 20.5342C16.665 20.5854 16.6362 20.6547 16.6362 20.7271C16.6362 20.7994 16.665 20.8688 16.7161 20.9199C16.7673 20.9711 16.8366 20.9998 16.909 20.9998H19.3635C19.4358 20.9998 19.5052 20.9711 19.5564 20.9199C19.6075 20.8688 19.6362 20.7994 19.6362 20.7271C19.6362 20.6547 19.6075 20.5854 19.5564 20.5342C19.5052 20.4831 19.4358 20.4543 19.3635 20.4543Z" fill="black"/>
<path d="M17.9999 21.2727H16.909C16.8366 21.2727 16.7673 21.3014 16.7161 21.3526C16.665 21.4037 16.6362 21.4731 16.6362 21.5454C16.6362 21.6178 16.665 21.6871 16.7161 21.7383C16.7673 21.7894 16.8366 21.8182 16.909 21.8182H17.9999C18.0722 21.8182 18.1416 21.7894 18.1927 21.7383C18.2439 21.6871 18.2726 21.6178 18.2726 21.5454C18.2726 21.4731 18.2439 21.4037 18.1927 21.3526C18.1416 21.3014 18.0722 21.2727 17.9999 21.2727Z" fill="black"/>
<path d="M5.45461 13.909H7.90916C7.98149 13.909 8.05086 13.8802 8.10201 13.8291C8.15315 13.778 8.18188 13.7086 8.18188 13.6363C8.18188 13.5639 8.15315 13.4946 8.10201 13.4434C8.05086 13.3923 7.98149 13.3635 7.90916 13.3635H5.45461C5.38228 13.3635 5.31291 13.3923 5.26176 13.4434C5.21062 13.4946 5.18188 13.5639 5.18188 13.6363C5.18188 13.7086 5.21062 13.778 5.26176 13.8291C5.31291 13.8802 5.38228 13.909 5.45461 13.909Z" fill="black"/>
<path d="M15.5454 13.3635H13.0908C13.0185 13.3635 12.9491 13.3923 12.898 13.4434C12.8468 13.4946 12.8181 13.5639 12.8181 13.6363C12.8181 13.7086 12.8468 13.778 12.898 13.8291C12.9491 13.8802 13.0185 13.909 13.0908 13.909H15.5454C15.6177 13.909 15.6871 13.8802 15.7382 13.8291C15.7894 13.778 15.8181 13.7086 15.8181 13.6363C15.8181 13.5639 15.7894 13.4946 15.7382 13.4434C15.6871 13.3923 15.6177 13.3635 15.5454 13.3635Z" fill="black"/>
<path d="M14.1818 14.1816H13.0908C13.0185 14.1816 12.9491 14.2104 12.898 14.2615C12.8468 14.3127 12.8181 14.382 12.8181 14.4544C12.8181 14.5267 12.8468 14.5961 12.898 14.6472C12.9491 14.6984 13.0185 14.7271 13.0908 14.7271H14.1818C14.2541 14.7271 14.3235 14.6984 14.3746 14.6472C14.4257 14.5961 14.4545 14.5267 14.4545 14.4544C14.4545 14.382 14.4257 14.3127 14.3746 14.2615C14.3235 14.2104 14.2541 14.1816 14.1818 14.1816Z" fill="black"/>
<path d="M6.54552 14.7271C6.61785 14.7271 6.68722 14.6984 6.73837 14.6472C6.78952 14.5961 6.81825 14.5267 6.81825 14.4544C6.81825 14.382 6.78952 14.3127 6.73837 14.2615C6.68722 14.2104 6.61785 14.1816 6.54552 14.1816H5.45461C5.38228 14.1816 5.31291 14.2104 5.26176 14.2615C5.21062 14.3127 5.18188 14.382 5.18188 14.4544C5.18188 14.5267 5.21062 14.5961 5.26176 14.6472C5.31291 14.6984 5.38228 14.7271 5.45461 14.7271H6.54552Z" fill="black"/>
</svg>
