<svg width="20" height="20" viewBox="0 0 20 20" fill="none" xmlns="http://www.w3.org/2000/svg">
<g clip-path="url(#clip0_95_770)">
<path d="M15.479 6.17573C15.2885 6.02964 15.0155 6.06792 14.8703 6.26006L9.23807 13.7253L5.05719 10.3097C4.87112 10.1583 4.59892 10.1844 4.445 10.3714C4.2937 10.5575 4.32064 10.8314 4.50676 10.9836L9.0372 14.6845C9.11546 14.7479 9.21374 14.7827 9.31287 14.7827C9.33027 14.7827 9.34764 14.7819 9.36504 14.7801C9.48243 14.7653 9.58939 14.7045 9.66068 14.6106L15.565 6.78449C15.7094 6.59226 15.6711 6.3201 15.479 6.17573Z" fill="black"/>
<path d="M9.99998 0C4.4861 0 0 4.4861 0 9.99998C0 15.5139 4.4861 20 9.99998 20C15.5139 20 20 15.5139 20 9.99998C20 4.4861 15.5139 0 9.99998 0ZM9.99998 19.1304C4.9652 19.1304 0.869551 15.0348 0.869551 9.99998C0.869551 4.9652 4.9652 0.869551 9.99998 0.869551C15.0348 0.869551 19.1304 4.9652 19.1304 9.99998C19.1304 15.0348 15.0348 19.1304 9.99998 19.1304Z" fill="black"/>
</g>
<defs>
<clipPath id="clip0_95_770">
<rect width="20" height="20" fill="white"/>
</clipPath>
</defs>
</svg>
