<svg width="42" height="42" viewBox="0 0 42 42" fill="none" xmlns="http://www.w3.org/2000/svg">
<path d="M21 0C17.0858 0 13.8873 3.14783 13.8873 7V9.33333H7.93227C6.00752 9.33333 4.35371 10.7287 4.06104 12.6009L0.0369903 38.3496C-0.259683 40.2474 1.26719 42 3.21826 42H38.7817C40.7328 42 42.2597 40.2474 41.963 38.3496L37.9436 12.6283C37.6485 10.7406 35.9806 9.33333 34.0399 9.33333H28.1127V7C28.1127 3.14783 24.9142 0 21 0ZM21 2.33333C23.6329 2.33333 25.7418 4.40886 25.7418 7V9.33333H16.2582V7C16.2582 4.40886 18.3671 2.33333 21 2.33333ZM7.93227 11.6667H15.0728H26.9272H34.0399C34.8273 11.6667 35.4807 12.2178 35.6005 12.9837L39.0411 35H2.95894L6.40415 12.9564C6.52147 12.2059 7.16073 11.6667 7.93227 11.6667ZM2.59312 37.3333H39.4069L39.6199 38.7051C39.7023 39.2325 39.3239 39.6667 38.7817 39.6667H3.21826C2.67606 39.6667 2.29766 39.2325 2.38011 38.7051L2.59312 37.3333Z" fill="black"/>
<path d="M7.44375 16.3333C7.12935 16.3333 6.82782 16.4562 6.60551 16.675C6.3832 16.8938 6.2583 17.1906 6.2583 17.5C6.2583 17.8094 6.3832 18.1062 6.60551 18.325C6.82782 18.5437 7.12935 18.6667 7.44375 18.6667H14.5564C14.8708 18.6667 15.1724 18.5437 15.3947 18.325C15.617 18.1062 15.7419 17.8094 15.7419 17.5C15.7419 17.1906 15.617 16.8938 15.3947 16.675C15.1724 16.4562 14.8708 16.3333 14.5564 16.3333H7.44375Z" fill="black"/>
</svg>
