<svg width="26" height="36" viewBox="0 0 26 36" fill="none" xmlns="http://www.w3.org/2000/svg">
<path d="M1.625 33.75C1.39294 33.75 1.17038 33.8422 1.00628 34.0063C0.842187 34.1704 0.75 34.3929 0.75 34.625C0.75 34.8571 0.842187 35.0796 1.00628 35.2437C1.17038 35.4078 1.39294 35.5 1.625 35.5H6.875C7.10706 35.5 7.32962 35.4078 7.49372 35.2437C7.65781 35.0796 7.75 34.8571 7.75 34.625C7.75 34.3929 7.65781 34.1704 7.49372 34.0063C7.32962 33.8422 7.10706 33.75 6.875 33.75H1.625Z" fill="black"/>
<path d="M19.125 33.75C18.8929 33.75 18.6704 33.8422 18.5063 34.0063C18.3422 34.1704 18.25 34.3929 18.25 34.625C18.25 34.8571 18.3422 35.0796 18.5063 35.2437C18.6704 35.4078 18.8929 35.5 19.125 35.5H24.375C24.6071 35.5 24.8296 35.4078 24.9937 35.2437C25.1578 35.0796 25.25 34.8571 25.25 34.625C25.25 34.3929 25.1578 34.1704 24.9937 34.0063C24.8296 33.8422 24.6071 33.75 24.375 33.75H19.125Z" fill="black"/>
<path d="M13 0.5C6.24488 0.5 0.75 5.99488 0.75 12.75C0.75 16.345 1.76976 19.8653 3.68945 22.9048L10.9185 34.3516C11.369 35.065 12.1562 35.5 13 35.5C13.8438 35.5 14.631 35.065 15.0815 34.3516L22.3105 22.9048C24.2302 19.8653 25.25 16.345 25.25 12.75C25.25 5.99488 19.7551 0.5 13 0.5ZM13 2.25C18.8093 2.25 23.5 6.94065 23.5 12.75C23.5 16.0143 22.5737 19.2117 20.8306 21.9717L13.6016 33.4185C13.4704 33.6261 13.2456 33.75 13 33.75C12.7544 33.75 12.5296 33.6261 12.3984 33.4185L5.16943 21.9717C3.42631 19.2117 2.5 16.0143 2.5 12.75C2.5 6.94065 7.19065 2.25 13 2.25Z" fill="black"/>
<path d="M13 5.75C9.14437 5.75 6 8.89437 6 12.75C6 16.6056 9.14437 19.75 13 19.75C16.8556 19.75 20 16.6056 20 12.75C20 8.89437 16.8556 5.75 13 5.75ZM13 7.5C15.9099 7.5 18.25 9.84014 18.25 12.75C18.25 15.6599 15.9099 18 13 18C10.0901 18 7.75 15.6599 7.75 12.75C7.75 9.84014 10.0901 7.5 13 7.5Z" fill="black"/>
</svg>
