<svg width="57" height="94" viewBox="0 0 57 94" fill="none" xmlns="http://www.w3.org/2000/svg">
<ellipse cx="11.8359" cy="84" rx="9.49678" ry="8.25" fill="#F7F7F7"/>
<path d="M11 75C4.93468 75 0 79.2618 0 84.5C0 89.7382 4.93468 94 11 94C17.0653 94 22 89.7382 22 84.5C22 79.2618 17.0653 75 11 75ZM11 92.9821C5.58446 92.9821 1.17857 89.1771 1.17857 84.5C1.17857 79.8229 5.58446 76.0179 11 76.0179C16.4155 76.0179 20.8214 79.8229 20.8214 84.5C20.8214 89.1771 16.4155 92.9821 11 92.9821Z" fill="#878787"/>
<path d="M15.8051 84.0179H11.7351V80.4821C11.7351 80.2157 11.4868 80 11.1801 80C10.8733 80 10.6251 80.2157 10.6251 80.4821V84.0179H6.55501C6.24827 84.0179 6 84.2335 6 84.5C6 84.7665 6.24827 84.9821 6.55501 84.9821H10.6251V88.5179C10.6251 88.784 10.8733 89 11.1801 89C11.4868 89 11.7351 88.784 11.7351 88.5179V84.9821H15.8051C16.1115 84.9821 16.3601 84.7665 16.3601 84.5C16.3601 84.2335 16.1115 84.0179 15.8051 84.0179Z" fill="#878787"/>
<path d="M56.3571 5.35714H51.6429V0.642857C51.6429 0.287571 51.3553 0 51 0C50.6447 0 50.3571 0.287571 50.3571 0.642857V5.35714H45.6429C45.2876 5.35714 45 5.64471 45 6C45 6.35529 45.2876 6.64286 45.6429 6.64286H50.3571V11.3571C50.3571 11.712 50.6447 12 51 12C51.3553 12 51.6429 11.712 51.6429 11.3571V6.64286H56.3571C56.712 6.64286 57 6.35529 57 6C57 5.64471 56.712 5.35714 56.3571 5.35714Z" fill="#878787"/>
</svg>
