<svg width="24" height="24" viewBox="0 0 24 24" fill="none" xmlns="http://www.w3.org/2000/svg">
<g clip-path="url(#clip0_76_2669)">
<path d="M12 0C5.37268 0 0 5.37268 0 12C0 18.6273 5.37268 24 12 24C18.6273 24 24 18.6273 24 12C23.9927 5.37561 18.6244 0.00732422 12 0ZM12 22.7999C6.03534 22.7999 1.20007 17.9647 1.20007 12C1.20007 6.03534 6.03534 1.20007 12 1.20007C17.9647 1.20007 22.7999 6.03534 22.7999 12C22.7932 17.9617 17.9617 22.7932 12 22.7999Z" fill="black"/>
<path d="M13.8 17.4H12.6001V9.60004C12.6001 9.26862 12.3315 9 12.0001 9H10.8C10.4687 9 10.2001 9.26862 10.2001 9.60004C10.2001 9.93146 10.4687 10.1999 10.8 10.1999H11.4V17.4H10.2C9.86871 17.4 9.6001 17.6686 9.6001 17.9998C9.6001 18.3312 9.86871 18.5999 10.2 18.5999H13.8C14.1314 18.5999 14.4 18.3312 14.4 17.9998C14.4 17.6686 14.1314 17.4 13.8 17.4Z" fill="black"/>
<path d="M13.2001 6C13.2001 6.66266 12.6627 7.19989 12 7.19989C11.3373 7.19989 10.7999 6.66266 10.7999 6C10.7999 5.33716 11.3373 4.79993 12 4.79993C12.6627 4.79993 13.2001 5.33716 13.2001 6Z" fill="black"/>
</g>
<defs>
<clipPath id="clip0_76_2669">
<rect width="24" height="24" fill="white"/>
</clipPath>
</defs>
</svg>
