<svg width="44" height="44" viewBox="0 0 44 44" fill="none" xmlns="http://www.w3.org/2000/svg">
<path d="M22 0.125C9.91667 0.125 0.125 9.91667 0.125 22C0.125 34.0833 9.91667 43.875 22 43.875C34.0833 43.875 43.875 34.0833 43.875 22C43.875 9.91667 34.0833 0.125 22 0.125ZM10.5417 38.1458V34.5C10.5417 31.4792 11.6875 28.5625 13.875 26.375C16.0625 24.1875 18.875 23.0417 22 23.0417C25.0208 23.0417 27.9375 24.1875 30.125 26.375C32.3125 28.5625 33.4583 31.375 33.4583 34.5V38.1458C30.2292 40.4375 26.2708 41.7917 22 41.7917C17.7292 41.7917 13.7708 40.4375 10.5417 38.1458ZM16.7917 15.75C16.7917 12.8333 19.0833 10.5417 22 10.5417C24.9167 10.5417 27.2083 12.8333 27.2083 15.75C27.2083 18.6667 24.9167 20.9583 22 20.9583C19.0833 20.9583 16.7917 18.6667 16.7917 15.75ZM35.5417 36.375V34.5C35.5417 30.8542 34.0833 27.5208 31.5833 24.9167C30.0208 23.3542 28.25 22.3125 26.2708 21.6875C28.1458 20.3333 29.2917 18.25 29.2917 15.75C29.2917 11.6875 26.0625 8.45833 22 8.45833C17.9375 8.45833 14.7083 11.6875 14.7083 15.75C14.7083 18.1458 15.8542 20.3333 17.7292 21.6875C15.75 22.3125 13.9792 23.4583 12.4167 24.9167C9.91667 27.5208 8.45833 30.8542 8.45833 34.5V36.375C4.60417 32.8333 2.20833 27.625 2.20833 22C2.20833 11.0625 11.0625 2.20833 22 2.20833C32.9375 2.20833 41.7917 11.0625 41.7917 22C41.7917 27.625 39.3958 32.8333 35.5417 36.375Z" fill="black"/>
</svg>
