<svg width="32" height="32" viewBox="0 0 32 32" fill="none" xmlns="http://www.w3.org/2000/svg">
<path d="M14 2C7.38329 2 2 7.38329 2 14C2 20.6167 7.38329 26 14 26C20.6167 26 26 20.6167 26 14C26 7.38329 20.6167 2 14 2ZM14 24.7143C8.09214 24.7143 3.28571 19.9079 3.28571 14C3.28571 8.09214 8.09214 3.28571 14 3.28571C19.9079 3.28571 24.7143 8.09214 24.7143 14C24.7143 19.9079 19.9079 24.7143 14 24.7143Z" fill="black"/>
<path d="M19.3571 13.3571H14.6429V8.64286C14.6429 8.28757 14.3553 8 14 8C13.6447 8 13.3571 8.28757 13.3571 8.64286V13.3571H8.64286C8.28757 13.3571 8 13.6447 8 14C8 14.3553 8.28757 14.6429 8.64286 14.6429H13.3571V19.3571C13.3571 19.712 13.6447 20 14 20C14.3553 20 14.6429 19.712 14.6429 19.3571V14.6429H19.3571C19.712 14.6429 20 14.3553 20 14C20 13.6447 19.712 13.3571 19.3571 13.3571Z" fill="black"/>
</svg>
