<svg width="22" height="19" viewBox="0 0 22 19" fill="none" xmlns="http://www.w3.org/2000/svg">
<ellipse cx="11.8359" cy="9" rx="9.49678" ry="8.25" fill="#F7F7F7"/>
<path d="M11 0C4.93468 0 0 4.26177 0 9.5C0 14.7382 4.93468 19 11 19C17.0653 19 22 14.7382 22 9.5C22 4.26177 17.0653 0 11 0ZM11 17.9821C5.58446 17.9821 1.17857 14.1771 1.17857 9.5C1.17857 4.82295 5.58446 1.01786 11 1.01786C16.4155 1.01786 20.8214 4.82295 20.8214 9.5C20.8214 14.1771 16.4155 17.9821 11 17.9821Z" fill="#878787"/>
<path d="M15.8051 9.01786H11.7351V5.48214C11.7351 5.21568 11.4868 5 11.1801 5C10.8733 5 10.6251 5.21568 10.6251 5.48214V9.01786H6.55501C6.24827 9.01786 6 9.23354 6 9.5C6 9.76646 6.24827 9.98214 6.55501 9.98214H10.6251V13.5179C10.6251 13.784 10.8733 14 11.1801 14C11.4868 14 11.7351 13.784 11.7351 13.5179V9.98214H15.8051C16.1115 9.98214 16.3601 9.76646 16.3601 9.5C16.3601 9.23354 16.1115 9.01786 15.8051 9.01786Z" fill="#878787"/>
</svg>
