<svg width="30" height="30" viewBox="0 0 30 30" fill="none" xmlns="http://www.w3.org/2000/svg">
<path d="M11.817 0.00744629C5.3024 0.00744629 0 5.30991 0 11.8245C0 18.339 5.3024 23.6359 11.817 23.6359C14.7363 23.6359 17.4061 22.5659 19.4692 20.8057L28.3827 29.7175C28.4692 29.8077 28.573 29.8797 28.6878 29.9294C28.8025 29.9791 28.9261 30.0053 29.0512 30.0066C29.1762 30.0079 29.3003 29.9842 29.4161 29.9369C29.5319 29.8895 29.637 29.8196 29.7254 29.7311C29.8138 29.6426 29.8836 29.5373 29.9307 29.4215C29.9779 29.3057 30.0014 29.1815 30 29.0564C29.9986 28.9314 29.9722 28.8078 29.9223 28.6931C29.8725 28.5784 29.8003 28.4748 29.7099 28.3884L20.7982 19.4767C22.5586 17.4136 23.6284 14.744 23.6284 11.8245C23.6284 5.30991 18.3315 0.00744629 11.817 0.00744629ZM11.817 1.88204C17.3184 1.88204 21.7538 6.32301 21.7538 11.8245C21.7538 17.3259 17.3184 21.7668 11.817 21.7668C6.31551 21.7668 1.8746 17.3259 1.8746 11.8245C1.8746 6.32301 6.31551 1.88204 11.817 1.88204Z" fill="#E1E1E1"/>
</svg>
