<svg width="50" height="50" viewBox="0 0 50 50" fill="none" xmlns="http://www.w3.org/2000/svg">
<path d="M25 3.125C12.9167 3.125 3.125 12.9167 3.125 25C3.125 37.0833 12.9167 46.875 25 46.875C37.0833 46.875 46.875 37.0833 46.875 25C46.875 12.9167 37.0833 3.125 25 3.125ZM13.5417 41.1458V37.5C13.5417 34.4792 14.6875 31.5625 16.875 29.375C19.0625 27.1875 21.875 26.0417 25 26.0417C28.0208 26.0417 30.9375 27.1875 33.125 29.375C35.3125 31.5625 36.4583 34.375 36.4583 37.5V41.1458C33.2292 43.4375 29.2708 44.7917 25 44.7917C20.7292 44.7917 16.7708 43.4375 13.5417 41.1458ZM19.7917 18.75C19.7917 15.8333 22.0833 13.5417 25 13.5417C27.9167 13.5417 30.2083 15.8333 30.2083 18.75C30.2083 21.6667 27.9167 23.9583 25 23.9583C22.0833 23.9583 19.7917 21.6667 19.7917 18.75ZM38.5417 39.375V37.5C38.5417 33.8542 37.0833 30.5208 34.5833 27.9167C33.0208 26.3542 31.25 25.3125 29.2708 24.6875C31.1458 23.3333 32.2917 21.25 32.2917 18.75C32.2917 14.6875 29.0625 11.4583 25 11.4583C20.9375 11.4583 17.7083 14.6875 17.7083 18.75C17.7083 21.1458 18.8542 23.3333 20.7292 24.6875C18.75 25.3125 16.9792 26.4583 15.4167 27.9167C12.9167 30.5208 11.4583 33.8542 11.4583 37.5V39.375C7.60417 35.8333 5.20833 30.625 5.20833 25C5.20833 14.0625 14.0625 5.20833 25 5.20833C35.9375 5.20833 44.7917 14.0625 44.7917 25C44.7917 30.625 42.3958 35.8333 38.5417 39.375Z" fill="black"/>
</svg>
