<svg width="48" height="48" viewBox="0 0 48 48" fill="none" xmlns="http://www.w3.org/2000/svg">
<path d="M11.9002 11.9999H11.2202L19.2602 3.95994C21.8802 1.34994 26.1202 1.34994 28.7402 3.95994L36.7802 11.9999H36.1002C34.5002 11.9999 32.9902 12.6199 31.8602 13.7599L25.0602 20.5299C24.4702 21.1199 23.5302 21.1199 22.9402 20.5299L16.1402 13.7599C15.0102 12.6199 13.5002 11.9999 11.9002 11.9999Z" fill="#4DB6AC"/>
<path d="M36.1002 36.0001H36.7802L28.7402 44.0401C26.1202 46.6501 21.8802 46.6501 19.2602 44.0401L11.2202 36.0001H11.9002C13.5002 36.0001 15.0102 35.3801 16.1402 34.2401L22.9402 27.4701C23.5302 26.8801 24.4702 26.8801 25.0602 27.4701L31.8602 34.2401C32.9902 35.3801 34.5002 36.0001 36.1002 36.0001Z" fill="#4DB6AC"/>
<path d="M44.0399 28.74L38.7799 34H36.0999C35.0299 34 34.0299 33.58 33.2699 32.83L26.4699 26.05C25.1099 24.69 22.8899 24.69 21.5299 26.05L14.7299 32.83C13.9699 33.58 12.9699 34 11.8999 34H9.21994L3.95994 28.74C1.34994 26.12 1.34994 21.88 3.95994 19.26L9.21994 14H11.8999C12.9699 14 13.9699 14.42 14.7299 15.17L21.5299 21.95C22.2099 22.63 23.1099 22.97 23.9999 22.97C24.8899 22.97 25.7899 22.63 26.4699 21.95L33.2699 15.17C34.0299 14.42 35.0299 14 36.0999 14H38.7799L44.0399 19.26C46.6499 21.88 46.6499 26.12 44.0399 28.74Z" fill="#4DB6AC"/>
</svg>
