<svg width="60" height="62" viewBox="0 0 60 62" fill="none" xmlns="http://www.w3.org/2000/svg">
<path d="M30 53.5316C17.5969 53.5316 7.5 43.3069 7.5 30.7468C7.5 18.1867 17.5969 7.96198 30 7.96198C42.4031 7.96198 52.5 18.1867 52.5 30.7468C52.5 43.3069 42.4031 53.5316 30 53.5316ZM30 9.86071C18.6281 9.86071 9.375 19.231 9.375 30.7468C9.375 42.2626 18.6281 51.6329 30 51.6329C41.3719 51.6329 50.625 42.2626 50.625 30.7468C50.625 19.231 41.3719 9.86071 30 9.86071Z" fill="#6D6D6D"/>
<path d="M25.3124 43.0885C25.0687 43.0885 24.8343 42.9936 24.6468 42.8132C24.2812 42.443 24.2812 41.8449 24.6468 41.4746L35.2405 30.7468L24.6468 20.0284C24.2812 19.6582 24.2812 19.0601 24.6468 18.6898C25.0124 18.3195 25.603 18.3195 25.9687 18.6898L37.2187 30.0822C37.5843 30.4525 37.5843 31.0506 37.2187 31.4208L25.9687 42.8132C25.7905 42.9936 25.5562 43.0885 25.3124 43.0885Z" fill="#6D6D6D"/>
</svg>
