<svg width="61" height="63" viewBox="0 0 61 63" fill="none" xmlns="http://www.w3.org/2000/svg">
<path d="M30.8552 8.43287C43.2566 8.63842 53.1869 19.0291 52.9839 31.5875C52.781 44.1459 42.5202 54.2019 30.1187 53.9964C17.7173 53.7908 7.78698 43.4002 7.98996 30.8418C8.19294 18.2833 18.4537 8.22732 30.8552 8.43287ZM30.1494 52.0979C41.5198 52.2864 50.9231 43.0707 51.1092 31.5564C51.2953 20.0422 42.1948 10.5198 30.8245 10.3313C19.4541 10.1429 10.0508 19.3585 9.86471 30.8728C9.67861 42.3871 18.7791 51.9094 30.1494 52.0979Z" fill="#000000"/>
<path d="M35.3733 18.9522C35.617 18.9562 35.8498 19.055 36.0343 19.2385C36.3939 19.6147 36.3843 20.2128 36.0127 20.5769L25.247 31.1278L35.6661 42.0202C36.0257 42.3965 36.016 42.9945 35.6445 43.3587C35.2729 43.7228 34.6824 43.713 34.3228 43.3368L23.2584 31.7594C22.8988 31.3832 22.9085 30.7852 23.28 30.421L34.7126 19.2166C34.8937 19.0392 35.1295 18.9481 35.3733 18.9522Z" fill="#000000"/>
</svg>
    