<svg id="Layer_1" enable-background="new 0 0 128 128" height="512" viewBox="0 0 128 128" width="512" xmlns="http://www.w3.org/2000/svg"><path id="Search" d="m118.828 113.172-29.036-29.037c6.366-7.633 10.208-17.441 10.208-28.135 0-24.262-19.738-44-44-44s-44 19.738-44 44 19.738 44 44 44c10.694 0 20.502-3.842 28.135-10.208l29.037 29.037c.781.781 1.805 1.172 2.828 1.172s2.047-.391 2.828-1.172c1.563-1.563 1.563-4.095 0-5.657zm-98.828-57.172c0-19.85 16.148-36 36-36s36 16.15 36 36-16.148 36-36 36-36-16.15-36-36z"/></svg>