<svg width="21" height="18" viewBox="0 0 21 18" fill="none" xmlns="http://www.w3.org/2000/svg">
<path d="M10.357 0C4.6427 0 -0.00317383 4.03594 -0.00317383 9C-0.00317383 13.9641 4.6427 18 10.357 18C16.0712 18 20.7171 13.9641 20.7171 9C20.7171 4.03594 16.0712 0 10.357 0ZM10.357 16.875C5.359 16.875 1.29184 13.3418 1.29184 9C1.29184 4.6582 5.359 1.125 10.357 1.125C15.3549 1.125 19.4221 4.6582 19.4221 9C19.4221 13.3418 15.3549 16.875 10.357 16.875ZM15.5573 9C15.5573 9.30937 15.2659 9.5625 14.9097 9.5625H5.80416C5.44803 9.5625 5.15666 9.30937 5.15666 9C5.15666 8.69063 5.44803 8.4375 5.80416 8.4375H14.9097C15.2659 8.4375 15.5573 8.68711 15.5573 9Z" fill="#878787"/>
</svg>
