<svg width="12" height="12" viewBox="0 0 12 12" fill="none" xmlns="http://www.w3.org/2000/svg">
<path d="M11.3571 5.35714H6.64286V0.642857C6.64286 0.287571 6.35529 0 6 0C5.64471 0 5.35714 0.287571 5.35714 0.642857V5.35714H0.642857C0.287571 5.35714 0 5.64471 0 6C0 6.35529 0.287571 6.64286 0.642857 6.64286H5.35714V11.3571C5.35714 11.712 5.64471 12 6 12C6.35529 12 6.64286 11.712 6.64286 11.3571V6.64286H11.3571C11.712 6.64286 12 6.35529 12 6C12 5.64471 11.712 5.35714 11.3571 5.35714Z" fill="#797979"/>
</svg>
